<?xml version="1.0" encoding="utf-8"?>
<!-- Generator: Adobe Illustrator 27.5.0, SVG Export Plug-In . SVG Version: 6.00 Build 0)  -->
<svg version="1.1" xmlns="http://www.w3.org/2000/svg" xmlns:xlink="http://www.w3.org/1999/xlink" x="0px" y="0px"
	 viewBox="0 0 500 500" style="enable-background:new 0 0 500 500;" xml:space="preserve">
<g id="Background_Complete">
	<g>
		<path style="fill:#E6E6E6;" d="M238.395,341.53H45.305c-3.15-0.005-5.7-2.56-5.7-5.71V64.39c0.027-3.13,2.57-5.655,5.7-5.66
			h193.09c3.153,0,5.71,2.556,5.71,5.71l0,0v271.38C244.105,338.974,241.548,341.53,238.395,341.53z M45.305,58.93
			c-3.012,0.006-5.45,2.448-5.45,5.46v271.43c0,3.012,2.438,5.454,5.45,5.46h193.09c3.013-0.005,5.454-2.447,5.46-5.46V64.39
			c-0.006-3.013-2.447-5.455-5.46-5.46H45.305z"/>
		<path style="fill:#E6E6E6;" d="M454.705,341.53h-193.1c-3.151-0.005-5.705-2.559-5.71-5.71V64.39
			c0.033-3.132,2.578-5.655,5.71-5.66h193.1c3.126,0.011,5.663,2.534,5.69,5.66v271.43
			C460.395,338.966,457.851,341.519,454.705,341.53z M261.605,58.93c-3.013,0.006-5.455,2.447-5.46,5.46v271.43
			c0.005,3.013,2.447,5.454,5.46,5.46h193.1c3.013-0.005,5.454-2.447,5.46-5.46V64.39c-0.006-3.013-2.447-5.455-5.46-5.46H261.605z"
			/>
	</g>
	<g>
		<rect x="53.79" y="392.21" style="fill:#E0E0E0;" width="41.21" height="0.25"/>
		<rect x="137.67" y="390.21" style="fill:#E0E0E0;" width="41.33" height="0.25"/>
		<rect x="222.78" y="390.21" style="fill:#E0E0E0;" width="10" height="0.25"/>
		<rect x="86.58" y="398.75" style="fill:#E0E0E0;" width="46.25" height="0.25"/>
		<rect x="271.2" y="392.08" style="fill:#E0E0E0;" width="21.6" height="0.25"/>
		<rect x="301.7" y="392.08" style="fill:#E0E0E0;" width="27.93" height="0.25"/>
		<rect x="401.89" y="396.31" style="fill:#E0E0E0;" width="62.44" height="0.25"/>
	</g>
	<rect y="382.4" style="fill:#E0E0E0;" width="500" height="0.25"/>
	<g>
		<g>
			<g>
				<rect x="81.492" y="100.325" style="fill:#E0E0E0;" width="1.8" height="140.366"/>
				<rect x="193.542" y="100.325" style="fill:#E0E0E0;" width="1.8" height="140.366"/>
			</g>
			<polygon style="fill:#EBEBEB;" points="202.392,109.15 74.442,109.15 71.742,102.85 205.092,102.85 			"/>
			<polygon style="fill:#EBEBEB;" points="202.392,117.799 74.442,117.799 71.742,111.499 205.092,111.499 			"/>
			<polygon style="fill:#EBEBEB;" points="202.392,126.449 74.442,126.449 71.742,120.149 205.092,120.149 			"/>
			<polygon style="fill:#EBEBEB;" points="202.392,135.098 74.442,135.098 71.742,128.798 205.092,128.798 			"/>
			<polygon style="fill:#EBEBEB;" points="202.392,143.747 74.442,143.747 71.742,137.447 205.092,137.447 			"/>
			<polygon style="fill:#EBEBEB;" points="202.392,152.397 74.442,152.397 71.742,146.097 205.092,146.097 			"/>
			<polygon style="fill:#EBEBEB;" points="202.392,161.046 74.442,161.046 71.742,154.746 205.092,154.746 			"/>
			<polygon style="fill:#EBEBEB;" points="202.392,169.696 74.442,169.696 71.742,163.396 205.092,163.396 			"/>
			<polygon style="fill:#EBEBEB;" points="202.392,178.345 74.442,178.345 71.742,172.045 205.092,172.045 			"/>
			<polygon style="fill:#EBEBEB;" points="202.392,186.994 74.442,186.994 71.742,180.694 205.092,180.694 			"/>
			<polygon style="fill:#EBEBEB;" points="202.392,195.644 74.442,195.644 71.742,189.344 205.092,189.344 			"/>
			<polygon style="fill:#EBEBEB;" points="202.392,204.293 74.442,204.293 71.742,197.993 205.092,197.993 			"/>
			<polygon style="fill:#EBEBEB;" points="202.392,212.943 74.442,212.943 71.742,206.643 205.092,206.643 			"/>
			<polygon style="fill:#EBEBEB;" points="202.392,221.592 74.442,221.592 71.742,215.292 205.092,215.292 			"/>
			<polygon style="fill:#EBEBEB;" points="202.392,230.241 74.442,230.241 71.742,223.941 205.092,223.941 			"/>
			<polygon style="fill:#EBEBEB;" points="202.392,238.891 74.442,238.891 71.742,232.591 205.092,232.591 			"/>
			<rect x="71.742" y="238.891" style="fill:#E0E0E0;" width="133.35" height="3.6"/>
			<rect x="67.092" y="94.96" style="fill:#E0E0E0;" width="142.65" height="8.401"/>
			<path style="fill:#E0E0E0;" d="M68.557,179.52L68.557,179.52c-0.802,0-1.451-0.65-1.451-1.451v-48.994
				c0-0.802,0.65-1.451,1.451-1.451l0,0c0.801,0,1.451,0.65,1.451,1.451v48.994C70.008,178.87,69.358,179.52,68.557,179.52z"/>
			<rect x="68.032" y="101.675" style="fill:#E0E0E0;" width="1.05" height="29.098"/>
		</g>
		<g>
			<g>
				<rect x="362.055" y="290.464" style="fill:#E6E6E6;" width="75.807" height="81.595"/>
				<rect x="439.907" y="284.394" style="fill:#E6E6E6;" width="9.529" height="98.253"/>
				<rect x="374.122" y="296.887" style="fill:#FAFAFA;" width="6.211" height="30.492"/>
				<rect x="399.876" y="296.887" style="fill:#F5F5F5;" width="6.211" height="30.492"/>
				<rect x="380.334" y="299.03" style="fill:#F5F5F5;" width="6.212" height="28.349"/>
				<rect x="393.665" y="299.03" style="fill:#FAFAFA;" width="6.211" height="28.349"/>
				<rect x="389.651" y="296.887" style="fill:#EBEBEB;" width="4.014" height="30.492"/>
				<rect x="386.545" y="299.03" style="fill:#FAFAFA;" width="3.106" height="28.349"/>
				<rect x="406.087" y="296.887" style="fill:#EBEBEB;" width="6.211" height="30.492"/>
				<rect x="412.299" y="299.03" style="fill:#E6E6E6;" width="6.211" height="28.349"/>
				<rect x="425.63" y="299.03" style="fill:#E6E6E6;" width="6.211" height="28.349"/>
				<rect x="421.616" y="296.887" style="fill:#FAFAFA;" width="4.014" height="30.492"/>
				<rect x="418.51" y="299.03" style="fill:#EBEBEB;" width="3.106" height="28.349"/>
				<rect x="431.841" y="297.609" style="fill:#FAFAFA;" width="3.106" height="29.77"/>
				
					<rect x="428.735" y="337.755" transform="matrix(-1 -1.224647e-16 1.224647e-16 -1 863.682 706.0019)" style="fill:#FAFAFA;" width="6.211" height="30.492"/>
				
					<rect x="402.982" y="337.755" transform="matrix(-1 -1.224647e-16 1.224647e-16 -1 812.1747 706.0019)" style="fill:#FAFAFA;" width="6.211" height="30.492"/>
				
					<rect x="422.524" y="339.898" transform="matrix(-1 -1.224647e-16 1.224647e-16 -1 851.2593 708.1447)" style="fill:#F0F0F0;" width="6.211" height="28.349"/>
				
					<rect x="409.193" y="339.898" transform="matrix(-1 -1.224647e-16 1.224647e-16 -1 824.5974 708.1447)" style="fill:#EBEBEB;" width="6.211" height="28.349"/>
				
					<rect x="415.404" y="337.755" transform="matrix(-1 -1.224647e-16 1.224647e-16 -1 834.8227 706.0019)" style="fill:#FAFAFA;" width="4.014" height="30.492"/>
				
					<rect x="419.418" y="339.898" transform="matrix(-1 -1.224647e-16 1.224647e-16 -1 841.9423 708.1447)" style="fill:#F5F5F5;" width="3.106" height="28.349"/>
				
					<rect x="396.77" y="337.755" transform="matrix(-1 -1.224647e-16 1.224647e-16 -1 799.752 706.0019)" style="fill:#EBEBEB;" width="6.211" height="30.492"/>
				
					<rect x="390.559" y="339.898" transform="matrix(-1 -1.224647e-16 1.224647e-16 -1 787.3292 708.1447)" style="fill:#F5F5F5;" width="6.211" height="28.349"/>
				
					<rect x="377.228" y="339.898" transform="matrix(-1 -1.224647e-16 1.224647e-16 -1 760.6674 708.1447)" style="fill:#E6E6E6;" width="6.211" height="28.349"/>
				
					<rect x="383.439" y="337.755" transform="matrix(-1 -1.224647e-16 1.224647e-16 -1 770.8926 706.0019)" style="fill:#FAFAFA;" width="4.014" height="30.492"/>
				
					<rect x="370.108" y="337.755" transform="matrix(-1 -1.224647e-16 1.224647e-16 -1 744.2308 706.0019)" style="fill:#FAFAFA;" width="4.014" height="30.492"/>
				
					<rect x="387.453" y="339.898" transform="matrix(-1 -1.224647e-16 1.224647e-16 -1 778.0121 708.1447)" style="fill:#EBEBEB;" width="3.106" height="28.349"/>
				
					<rect x="374.122" y="338.477" transform="matrix(-1 -1.224647e-16 1.224647e-16 -1 751.3503 706.7241)" style="fill:#F0F0F0;" width="3.106" height="29.77"/>
				<path style="fill:#F0F0F0;" d="M437.48,284.394h-2.541h-75.284v92.747h75.284v5.506h5.082v-98.253H437.48z M434.939,368.247
					h-70.492v-35.752h70.492V368.247z M434.939,327.413h-70.492v-34.125h70.492V327.413z"/>
				
					<rect x="286.124" y="290.464" transform="matrix(-1 -1.224647e-16 1.224647e-16 -1 648.0557 662.5223)" style="fill:#E6E6E6;" width="75.807" height="81.595"/>
				
					<rect x="289.039" y="376.143" transform="matrix(-1 -1.224647e-16 1.224647e-16 -1 587.6075 758.7889)" style="fill:#E6E6E6;" width="9.529" height="6.503"/>
				
					<rect x="353.166" y="296.887" transform="matrix(-1 -1.224647e-16 1.224647e-16 -1 712.5433 624.2659)" style="fill:#FAFAFA;" width="6.211" height="30.492"/>
				
					<rect x="327.412" y="296.887" transform="matrix(-1 -1.224647e-16 1.224647e-16 -1 661.0358 624.2659)" style="fill:#F5F5F5;" width="6.211" height="30.492"/>
				
					<rect x="346.954" y="299.03" transform="matrix(-1 -1.224647e-16 1.224647e-16 -1 700.1205 626.4088)" style="fill:#F5F5F5;" width="6.212" height="28.349"/>
				
					<rect x="333.624" y="299.03" transform="matrix(-1 -1.224647e-16 1.224647e-16 -1 673.4586 626.4088)" style="fill:#FAFAFA;" width="6.211" height="28.349"/>
				
					<rect x="339.835" y="296.887" transform="matrix(-1 -1.224647e-16 1.224647e-16 -1 683.6838 624.2659)" style="fill:#EBEBEB;" width="4.014" height="30.492"/>
				
					<rect x="343.849" y="299.03" transform="matrix(-1 -1.224647e-16 1.224647e-16 -1 690.8033 626.4088)" style="fill:#FAFAFA;" width="3.106" height="28.349"/>
				
					<rect x="325.296" y="296.887" transform="matrix(-1 -1.224647e-16 1.224647e-16 -1 656.8027 624.2659)" style="fill:#EBEBEB;" width="6.211" height="30.492"/>
				
					<rect x="319.084" y="299.03" transform="matrix(-1 -1.224647e-16 1.224647e-16 -1 644.3799 626.4088)" style="fill:#E6E6E6;" width="6.211" height="28.349"/>
				
					<rect x="305.753" y="299.03" transform="matrix(-1 -1.224647e-16 1.224647e-16 -1 617.7181 626.4088)" style="fill:#E6E6E6;" width="6.211" height="28.349"/>
				
					<rect x="311.965" y="296.887" transform="matrix(-1 -1.224647e-16 1.224647e-16 -1 627.9434 624.2659)" style="fill:#FAFAFA;" width="4.014" height="30.492"/>
				
					<rect x="315.979" y="299.03" transform="matrix(-1 -1.224647e-16 1.224647e-16 -1 635.0629 626.4088)" style="fill:#EBEBEB;" width="3.106" height="28.349"/>
				
					<rect x="302.648" y="297.609" transform="matrix(-1 -1.224647e-16 1.224647e-16 -1 608.4011 624.9882)" style="fill:#F5F5F5;" width="3.106" height="29.77"/>
				<rect x="299.73" y="337.755" style="fill:#FAFAFA;" width="6.211" height="30.492"/>
				<rect x="325.484" y="337.755" style="fill:#FAFAFA;" width="6.211" height="30.492"/>
				<rect x="305.942" y="339.898" style="fill:#F5F5F5;" width="6.211" height="28.349"/>
				<rect x="319.272" y="339.898" style="fill:#EBEBEB;" width="6.211" height="28.349"/>
				<rect x="315.259" y="337.755" style="fill:#FAFAFA;" width="4.014" height="30.492"/>
				<rect x="312.153" y="339.898" style="fill:#F5F5F5;" width="3.106" height="28.349"/>
				<rect x="327.6" y="337.755" style="fill:#EBEBEB;" width="6.211" height="30.492"/>
				<rect x="333.812" y="339.898" style="fill:#F5F5F5;" width="6.211" height="28.349"/>
				<rect x="347.143" y="339.898" style="fill:#E6E6E6;" width="6.211" height="28.349"/>
				<rect x="343.129" y="337.755" style="fill:#FAFAFA;" width="4.014" height="30.492"/>
				<rect x="355.641" y="337.755" style="fill:#FAFAFA;" width="4.014" height="30.492"/>
				<rect x="340.023" y="339.898" style="fill:#EBEBEB;" width="3.106" height="28.349"/>
				<rect x="353.354" y="338.477" style="fill:#EBEBEB;" width="3.106" height="29.77"/>
				<path style="fill:#F0F0F0;" d="M283.965,284.394v98.253h5.082v-5.506h75.284v-92.747h-75.284h-2.541H283.965z M289.047,332.495
					h70.492v35.752h-70.492V332.495z M289.047,293.287h70.492v34.125h-70.492V293.287z"/>
			</g>
			<g>
				<path style="fill:#EBEBEB;" d="M93.654,350.145c0,0-7.278-34.396,5.977-53.027c13.255-18.632-11.98-0.215-14.883,17.226
					c0,0-4.35-31.184,8.508-53.125c12.858-21.941-11.199-3.925-13.243,18.681c0,0-3.939-27.821,1.969-43.455
					c5.908-15.634-4.37-5.581-8.321,4.219c-3.951,9.8,1.233,34.068,1.233,34.068s-10.311-44.873-20.071-41.302
					c-9.76,3.571,14.592,32.972,17.97,48.266c0,0-11.509-20.582-20.24-16.298c-8.731,4.285,13.523,6.416,23.713,37.106l3.58,14.389
					c0,0-10.59-20.313-17.515-13.905c-6.925,6.408,20.532,17.468,26.912,48.254L93.654,350.145z"/>
				<g>
					<path style="fill:#EBEBEB;" d="M107.31,382.646H79.339c-6.072,0-10.994-4.922-10.994-10.994v-11.006h49.96v11.006
						C118.304,377.724,113.382,382.646,107.31,382.646z"/>
					<path style="fill:#F5F5F5;" d="M120.636,367.646H66.013c-2.326,0-4.211-1.885-4.211-4.211v-11.278
						c0-2.326,1.885-4.211,4.211-4.211h54.622c2.326,0,4.211,1.885,4.211,4.211v11.278
						C124.847,365.761,122.961,367.646,120.636,367.646z"/>
				</g>
				<path style="fill:#F5F5F5;" d="M92.228,352.125c0,0-1.531-43.366-22.958-61.732c-21.428-18.367,14.285-3.826,22.958,16.198
					c0,0-4.081-38.646-26.019-61.094c-21.938-22.448,12.244-8.038,21.428,18.429c0,0-3.571-34.496-15.305-51.461
					c-11.734-16.965,3.571-7.986,11.224,2.574c7.653,10.561,8.673,41.172,8.673,41.172s-1.02-56.818,11.734-55.449
					c12.755,1.37-7.653,43.839-7.143,63.164c0,0,7.653-28.081,19.387-25.551c11.734,2.53-14.285,11.714-17.346,51.508v18.301
					c0,0,6.632-27.485,16.836-21.873c10.204,5.612-19.387,27.04-17.856,65.814H92.228z"/>
			</g>
		</g>
		<g>
			<rect x="367.02" y="95.948" style="fill:#EBEBEB;" width="59.5" height="88.685"/>
			<rect x="371.125" y="102.066" style="fill:#F5F5F5;" width="51.29" height="76.448"/>
			<g>
				
					<ellipse transform="matrix(0.2298 -0.9732 0.9732 0.2298 183.2007 486.5976)" style="fill:#E0E0E0;" cx="399.022" cy="127.557" rx="10.29" ry="10.29"/>
				<polygon style="fill:#EBEBEB;" points="388.732,167.557 403.778,149.557 409.312,167.557 				"/>
				<g>
					<path style="fill:#EBEBEB;" d="M381.483,114.768c-7.201,11.726-1.992,26.286,6.188,35.849c1.257,1.469,3.371-0.661,2.121-2.121
						c-7.305-8.54-12.175-21.7-5.719-32.214C385.087,114.633,382.493,113.124,381.483,114.768L381.483,114.768z"/>
				</g>
				<polygon style="fill:#EBEBEB;" points="411.778,106.933 406.278,112.557 411.778,117.267 416.778,112.1 				"/>
			</g>
		</g>
		<g>
			<g>
				<g>
					<polygon style="fill:#E0E0E0;" points="411.028,270.014 384.668,270.014 391.241,259.514 407.108,259.514 407.108,262.514 
						392.903,262.514 390.086,267.014 411.028,267.014 					"/>
				</g>
				<g>
					
						<rect x="401.941" y="260.753" transform="matrix(0.9884 -0.1519 0.1519 0.9884 -35.3795 64.3294)" style="fill:#E0E0E0;" width="3" height="6.045"/>
				</g>
			</g>
			<g>
				<g>
					
						<rect x="408.772" y="263.965" transform="matrix(0.4764 -0.8792 0.8792 0.4764 -17.4495 501.6302)" style="fill:#EBEBEB;" width="7.331" height="3.001"/>
				</g>
				<g>
					<path style="fill:#E0E0E0;" d="M428.744,264.215l-16.181,0.502c-1.18,0.037-2.161-0.777-2.161-1.794v-1.004
						c0-1.017,0.98-1.83,2.161-1.794l16.181,0.502c1.122,0.035,2.01,0.828,2.01,1.794l0,0
						C430.754,263.388,429.866,264.18,428.744,264.215z"/>
				</g>
			</g>
			<g>
				<g>
					<polygon style="fill:#E6E6E6;" points="378.499,279.792 386.427,275.689 386.427,273.362 378.499,269.26 					"/>
				</g>
				<g>
					<rect x="377.401" y="269.26" style="fill:#E0E0E0;" width="1.098" height="10.531"/>
				</g>
			</g>
			<g>
				<g>
					<polygon style="fill:#E6E6E6;" points="420.753,282.774 408.336,276.348 408.336,272.704 420.753,266.277 					"/>
				</g>
				<g>
					<rect x="420.753" y="266.277" style="fill:#E0E0E0;" width="1.72" height="16.497"/>
				</g>
			</g>
			<g>
				<path style="fill:#EBEBEB;" d="M412.455,284.198h-22.586c-4.393,0-7.955-3.562-7.955-7.955v-2.011
					c0-4.393,3.562-7.955,7.955-7.955h22.586V284.198z"/>
			</g>
		</g>
	</g>
</g>
<g id="Background_Simple_1_" style="display:none;">
	<g style="display:inline;">
		<path style="fill:#407BFF;" d="M282.109,74.772c-46.068-0.687-92.248,13.047-130.454,38.796
			c-43.309,29.188-71.6,77.697-75.056,129.809c-3.047,45.948,8.192,55.218,10.005,82.061c3.587,53.101,87.28,49.962,112.782,41.377
			c25.503-8.585,49.775-20.582,75.419-28.733c23.631-7.511,48.433-11.764,70.857-22.346c35.877-16.93,63.589-50.294,73.648-88.668
			c6.482-24.731,7.141-52.423-4.64-75.113c-23.481-45.221-76.016-66.418-90.178-70.903
			C310.831,76.725,296.401,74.985,282.109,74.772z"/>
		<path style="opacity:0.9;fill:#FFFFFF;" d="M282.109,74.772c-46.068-0.687-92.248,13.047-130.454,38.796
			c-43.309,29.188-71.6,77.697-75.056,129.809c-3.047,45.948,8.192,55.218,10.005,82.061c3.587,53.101,87.28,49.962,112.782,41.377
			c25.503-8.585,49.775-20.582,75.419-28.733c23.631-7.511,48.433-11.764,70.857-22.346c35.877-16.93,63.589-50.294,73.648-88.668
			c6.482-24.731,7.141-52.423-4.64-75.113c-23.481-45.221-76.016-66.418-90.178-70.903
			C310.831,76.725,296.401,74.985,282.109,74.772z"/>
	</g>
</g>
<g id="Shadows_1_">
	<g id="Shadow--inject-214">
		<ellipse id="path--inject-214" style="fill:#F5F5F5;" cx="250" cy="410.07" rx="193.89" ry="11.32"/>
	</g>
</g>
<g id="Desk">
	<g>
		<path style="fill:#263238;" d="M296.514,290.69h-6.243l-9.991,118.354c-0.112,1.32,0.93,2.454,2.255,2.454l0,0
			c1.164,0,2.138-0.883,2.252-2.041L296.514,290.69z"/>
		<path style="opacity:0.1;fill:#FFFFFF;" d="M296.514,290.69h-6.243l-9.991,118.354c-0.112,1.32,0.93,2.454,2.255,2.454l0,0
			c1.164,0,2.138-0.883,2.252-2.041L296.514,290.69z"/>
		<g>
			<path style="fill:#263238;" d="M146.528,289.865h-6.243l-9.992,119.18c-0.111,1.32,0.931,2.452,2.255,2.452l0,0
				c1.164,0,2.139-0.883,2.252-2.042L146.528,289.865z"/>
			<path style="opacity:0.1;fill:#FFFFFF;" d="M146.528,289.865h-6.243l-9.992,119.18c-0.111,1.32,0.931,2.452,2.255,2.452l0,0
				c1.164,0,2.139-0.883,2.252-2.042L146.528,289.865z"/>
		</g>
		<g>
			<g>
				<path style="fill:#263238;" d="M174.206,289.865h6.243l0.18,119.543c0.002,1.253-1.014,2.271-2.267,2.271l0,0
					c-1.24,0-2.25-0.995-2.267-2.235L174.206,289.865z"/>
				<path style="opacity:0.2;fill:#FFFFFF;" d="M174.206,289.865h6.243l0.18,119.543c0.002,1.253-1.014,2.271-2.267,2.271l0,0
					c-1.24,0-2.25-0.995-2.267-2.235L174.206,289.865z"/>
			</g>
			<g>
				<path style="fill:#263238;" d="M322.192,289.865h6.243l0.18,119.543c0.002,1.253-1.014,2.271-2.267,2.271l0,0
					c-1.24,0-2.25-0.995-2.267-2.235L322.192,289.865z"/>
				<path style="opacity:0.2;fill:#FFFFFF;" d="M328.436,289.865l0.18,119.543c0.002,1.253-1.014,2.271-2.267,2.271l0,0
					c-1.24,0-2.25-0.995-2.267-2.235l-1.889-119.579H328.436z"/>
			</g>
			<polygon style="fill:#407BFF;" points="138.406,312.271 328.303,310.862 328.303,289.865 140.284,289.865 			"/>
			<polygon style="opacity:0.3;" points="174.206,290.025 174.556,312.003 138.406,312.271 140.284,289.865 			"/>
		</g>
		<path style="fill:#263238;" d="M335.627,284.824L335.627,284.824c-0.004-2.828-1.054-5.119-2.352-5.127H137.446
			c-1.297,0.008-2.348,2.299-2.352,5.127l0,0c0.004,2.828,1.055,5.119,2.352,5.127h195.829
			C334.572,289.943,335.623,287.652,335.627,284.824z"/>
		<path style="opacity:0.1;fill:#FFFFFF;" d="M335.627,284.824L335.627,284.824c-0.004-2.828-1.054-5.119-2.352-5.127H137.446
			c-1.297,0.008-2.348,2.299-2.352,5.127l0,0c0.004,2.828,1.055,5.119,2.352,5.127h195.829
			C334.572,289.943,335.623,287.652,335.627,284.824z"/>
		<path style="opacity:0.3;" d="M185.64,284.824L185.64,284.824c-0.004-2.828-1.055-5.119-2.352-5.127h-45.843
			c-1.297,0.008-2.348,2.299-2.352,5.127l0,0c0.004,2.828,1.055,5.119,2.352,5.127h45.843
			C184.585,289.943,185.636,287.652,185.64,284.824z"/>
	</g>
</g>
<g id="Device">
	<g>
		<path style="fill:#407BFF;" d="M285.276,280.219h-20.566l0.475-2.233c2.193-5.905,13.439-5.905,13.439-5.905
			c2.785,0.159,5.51,2.768,6.286,6.418L285.276,280.219z"/>
		<g>
			<path style="fill:#263238;" d="M228.2,276.923h20.662l2.461-21.603h-18.763L228.2,276.923z"/>
			<path style="fill:#263238;" d="M224.554,279.664h0.977v0.244h35.047v-2.985H228.2l4.361-21.603h18.763l1.04-9.164
				c-0.054-1.248-1.095-2.234-2.343-2.234h-16.076c-1.258,0-2.289,0.986-2.352,2.234L224.554,279.664z"/>
			<polygon style="fill:#263238;" points="228.2,276.923 248.863,276.923 251.133,257.021 251.323,255.32 232.561,255.32 			"/>
			<polygon style="opacity:0.1;" points="250.457,262.512 251.323,255.321 229.668,255.321 228.157,262.512 			"/>
		</g>
		<g>
			<g>
				<g>
					<path style="fill:#263238;" d="M261.013,277.553h2.454c0.259,0,0.469-0.191,0.469-0.427v-2.368c0-0.236-0.21-0.427-0.469-0.427
						h-1.762c-0.212,0-0.398,0.13-0.452,0.317l-0.692,2.368C260.481,277.287,260.705,277.553,261.013,277.553z"/>
					<path style="fill:#263238;" d="M257.622,277.553h2.454c0.259,0,0.469-0.191,0.469-0.427v-2.368c0-0.236-0.21-0.427-0.469-0.427
						h-1.762c-0.212,0-0.398,0.13-0.453,0.317l-0.692,2.368C257.09,277.287,257.314,277.553,257.622,277.553z"/>
					<path style="fill:#263238;" d="M254.231,277.553h2.454c0.259,0,0.469-0.191,0.469-0.427v-2.368c0-0.236-0.21-0.427-0.469-0.427
						h-1.762c-0.212,0-0.398,0.13-0.453,0.317l-0.692,2.368C253.699,277.287,253.923,277.553,254.231,277.553z"/>
					<path style="fill:#263238;" d="M250.84,277.553h2.454c0.259,0,0.468-0.191,0.468-0.427v-2.368c0-0.236-0.21-0.427-0.468-0.427
						h-1.762c-0.212,0-0.398,0.13-0.453,0.317l-0.692,2.368C250.308,277.287,250.532,277.553,250.84,277.553z"/>
					<path style="fill:#263238;" d="M247.449,277.553h2.454c0.259,0,0.468-0.191,0.468-0.427v-2.368c0-0.236-0.21-0.427-0.468-0.427
						h-1.762c-0.212,0-0.398,0.13-0.453,0.317l-0.692,2.368C246.917,277.287,247.141,277.553,247.449,277.553z"/>
					<path style="fill:#263238;" d="M244.058,277.553h2.454c0.259,0,0.469-0.191,0.469-0.427v-2.368c0-0.236-0.21-0.427-0.469-0.427
						h-1.762c-0.212,0-0.398,0.13-0.453,0.317l-0.692,2.368C243.526,277.287,243.75,277.553,244.058,277.553z"/>
					<path style="fill:#263238;" d="M240.667,277.553h2.454c0.259,0,0.469-0.191,0.469-0.427v-2.368c0-0.236-0.21-0.427-0.469-0.427
						h-1.762c-0.212,0-0.398,0.13-0.453,0.317l-0.692,2.368C240.135,277.287,240.36,277.553,240.667,277.553z"/>
					<path style="fill:#263238;" d="M237.276,277.553h2.454c0.259,0,0.468-0.191,0.468-0.427v-2.368c0-0.236-0.21-0.427-0.468-0.427
						h-1.762c-0.212,0-0.398,0.13-0.453,0.317l-0.692,2.368C236.744,277.287,236.969,277.553,237.276,277.553z"/>
					<path style="fill:#263238;" d="M233.885,277.553h2.454c0.259,0,0.468-0.191,0.468-0.427v-2.368c0-0.236-0.21-0.427-0.468-0.427
						h-1.762c-0.212,0-0.398,0.13-0.453,0.317l-0.692,2.368C233.354,277.287,233.578,277.553,233.885,277.553z"/>
					<path style="fill:#263238;" d="M230.495,277.553h2.454c0.259,0,0.468-0.191,0.468-0.427v-2.368c0-0.236-0.21-0.427-0.468-0.427
						h-1.762c-0.212,0-0.398,0.13-0.453,0.317l-0.692,2.368C229.963,277.287,230.187,277.553,230.495,277.553z"/>
					<path style="fill:#263238;" d="M227.104,277.553h2.453c0.259,0,0.469-0.191,0.469-0.427v-2.368c0-0.236-0.21-0.427-0.469-0.427
						h-1.761c-0.212,0-0.398,0.13-0.453,0.317l-0.692,2.368C226.572,277.287,226.796,277.553,227.104,277.553z"/>
					<path style="fill:#263238;" d="M223.713,277.553h2.454c0.259,0,0.469-0.191,0.469-0.427v-2.368c0-0.236-0.21-0.427-0.469-0.427
						h-1.762c-0.212,0-0.398,0.13-0.453,0.317l-0.692,2.368C223.181,277.287,223.405,277.553,223.713,277.553z"/>
					<path style="fill:#263238;" d="M220.322,277.553h2.454c0.259,0,0.469-0.191,0.469-0.427v-2.368c0-0.236-0.21-0.427-0.469-0.427
						h-1.762c-0.212,0-0.398,0.13-0.453,0.317l-0.692,2.368C219.79,277.287,220.014,277.553,220.322,277.553z"/>
					<path style="fill:#263238;" d="M216.931,277.553h2.454c0.259,0,0.468-0.191,0.468-0.427v-2.368c0-0.236-0.21-0.427-0.468-0.427
						h-1.762c-0.212,0-0.398,0.13-0.453,0.317l-0.692,2.368C216.399,277.287,216.623,277.553,216.931,277.553z"/>
					<path style="fill:#263238;" d="M213.54,277.553h2.454c0.259,0,0.468-0.191,0.468-0.427v-2.368c0-0.236-0.21-0.427-0.468-0.427
						h-1.762c-0.212,0-0.398,0.13-0.453,0.317l-0.692,2.368C213.008,277.287,213.233,277.553,213.54,277.553z"/>
				</g>
				<path style="fill:#263238;" d="M211.071,277.81c0,1.031,0.922,1.864,2.042,1.864h50.77c1.13,0,2.042-0.832,2.042-1.864
					c0-0.516-0.228-0.986-0.595-1.321c-0.357-0.326-0.853-0.534-1.398-0.543h-50.82c-0.198,0-0.387,0.027-0.565,0.072
					C211.695,276.245,211.071,276.959,211.071,277.81z"/>
			</g>
			<path style="opacity:0.2;fill:#FFFFFF;" d="M211.071,277.81c0,1.031,0.922,1.864,2.042,1.864h50.77
				c1.13,0,2.042-0.832,2.042-1.864c0-0.516-0.228-0.986-0.595-1.321c-0.357-0.326-0.853-0.534-1.398-0.543h-50.82
				c-0.198,0-0.387,0.027-0.565,0.072C211.695,276.245,211.071,276.959,211.071,277.81z"/>
			<path style="fill:#263238;" d="M211.071,277.81c0,1.031,0.922,1.864,2.042,1.864h17.191c0.823-0.244,1.418-0.95,1.418-1.782
				c0-0.118-0.01-0.226-0.03-0.335c-0.079-0.38-0.278-0.724-0.575-0.986c-0.129-0.118-0.278-0.217-0.436-0.308
				c-0.079-0.036-0.159-0.072-0.238-0.108c-0.248-0.091-0.506-0.136-0.783-0.136h-17.111
				C211.695,276.245,211.071,276.959,211.071,277.81z"/>
		</g>
		<g>
			<g>
				<path style="fill:#407BFF;" d="M196.459,194.646h5.188l5.831,63.278h-5.188c-0.86,0-1.631-0.805-1.722-1.797l-5.5-59.683
					C194.977,195.45,195.6,194.646,196.459,194.646z"/>
				<path style="opacity:0.3;" d="M196.459,194.646h5.188l5.831,63.278h-5.188c-0.86,0-1.631-0.805-1.722-1.797l-5.5-59.683
					C194.977,195.45,195.6,194.646,196.459,194.646z"/>
				<g>
					<path style="fill:#407BFF;" d="M204.484,257.924h77.755c0.86,0,1.483-0.805,1.391-1.797l-5.5-59.683
						c-0.091-0.993-0.862-1.797-1.722-1.797h-77.755c-0.86,0-1.483,0.805-1.391,1.797l5.5,59.683
						C202.853,257.119,203.625,257.924,204.484,257.924z"/>
				</g>
			</g>
			<g>
				<polygon style="fill:#407BFF;" points="206.83,245.227 277.45,245.227 273.534,200.459 202.913,200.459 				"/>
				<path style="fill:#263238;" d="M207.802,248.731h69.591c1.974,0,3.435-1.6,3.262-3.575l-3.892-44.489
					c-0.173-1.974-1.913-3.575-3.888-3.575h-69.591c-1.974,0-3.435,1.6-3.262,3.575l3.892,44.489
					C204.087,247.13,205.827,248.731,207.802,248.731z"/>
				<g>
					<polygon style="fill:#407BFF;" points="206.83,245.227 277.45,245.227 273.534,200.459 202.913,200.459 					"/>
					<polygon style="opacity:0.4;fill:#FFFFFF;" points="206.83,245.227 277.45,245.227 273.534,200.459 202.913,200.459 					"/>
				</g>
				<g>
					<path style="fill:#407BFF;" d="M229.952,202.909l3.412,38.996h-25.889l-3.412-38.996H229.952 M230.868,201.909h-0.916h-25.889
						h-1.091l0.095,1.087l3.412,38.996l0.08,0.913h0.916h25.889h1.091l-0.095-1.087l-3.412-38.996L230.868,201.909L230.868,201.909z
						"/>
					<g>
						<polygon style="fill:#FFFFFF;" points="233.364,241.906 207.475,241.906 204.063,202.909 229.952,202.909 						"/>
					</g>
					<g>
						<polygon style="fill:#407BFF;" points="215.085,214.83 207.213,214.83 206.346,204.931 214.219,204.931 						"/>
						<g style="opacity:0.2;">
							<path d="M207.28,204.931l0-0.001h-0.678l0,0.001h-0.256l0.672,7.678h0.256l-0.049-0.558h0.678l0.049,0.558h0.256
								l-0.672-7.678H207.28z M206.963,209.049l-0.098-1.117h0.677l0.098,1.117H206.963z M207.663,209.305l0.098,1.117h-0.677
								l-0.098-1.117H207.663z M206.843,207.676l-0.098-1.117h0.677l0.098,1.117H206.843z M206.723,206.303l-0.098-1.117h0.677
								l0.098,1.117H206.723z M207.203,211.794l-0.098-1.117h0.677l0.098,1.117H207.203z"/>
						</g>
						<g style="opacity:0.2;">
							<path d="M213.963,204.931l0-0.001h-0.677l0,0.001h-0.256l0.672,7.678h0.256l-0.049-0.558h0.677l0.049,0.558h0.256
								l-0.672-7.678H213.963z M213.646,209.049l-0.098-1.117h0.677l0.098,1.117H213.646z M214.346,209.305l0.098,1.117h-0.677
								l-0.098-1.117H214.346z M213.526,207.676l-0.098-1.117h0.677l0.098,1.117H213.526z M213.406,206.303l-0.098-1.117h0.677
								l0.098,1.117H213.406z M213.886,211.794l-0.098-1.117h0.677l0.098,1.117H213.886z"/>
						</g>
						<polygon style="opacity:0.2;fill:#FFFFFF;" points="213.7,212.599 208.208,212.609 207.536,204.931 213.029,204.931 						"/>
						<path style="opacity:0.2;fill:#FFFFFF;" d="M212.901,208.871c0.11,1.255-0.819,2.273-2.074,2.273
							c-1.255,0-2.362-1.018-2.472-2.273c-0.11-1.255,0.819-2.273,2.074-2.273C211.684,206.598,212.791,207.616,212.901,208.871z"/>
						<g>
							<polygon style="fill:#FFFFFF;" points="209.912,207.682 211.915,208.997 210.142,210.311 							"/>
						</g>
					</g>
					<g>
						<polygon style="fill:#407BFF;" points="216.17,227.234 208.298,227.234 207.432,217.335 215.304,217.335 						"/>
						<g style="opacity:0.2;">
							<path d="M208.365,217.335v-0.001h-0.677l0,0.001h-0.256l0.672,7.678h0.256l-0.049-0.558h0.677l0.049,0.558h0.256
								l-0.672-7.678H208.365z M208.048,221.452l-0.098-1.117h0.678l0.098,1.117H208.048z M208.748,221.708l0.098,1.117h-0.677
								l-0.098-1.117H208.748z M207.928,220.079l-0.098-1.117h0.677l0.098,1.117H207.928z M207.808,218.707l-0.098-1.117h0.677
								l0.098,1.117H207.808z M208.288,224.198l-0.098-1.117h0.678l0.098,1.117H208.288z"/>
						</g>
						<g style="opacity:0.2;">
							<path d="M215.048,217.335l0-0.001h-0.677l0,0.001h-0.256l0.672,7.678h0.256l-0.049-0.558h0.678l0.049,0.558h0.256
								l-0.672-7.678H215.048z M214.731,221.452l-0.098-1.117h0.677l0.098,1.117H214.731z M215.431,221.708l0.098,1.117h-0.678
								l-0.098-1.117H215.431z M214.611,220.079l-0.098-1.117h0.677l0.098,1.117H214.611z M214.491,218.707l-0.098-1.117h0.677
								l0.098,1.117H214.491z M214.971,224.198l-0.098-1.117h0.677l0.098,1.117H214.971z"/>
						</g>
						<polygon style="opacity:0.2;fill:#FFFFFF;" points="214.785,225.003 209.293,225.012 208.621,217.335 214.115,217.335 						
							"/>
						<path style="opacity:0.2;fill:#FFFFFF;" d="M213.986,221.275c0.11,1.255-0.819,2.273-2.074,2.273s-2.362-1.018-2.472-2.273
							c-0.11-1.255,0.819-2.273,2.074-2.273C212.769,219.002,213.876,220.02,213.986,221.275z"/>
						<g>
							<polygon style="fill:#FFFFFF;" points="210.997,220.086 213,221.4 211.227,222.715 							"/>
						</g>
					</g>
					<g>
						<polygon style="fill:#407BFF;" points="225.412,214.831 217.54,214.831 216.674,204.932 224.546,204.932 						"/>
						<g style="opacity:0.2;">
							<path d="M217.607,204.932l0-0.001h-0.678l0,0.001h-0.256l0.672,7.678h0.256l-0.049-0.558h0.677l0.049,0.558h0.256
								l-0.672-7.678H217.607z M217.29,209.049l-0.098-1.117h0.678l0.098,1.117H217.29z M217.99,209.305l0.098,1.117h-0.677
								l-0.098-1.117H217.99z M217.17,207.676l-0.098-1.117h0.678l0.098,1.117H217.17z M217.05,206.304l-0.098-1.117h0.678
								l0.098,1.117H217.05z M217.53,211.795l-0.098-1.117h0.678l0.098,1.117H217.53z"/>
						</g>
						<g style="opacity:0.2;">
							<path d="M224.29,204.932l0-0.001h-0.677l0,0.001h-0.256l0.672,7.678h0.256l-0.049-0.558h0.677l0.049,0.558h0.256
								l-0.672-7.678H224.29z M223.973,209.049l-0.098-1.117h0.677l0.098,1.117H223.973z M224.673,209.305l0.098,1.117h-0.678
								l-0.098-1.117H224.673z M223.853,207.676l-0.098-1.117h0.677l0.098,1.117H223.853z M223.733,206.304l-0.098-1.117h0.677
								l0.098,1.117H223.733z M224.213,211.795l-0.098-1.117h0.677l0.098,1.117H224.213z"/>
						</g>
						<polygon style="opacity:0.2;fill:#FFFFFF;" points="224.027,212.6 218.535,212.609 217.863,204.932 223.357,204.932 						"/>
						<path style="opacity:0.2;fill:#FFFFFF;" d="M223.228,208.872c0.11,1.255-0.819,2.273-2.074,2.273s-2.362-1.018-2.472-2.273
							c-0.11-1.255,0.819-2.273,2.074-2.273C222.011,206.599,223.118,207.617,223.228,208.872z"/>
						<g>
							<polygon style="fill:#FFFFFF;" points="220.239,207.683 222.242,208.997 220.469,210.312 							"/>
						</g>
					</g>
					<g>
						<polygon style="fill:#407BFF;" points="217.256,239.637 209.383,239.637 208.517,229.738 216.389,229.738 						"/>
						<g style="opacity:0.2;">
							<path d="M209.45,229.738L209.45,229.738l-0.678-0.001l0,0.001h-0.256l0.672,7.678h0.256l-0.049-0.558h0.677l0.049,0.558
								h0.256l-0.672-7.678H209.45z M209.133,233.856l-0.098-1.117h0.677l0.098,1.117H209.133z M209.833,234.112l0.098,1.117h-0.677
								l-0.098-1.117H209.833z M209.013,232.483l-0.098-1.117h0.677l0.098,1.117H209.013z M208.893,231.111l-0.098-1.117h0.677
								l0.098,1.117H208.893z M209.373,236.602l-0.098-1.117h0.677l0.098,1.117H209.373z"/>
						</g>
						<g style="opacity:0.2;">
							<path d="M216.133,229.738L216.133,229.738l-0.678-0.001l0,0.001H215.2l0.672,7.678h0.256l-0.049-0.558h0.677l0.049,0.558
								h0.256l-0.672-7.678H216.133z M215.816,233.856l-0.098-1.117h0.677l0.098,1.117H215.816z M216.516,234.112l0.098,1.117
								h-0.677l-0.098-1.117H216.516z M215.696,232.483l-0.098-1.117h0.677l0.098,1.117H215.696z M215.576,231.111l-0.098-1.117
								h0.677l0.098,1.117H215.576z M216.056,236.602l-0.098-1.117h0.677l0.098,1.117H216.056z"/>
						</g>
						<polygon style="opacity:0.2;fill:#FFFFFF;" points="215.871,237.406 210.378,237.416 209.707,229.738 215.2,229.738 						"/>
						<path style="opacity:0.2;fill:#FFFFFF;" d="M215.071,233.679c0.11,1.255-0.819,2.273-2.074,2.273
							c-1.255,0-2.362-1.018-2.472-2.273c-0.11-1.255,0.819-2.273,2.074-2.273C213.854,231.406,214.961,232.423,215.071,233.679z"/>
						<g>
							<polygon style="fill:#FFFFFF;" points="212.083,232.49 214.085,233.804 212.313,235.118 							"/>
						</g>
					</g>
				</g>
				<g>
					<polygon style="opacity:0.1;fill:#FFFFFF;enable-background:new    ;" points="227.15,197.116 213.355,248.708 
						217.996,248.708 231.637,197.116 					"/>
					<polygon style="opacity:0.1;fill:#FFFFFF;enable-background:new    ;" points="234.311,197.116 220.517,248.708 
						229.721,248.708 243.363,197.116 					"/>
				</g>
				<g>
					<g>
						<g>
							<polygon style="fill:#263238;" points="275.726,235.594 230.859,235.594 228.54,209.089 273.407,209.089 							"/>
							<g>
								<path style="fill:#FFFFFF;" d="M257.423,219.416c0.27,3.083-2.011,5.582-5.094,5.582c-3.083,0-5.801-2.499-6.07-5.582
									c-0.27-3.083,2.011-5.582,5.094-5.582S257.153,216.333,257.423,219.416z"/>
								<polygon style="fill:#263238;" points="254.903,219.622 250.022,216.939 250.491,222.305 								"/>
							</g>
						</g>
						<g>
							<g>
								<polygon style="fill:#FFFFFF;" points="274.677,230.392 230.998,230.392 230.922,229.533 274.602,229.533 								"/>
								<polygon style="fill:#407BFF;" points="255.482,230.392 230.998,230.392 230.922,229.533 255.407,229.533 								"/>
							</g>
							<g>
								<g>
									<polygon style="fill:#FFFFFF;" points="231.748,233.578 231.326,233.578 231.181,231.923 231.603,231.923 									"/>
									<polygon style="fill:#FFFFFF;" points="232.484,233.578 232.063,233.578 231.918,231.923 232.34,231.923 									"/>
								</g>
								<g>
									<polygon style="fill:#FFFFFF;" points="236.269,233.578 234.614,233.578 234.469,231.923 236.125,231.923 									"/>
									<polygon style="fill:#FFFFFF;" points="238.466,232.75 239.828,231.923 239.972,233.578 									"/>
									<polygon style="fill:#FFFFFF;" points="238.539,233.578 238.117,233.578 237.972,231.923 238.394,231.923 									"/>
									<g>
										<polygon style="fill:#FFFFFF;" points="243.114,232.75 241.609,231.923 241.753,233.578 										"/>
										<polygon style="fill:#FFFFFF;" points="243.187,233.578 243.609,233.578 243.464,231.923 243.042,231.923 										"/>
									</g>
									<g>
										<polygon style="fill:#FFFFFF;" points="246.194,231.892 245.454,232.89 247.109,232.89 										"/>
										<polygon style="fill:#FFFFFF;" points="247.203,233.609 247.166,233.187 245.449,233.187 245.486,233.609 										"/>
									</g>
								</g>
							</g>
							<g>
								<g>
									<path style="fill:#FFFFFF;" d="M274.987,233.713h-3.196l-0.171-1.957h3.195L274.987,233.713z M272.038,233.442h2.653
										l-0.124-1.415h-2.652L272.038,233.442z"/>
								</g>
								<g>
									<polygon style="fill:#FFFFFF;" points="269.44,233.713 268.793,233.713 268.743,233.139 269.013,233.116 269.041,233.442 
										269.44,233.442 									"/>
								</g>
								<g>
									<polygon style="fill:#FFFFFF;" points="270.874,233.713 270.223,233.713 270.223,233.442 270.578,233.442 270.551,233.139 
										270.822,233.116 									"/>
								</g>
								<g>
									<polygon style="fill:#FFFFFF;" points="270.485,232.379 270.455,232.027 270.076,232.027 270.076,231.757 270.703,231.757 
										270.755,232.356 									"/>
								</g>
								<g>
									<polygon style="fill:#FFFFFF;" points="268.677,232.38 268.621,231.757 269.293,231.757 269.293,232.027 268.917,232.027 
										268.946,232.356 									"/>
								</g>
							</g>
						</g>
						<g>
							
								<polygon style="opacity:0.1;fill:#FFFFFF;stroke:#263238;stroke-linecap:round;stroke-linejoin:round;stroke-miterlimit:10;" points="
								236.918,209.089 241.993,209.089 235.981,235.594 230.848,235.594 							"/>
						</g>
						
							<polygon style="opacity:0.1;fill:#FFFFFF;stroke:#263238;stroke-linecap:round;stroke-linejoin:round;stroke-miterlimit:10;" points="
							262.145,235.594 268.215,209.089 273.29,209.089 267.277,235.594 						"/>
						
							<polyline style="opacity:0.1;fill:#FFFFFF;stroke:#263238;stroke-linecap:round;stroke-linejoin:round;stroke-miterlimit:10;" points="
							273.689,212.315 269.747,229.533 269.55,230.393 269.207,231.892 268.89,233.273 268.359,235.594 269.68,235.594 
							270.52,231.892 270.859,230.393 271.054,229.533 274.043,216.358 						"/>
					</g>
					<g>
						<polygon style="fill:#407BFF;" points="273.407,209.089 228.54,209.089 228.33,206.692 273.198,206.692 						"/>
						<g>
							<path style="fill:#FFFFFF;" d="M231.719,207.908c0.036,0.409-0.267,0.74-0.676,0.74c-0.409,0-0.769-0.331-0.805-0.74
								c-0.036-0.409,0.267-0.74,0.676-0.74C231.323,207.167,231.684,207.499,231.719,207.908z"/>
							<path style="fill:#FFFFFF;" d="M233.936,207.908c0.036,0.409-0.267,0.74-0.676,0.74c-0.409,0-0.769-0.331-0.805-0.74
								c-0.036-0.409,0.267-0.74,0.676-0.74C233.54,207.167,233.9,207.499,233.936,207.908z"/>
							<path style="fill:#FFFFFF;" d="M236.153,207.908c0.036,0.409-0.267,0.74-0.676,0.74c-0.409,0-0.769-0.331-0.805-0.74
								c-0.036-0.409,0.267-0.74,0.676-0.74C235.757,207.167,236.117,207.499,236.153,207.908z"/>
						</g>
					</g>
				</g>
			</g>
		</g>
		<g>
			<g>
				<polygon style="fill:#407BFF;" points="189.12,279.697 163.475,279.697 156.775,203.109 182.419,203.109 				"/>
				<polygon style="opacity:0.3;" points="189.12,279.697 163.475,279.697 156.775,203.109 182.419,203.109 				"/>
			</g>
			<polygon style="fill:#407BFF;" points="191.637,279.697 165.992,279.697 159.292,203.109 184.937,203.109 			"/>
			<g>
				<g>
					<path style="opacity:0.5;" d="M172.94,209.001c-5.39,0-9.377,4.369-8.905,9.759c0.472,5.39,5.223,9.759,10.613,9.759
						c5.39,0,9.377-4.369,8.905-9.759C183.081,213.371,178.33,209.001,172.94,209.001z"/>
					<path style="fill:#407BFF;" d="M171.145,219.423c0.134,1.534,1.486,2.777,3.02,2.777c1.534,0,2.668-1.243,2.534-2.777
						c-0.134-1.534-1.486-2.777-3.02-2.777C172.145,216.646,171.011,217.889,171.145,219.423z"/>
					<g>
						<path style="opacity:0.5;" d="M170.767,237.797c0.23,2.63,2.549,4.762,5.179,4.762c2.63,0,4.576-2.132,4.346-4.762
							c-0.23-2.63-2.549-4.763-5.179-4.763h0C172.483,233.035,170.537,235.167,170.767,237.797z"/>
						<path style="opacity:0.5;" d="M172.455,249.991c0.199,2.274,2.204,4.118,4.478,4.118s3.956-1.844,3.757-4.118
							c-0.199-2.274-2.204-4.117-4.478-4.117h0C173.939,245.874,172.257,247.717,172.455,249.991z"/>
						<path style="opacity:0.5;" d="M174.059,261.22c0.168,1.918,1.859,3.472,3.776,3.472c1.918,0,3.336-1.555,3.169-3.472
							c-0.168-1.918-1.858-3.472-3.776-3.472h0C175.31,257.747,173.892,259.302,174.059,261.22z"/>
						<path style="opacity:0.5;" d="M175.494,270.515c0.137,1.561,1.513,2.827,3.075,2.827c1.561,0,2.717-1.266,2.58-2.827
							c-0.137-1.561-1.513-2.827-3.075-2.827h0C176.513,267.688,175.358,268.954,175.494,270.515z"/>
					</g>
				</g>
			</g>
		</g>
		<g>
			<g>
				<polygon style="fill:#407BFF;" points="319.67,279.6 294.025,279.6 287.325,203.012 312.969,203.012 				"/>
				<polygon style="opacity:0.3;" points="319.67,279.6 294.025,279.6 287.325,203.012 312.969,203.012 				"/>
			</g>
			<polygon style="fill:#407BFF;" points="322.187,279.6 296.542,279.6 289.842,203.012 315.487,203.012 			"/>
			<g>
				<g>
					<path style="opacity:0.5;" d="M303.49,208.904c-5.39,0-9.377,4.369-8.905,9.759c0.471,5.39,5.223,9.759,10.613,9.759
						c5.39,0,9.377-4.369,8.906-9.759C313.631,213.274,308.88,208.904,303.49,208.904z"/>
					<path style="fill:#407BFF;" d="M301.695,219.326c0.134,1.534,1.486,2.777,3.02,2.777c1.534,0,2.668-1.243,2.534-2.777
						c-0.134-1.534-1.486-2.777-3.02-2.777C302.695,216.549,301.561,217.792,301.695,219.326z"/>
					<g>
						<path style="opacity:0.5;" d="M301.317,237.7c0.23,2.63,2.549,4.762,5.179,4.762c2.63,0,4.576-2.132,4.346-4.762
							c-0.23-2.63-2.549-4.763-5.179-4.763h0C303.033,232.937,301.087,235.07,301.317,237.7z"/>
						<path style="opacity:0.5;" d="M303.006,249.894c0.199,2.274,2.204,4.117,4.478,4.117s3.956-1.843,3.757-4.117
							c-0.199-2.274-2.204-4.118-4.478-4.118h0C304.489,245.777,302.807,247.62,303.006,249.894z"/>
						<path style="opacity:0.5;" d="M304.609,261.122c0.168,1.918,1.859,3.472,3.776,3.472c1.918,0,3.336-1.555,3.169-3.472
							c-0.168-1.918-1.858-3.472-3.776-3.472h0C305.86,257.65,304.442,259.205,304.609,261.122z"/>
						<path style="opacity:0.5;" d="M306.044,270.418c0.137,1.562,1.513,2.827,3.075,2.827c1.561,0,2.716-1.266,2.58-2.827
							c-0.137-1.561-1.513-2.827-3.075-2.827l0,0C307.063,267.591,305.908,268.857,306.044,270.418z"/>
					</g>
				</g>
			</g>
		</g>
	</g>
</g>
<g id="Video_Files">
	<g>
		<g>
			<g>
				<g>
					<path style="fill:#FFFFFF;" d="M115.28,180.289l-4.665-77.398c-0.007-0.101-0.011-0.203-0.01-0.304
						c0.018-2.049,1.694-3.696,3.743-3.678l206.195-0.472c2.226,0.037,4.058,1.763,4.228,3.983l4.665,77.398
						c0.008,0.105,0.011,0.209,0.01,0.314c-0.022,2.048-1.699,3.69-3.747,3.668l-206.195,0.472
						C117.278,184.238,115.445,182.51,115.28,180.289z"/>
				</g>
				<polygon style="fill:#FFFFFF;" points="191.837,99.302 135.237,99.302 135.196,98.873 191.786,98.73 				"/>
				<g>
					<path style="fill:#FFFFFF;" d="M329.449,180.13c-0.021,2.044-1.696,3.689-3.75,3.668l-206.197,0.47
						c-2.228-0.031-4.057-1.758-4.22-3.975l-4.67-77.405c0-0.102-0.01-0.204-0.01-0.307c0.021-2.044,1.696-3.689,3.75-3.679
						l15.845-0.031l-0.317-3.689c-0.296-3.362,2.187-6.08,5.549-6.08h44.43c3.362,0,6.325,2.718,6.611,6.08l0.317,3.546
						l133.762-0.296c2.217,0.041,4.057,1.768,4.22,3.985l4.67,77.395C329.449,179.926,329.449,180.028,329.449,180.13z"/>
					<path style="fill:#407BFF;" d="M179.858,89.104c3.362,0,6.325,2.718,6.611,6.08l0.317,3.546l133.762-0.296
						c2.217,0.041,4.057,1.768,4.22,3.985l4.67,77.395c0.01,0.112,0.01,0.215,0.01,0.317c-0.02,2.031-1.676,3.669-3.712,3.669
						c-0.013,0-0.025,0-0.038,0l-206.197,0.47c-2.228-0.031-4.057-1.758-4.22-3.975l-4.67-77.405c0-0.102-0.01-0.204-0.01-0.307
						c0.02-2.037,1.686-3.679,3.731-3.679c0.006,0,0.013,0,0.019,0l15.845-0.031l-0.317-3.689c-0.296-3.362,2.187-6.08,5.549-6.08
						H179.858 M179.858,86.038h-44.43c-2.493,0-4.767,0.983-6.402,2.768c-1.639,1.79-2.421,4.151-2.201,6.646l0.031,0.362
						l-12.512,0.023c-3.723,0-6.771,3.012-6.808,6.714c0,0.133,0.004,0.235,0.009,0.337v0.092l0.007,0.092l4.67,77.405
						c0.285,3.873,3.396,6.803,7.238,6.856l206.246-0.47c3.731,0,6.771-3.007,6.808-6.703c0-0.202-0.003-0.379-0.018-0.567
						l-4.668-77.359c-0.284-3.861-3.389-6.795-7.224-6.866l-0.032-0.001l-0.032,0l-130.951,0.289l-0.067-0.746
						C189.1,89.941,184.854,86.038,179.858,86.038L179.858,86.038z"/>
				</g>
			</g>
			<g>
				<g>
					<rect x="121.725" y="81.767" style="fill:#407BFF;" width="45.804" height="57.594"/>
					<g style="opacity:0.2;">
						<path d="M127.156,81.767v-0.006h-3.941v0.006h-1.49v44.67h1.49v-3.248h3.941v3.248h1.49v-44.67H127.156z M123.215,105.725
							v-6.5h3.941v6.5H123.215z M127.156,107.212v6.5h-3.941v-6.5H127.156z M123.215,97.735v-6.497h3.941v6.497H123.215z
							 M123.215,89.751v-6.5h3.941v6.5H123.215z M123.215,121.699v-6.499h3.941v6.499H123.215z"/>
					</g>
					<g style="opacity:0.2;">
						<path d="M166.038,81.767v-0.006h-3.941v0.006h-1.49v44.67h1.49v-3.248h3.941v3.248h1.49v-44.67H166.038z M162.097,105.725
							v-6.5h3.941v6.5H162.097z M166.038,107.212v6.5h-3.941v-6.5H166.038z M162.097,97.735v-6.497h3.941v6.497H162.097z
							 M162.097,89.751v-6.5h3.941v6.5H162.097z M162.097,121.699v-6.499h3.941v6.499H162.097z"/>
					</g>
					<polygon style="opacity:0.2;fill:#FFFFFF;" points="160.607,126.381 128.647,126.438 128.647,81.767 160.607,81.767 					"/>
					<path style="opacity:0.2;fill:#FFFFFF;" d="M157.851,104.692c0,7.304-5.921,13.225-13.224,13.225
						c-7.304,0-13.224-5.921-13.224-13.225c0-7.304,5.921-13.224,13.224-13.224C151.93,91.468,157.851,97.389,157.851,104.692z"/>
					<g>
						<polygon style="fill:#FFFFFF;" points="141.07,97.774 152.053,105.421 141.07,113.068 						"/>
					</g>
				</g>
				<polygon style="fill:#407BFF;" points="152.048,105.415 151.21,105.997 141.063,98.937 141.063,97.772 				"/>
				<g>
					<path style="fill:#FFFFFF;" d="M139.239,136.863l-0.011-4.571l-2.242,3.766h-0.794l-2.231-3.668v4.473h-1.655v-7.618h1.459
						l2.851,4.735l2.808-4.735h1.447l0.022,7.618H139.239z"/>
					<path style="fill:#FFFFFF;" d="M145.471,133.87l-1.023,1.066v1.926h-1.752v-7.618h1.752v3.559l3.374-3.559h1.959l-3.156,3.396
						l3.342,4.223h-2.058L145.471,133.87z"/>
					<path style="fill:#FFFFFF;" d="M157.636,129.244l-3.297,7.618h-1.741l-3.287-7.618h1.904l2.318,5.442l2.351-5.442H157.636z"/>
				</g>
			</g>
			<g>
				<g>
					<rect x="171.654" y="94.603" style="fill:#407BFF;" width="45.804" height="57.594"/>
					<g style="opacity:0.2;">
						<path d="M177.086,94.603v-0.006h-3.941v0.006h-1.49v44.67h1.49v-3.249h3.941v3.249h1.49v-44.67H177.086z M173.144,118.561
							v-6.5h3.941v6.5H173.144z M177.086,120.048v6.5h-3.941v-6.5H177.086z M173.144,110.571v-6.497h3.941v6.497H173.144z
							 M173.144,102.587v-6.5h3.941v6.5H173.144z M173.144,134.535v-6.5h3.941v6.5H173.144z"/>
					</g>
					<g style="opacity:0.2;">
						<path d="M215.968,94.603v-0.006h-3.941v0.006h-1.49v44.67h1.49v-3.249h3.941v3.249h1.49v-44.67H215.968z M212.026,118.561
							v-6.5h3.941v6.5H212.026z M215.968,120.048v6.5h-3.941v-6.5H215.968z M212.026,110.571v-6.497h3.941v6.497H212.026z
							 M212.026,102.587v-6.5h3.941v6.5H212.026z M212.026,134.535v-6.5h3.941v6.5H212.026z"/>
					</g>
					<polygon style="opacity:0.2;fill:#FFFFFF;" points="210.536,139.217 178.576,139.273 178.576,94.603 210.536,94.603 					"/>
					<path style="opacity:0.2;fill:#FFFFFF;" d="M207.781,117.528c0,7.304-5.921,13.224-13.224,13.224
						c-7.304,0-13.224-5.921-13.224-13.224s5.921-13.225,13.224-13.225C201.86,104.303,207.781,110.224,207.781,117.528z"/>
					<g>
						<g>
							<polygon style="fill:#FFFFFF;" points="191,110.61 201.983,118.257 191,125.904 							"/>
						</g>
						<polygon style="fill:#407BFF;" points="201.984,118.253 201.146,118.835 190.999,111.774 190.999,110.609 						"/>
					</g>
				</g>
				<g>
					<path style="fill:#FFFFFF;" d="M189.931,148.066h-3.538l-0.675,1.632h-1.806l3.396-7.618h1.741l3.406,7.618h-1.85
						L189.931,148.066z M189.376,146.727l-1.209-2.917l-1.207,2.917H189.376z"/>
					<path style="fill:#FFFFFF;" d="M200.158,142.08l-3.297,7.618h-1.741l-3.287-7.618h1.904l2.318,5.442l2.351-5.442H200.158z"/>
					<path style="fill:#FFFFFF;" d="M200.786,142.08h1.763v7.618h-1.763V142.08z"/>
				</g>
			</g>
			<g>
				<g>
					<rect x="221.368" y="72.919" style="fill:#407BFF;" width="45.804" height="57.594"/>
					<g style="opacity:0.2;">
						<path d="M226.8,72.919v-0.006h-3.941v0.006h-1.49v44.67h1.49v-3.248h3.941v3.248h1.49v-44.67H226.8z M222.859,96.877v-6.5
							h3.941v6.5H222.859z M226.8,98.364v6.5h-3.941v-6.5H226.8z M222.859,88.887V82.39h3.941v6.497H222.859z M222.859,80.903v-6.5
							h3.941v6.5H222.859z M222.859,112.851v-6.5h3.941v6.5H222.859z"/>
					</g>
					<g style="opacity:0.2;">
						<path d="M265.682,72.919v-0.006h-3.942v0.006h-1.49v44.67h1.49v-3.248h3.942v3.248h1.49v-44.67H265.682z M261.74,96.877v-6.5
							h3.942v6.5H261.74z M265.682,98.364v6.5h-3.942v-6.5H265.682z M261.74,88.887V82.39h3.942v6.497H261.74z M261.74,80.903v-6.5
							h3.942v6.5H261.74z M261.74,112.851v-6.5h3.942v6.5H261.74z"/>
					</g>
					<polygon style="opacity:0.2;fill:#FFFFFF;" points="260.25,117.533 228.29,117.59 228.29,72.919 260.25,72.919 					"/>
					<path style="opacity:0.2;fill:#FFFFFF;" d="M257.495,95.844c0,7.304-5.921,13.225-13.224,13.225
						c-7.304,0-13.224-5.921-13.224-13.225c0-7.304,5.921-13.224,13.224-13.224C251.574,82.62,257.495,88.54,257.495,95.844z"/>
					<g>
						<polygon style="fill:#FFFFFF;" points="240.714,88.926 251.697,96.573 240.714,104.22 						"/>
					</g>
					<polygon style="fill:#407BFF;" points="251.698,96.572 250.86,97.154 240.713,90.093 240.713,88.928 					"/>
				</g>
				<g>
					<path style="fill:#FFFFFF;" d="M238.884,128.015l-0.011-4.571l-2.242,3.766h-0.794l-2.231-3.668v4.473h-1.655v-7.618h1.459
						l2.851,4.735l2.808-4.735h1.447l0.022,7.618H238.884z"/>
					<path style="fill:#FFFFFF;" d="M248.946,123.162c0,1.697-1.273,2.753-3.308,2.753h-1.535v2.101h-1.763v-7.618h3.298
						C247.673,120.397,248.946,121.453,248.946,123.162z M247.162,123.162c0-0.838-0.545-1.328-1.622-1.328h-1.437v2.645h1.437
						C246.617,124.478,247.162,123.988,247.162,123.162z"/>
					<path style="fill:#FFFFFF;" d="M256.475,126.416h-1.24v1.6h-1.719v-1.6h-4.103v-1.187l3.592-4.832h1.85l-3.33,4.582h2.046
						v-1.425h1.665v1.425h1.24V126.416z"/>
				</g>
			</g>
			<g>
				<g>
					<rect x="270.964" y="82.814" style="fill:#407BFF;" width="45.804" height="57.594"/>
					<g style="opacity:0.2;">
						<path d="M276.395,82.814v-0.006h-3.941v0.006h-1.49v44.67h1.49v-3.248h3.941v3.248h1.49v-44.67H276.395z M272.454,106.772
							v-6.5h3.941v6.5H272.454z M276.395,108.259v6.5h-3.941v-6.5H276.395z M272.454,98.782v-6.497h3.941v6.497H272.454z
							 M272.454,90.798v-6.5h3.941v6.5H272.454z M272.454,122.745v-6.499h3.941v6.499H272.454z"/>
					</g>
					<g style="opacity:0.2;">
						<path d="M315.278,82.814v-0.006h-3.941v0.006h-1.49v44.67h1.49v-3.248h3.941v3.248h1.49v-44.67H315.278z M311.336,106.772
							v-6.5h3.941v6.5H311.336z M315.278,108.259v6.5h-3.941v-6.5H315.278z M311.336,98.782v-6.497h3.941v6.497H311.336z
							 M311.336,90.798v-6.5h3.941v6.5H311.336z M311.336,122.745v-6.499h3.941v6.499H311.336z"/>
					</g>
					<polygon style="opacity:0.2;fill:#FFFFFF;" points="309.846,127.428 277.886,127.484 277.886,82.814 309.846,82.814 					"/>
					<circle style="opacity:0.2;fill:#FFFFFF;" cx="293.866" cy="105.739" r="13.224"/>
					<g>
						<polygon style="fill:#FFFFFF;" points="290.31,98.821 301.292,106.468 290.31,114.115 						"/>
					</g>
					<polygon style="fill:#407BFF;" points="301.302,106.47 300.464,107.052 290.317,99.991 290.317,98.826 					"/>
				</g>
				<g>
					<path style="fill:#FFFFFF;" d="M288.477,137.911l-0.01-4.571l-2.242,3.766h-0.794l-2.231-3.668v4.473h-1.655v-7.618h1.459
						l2.851,4.734l2.808-4.734h1.447l0.022,7.618H288.477z"/>
					<path style="fill:#FFFFFF;" d="M291.456,134.102c0-2.264,1.763-3.94,4.168-3.94c2.395,0,4.169,1.665,4.169,3.94
						c0,2.274-1.774,3.94-4.169,3.94C293.219,138.041,291.456,136.365,291.456,134.102z M298.008,134.102
						c0-1.447-1.023-2.438-2.384-2.438c-1.36,0-2.383,0.99-2.383,2.438c0,1.448,1.023,2.438,2.383,2.438
						C296.985,136.54,298.008,135.549,298.008,134.102z"/>
					<path style="fill:#FFFFFF;" d="M308.192,130.292l-3.297,7.618h-1.741l-3.287-7.618h1.904l2.318,5.442l2.351-5.442H308.192z"/>
				</g>
			</g>
		</g>
		<g>
			<path style="fill:#407BFF;" d="M233.421,178.266h-14.878c-2.894,0-5.445-2.346-5.699-5.24l-0.116-1.325
				c-0.253-2.894,1.888-5.24,4.782-5.24h14.878L233.421,178.266z"/>
			<g>
				<polygon style="fill:#407BFF;" points="242.45,177.329 233.899,173.095 233.689,170.694 241.499,166.461 				"/>
				<polygon style="fill:#407BFF;" points="243.583,177.329 242.45,177.329 241.499,166.461 242.632,166.461 				"/>
			</g>
			<g>
				<path style="fill:#407BFF;" d="M222.351,161.385c0.199,2.274-1.483,4.118-3.757,4.118c-2.274,0-4.279-1.844-4.478-4.118
					c-0.199-2.274,1.483-4.118,3.757-4.118C220.147,157.268,222.152,159.111,222.351,161.385z"/>
				<path style="fill:#407BFF;" d="M230.586,161.385c0.199,2.274-1.483,4.118-3.757,4.118c-2.274,0-4.279-1.844-4.478-4.118
					c-0.199-2.274,1.483-4.118,3.758-4.118C228.382,157.268,230.387,159.111,230.586,161.385z"/>
			</g>
		</g>
	</g>
</g>
<g id="Character">
	<g>
		<g>
			<g>
				<g>
					<g>
						<g id="Character_1_">
							<g>
								<path style="fill:#A02724;" d="M301.737,203.574c-0.533,1.92-1.321,3.759-2.343,5.47c1.143,0.846,2.888,0.163,2.888,0.163
									L301.737,203.574z"/>
								<path style="fill:#FF8B7B;" d="M323.854,209.371l-4.759,4.967l-6.497,6.773c0.534,0.785,0.919,1.662,1.135,2.587
									c0.579,2.028,1.075,3.517-3.325,5.492c-0.96,0.391-1.604,1.307-1.646,2.343c0.008,1.251,0.982,2.61,5.339,2.686
									c4.206-0.019,8.295-1.381,11.673-3.887c1.66-1.176,1.494-2.255,0.458-3.965
									C323.167,221.527,323.245,214.739,323.854,209.371z"/>
								<path style="fill:#263238;" d="M300.195,203.243c-0.053,0.669,0.186,1.233,0.533,1.26c0.347,0.027,0.671-0.493,0.723-1.162
									c0.052-0.669-0.186-1.233-0.533-1.26C300.571,202.055,300.248,202.575,300.195,203.243z"/>
								<path style="fill:none;stroke:#263238;stroke-linecap:round;stroke-linejoin:round;stroke-miterlimit:10;" d="
									M300.79,199.504c1.482-0.216,3.057,0.395,4.006,1.552"/>
								<path style="fill:#FF8B7B;" d="M301.687,212.301c1.041,3.828,3.806,6.688,7.1,8.036c1.175,0.48,2.41,0.769,3.668,0.837
									c2.902,0.153,5.862-0.86,8.213-3.348c4.131-4.383,3.858-9.332,4.131-17.755c0.068-1.707-0.239-3.41-0.892-4.984
									c-2.496-5.974-9.351-8.793-15.331-6.308C300.434,192.235,299.655,204.756,301.687,212.301z"/>
								<path style="opacity:0.2;" d="M308.787,220.336c1.175,0.48,2.41,0.769,3.668,0.837l0.143-0.06l-0.8-1.564
									C311.799,219.55,311.307,220.883,308.787,220.336z"/>
								<g>
									<path style="fill:#263238;" d="M328.158,205.524c-0.898,3.044-2.126,6.145-4.425,8.329
										c-0.85,0.812-8.194,1.556-8.194,1.556c-0.348-2.483-4.904-10.453-6.894-13.052c-0.271,1.246-0.738,6.599-1.153,7.778
										c-0.831-0.019-2.138-1.284-2.138-1.284c1.339-3.466,1.656-7.242,0.958-10.891l-0.289-1.507
										c-0.029,0.319-4.851,2.598-7.209-1.807c-8.812-16.493,13.788-13.566,20.058-7.131c2.019-1.034,4.58-0.56,6.387,0.792
										c1.816,1.362,2.928,3.478,3.507,5.662C329.762,197.746,329.259,201.775,328.158,205.524z"/>
								</g>
							</g>
						</g>
					</g>
					<path style="fill:#263238;" d="M321.503,183.85c-1.163-0.104-2.287,0.732-2.709,1.82c-0.253,0.652-0.499,2.217,0.228,2.554
						C319.831,186.715,320.372,185.198,321.503,183.85z"/>
				</g>
			</g>
			<path style="fill:#FF8B7B;" d="M314.277,204.56c-0.385,1.858-1.442,3.509-2.968,4.637c-1.971,1.427-3.958-0.596-3.941-2.993
				c0.019-2.148,1.43-5.118,3.668-5.591C313.274,200.139,314.743,202.26,314.277,204.56z"/>
		</g>
		<g>
			<g>
				<polygon style="fill:#FF8B7B;" points="274.64,399.392 266.473,396.96 268.951,377.661 278.997,381.237 				"/>
				<polygon style="opacity:0.2;enable-background:new    ;" points="280.127,375.856 269.525,371.914 267.928,385.793 
					277.34,388.43 				"/>
			</g>
			<g>
				<path style="fill:#263238;" d="M265.778,395.577l9.308,2.527c0.329,0.072,0.543,0.441,0.483,0.832l-1.409,8.869
					c-0.21,0.952-1.022,1.55-1.829,1.349c-3.223-0.944-4.733-1.582-8.823-2.693c-2.521-0.682-8.275-2.321-11.8-2.967
					c-3.526-0.646-2.809-4.773-1.259-4.878c6.969-0.431,10.97-1.269,13.77-2.816C264.707,395.524,265.256,395.446,265.778,395.577z"
					/>
				<g>
					<path style="fill:#407BFF;" d="M261.43,396.898c0.736,0.152,1.486,0.227,2.237,0.224c0.077,0.004,0.148-0.04,0.177-0.112
						c0.043-0.063,0.048-0.145,0.015-0.213c-0.219-0.252-2.197-2.407-3.3-2.258c-0.259,0.026-0.482,0.192-0.582,0.432
						c-0.205,0.346-0.209,0.775-0.011,1.126C260.339,396.534,260.86,396.819,261.43,396.898z M263.256,396.721
						c-1.558-0.109-2.644-0.365-2.937-0.847c-0.115-0.23-0.096-0.505,0.05-0.717c0.045-0.12,0.149-0.207,0.275-0.229
						C261.225,394.845,262.437,395.875,263.256,396.721z"/>
					<path style="fill:#407BFF;" d="M263.679,397.123c0,0,0.056,0.004,0.09,0.006c0.067-0.021,0.12-0.071,0.145-0.137
						c0.007-0.101,0.79-2.445,0.14-3.448c-0.159-0.271-0.442-0.447-0.756-0.47c-0.342-0.074-0.691,0.098-0.84,0.414
						c-0.41,0.861,0.417,2.89,1.124,3.582C263.605,397.1,263.641,397.119,263.679,397.123z M263.347,393.483
						c0.157,0.037,0.292,0.136,0.375,0.274c0.267,0.907,0.235,1.877-0.092,2.765c-0.626-0.816-0.917-1.839-0.814-2.862
						c0.008-0.112,0.14-0.227,0.431-0.195L263.347,393.483z"/>
				</g>
			</g>
			<g>
				<g>
					<g>
						<g>
							<path style="fill:#407BFF;" d="M316.03,294.789c0,0-45.705-0.146-47.19,25.091c-1.448,17.741-2.367,25.014-1.486,63.659
								l12.17,0.672c0,0,12.38-41.827,10.711-58.444c13.636,0,44.855,1.197,49.39-11.108c2.252-6.248,3.348-12.853,3.233-19.494
								L316.03,294.789z"/>
						</g>
						<g style="opacity:0.3;">
							<path d="M316.03,294.789c0,0-45.705-0.146-47.19,25.091c-1.448,17.741-2.367,25.014-1.486,63.659l12.17,0.672
								c0,0,12.38-41.827,10.711-58.444c13.636,0,44.855,1.197,49.39-11.108c2.252-6.248,3.348-12.853,3.233-19.494L316.03,294.789z
								"/>
						</g>
					</g>
					<polygon style="fill:#407BFF;" points="281.459,386.566 265.556,383.845 265.816,376.81 282.28,380.467 					"/>
				</g>
				<g>
					<polygon style="fill:#FF8B7B;" points="243.092,401.921 235.392,398.271 240.785,379.577 250.168,384.644 					"/>
					<polygon style="opacity:0.2;enable-background:new    ;" points="252.105,379.498 242.228,373.984 238.533,387.458 
						247.432,391.499 					"/>
				</g>
				<g>
					<path style="fill:#263238;" d="M234.915,396.798l8.814,3.917c0.314,0.121,0.469,0.518,0.35,0.896l-2.745,8.55
						c-0.353,0.908-1.246,1.376-2.013,1.054c-3.042-1.424-4.436-2.285-8.309-4.007c-2.387-1.058-7.824-3.556-11.21-4.732
						c-3.386-1.176-2.048-5.146-0.5-5.012c6.953,0.637,11.035,0.42,14.039-0.682C233.865,396.583,234.419,396.589,234.915,396.798z"
						/>
					<g>
						<path style="fill:#407BFF;" d="M230.417,397.441c0.704,0.263,1.434,0.451,2.177,0.563c0.075,0.016,0.152-0.017,0.192-0.083
							c0.052-0.056,0.07-0.135,0.047-0.208c-0.178-0.282-1.805-2.714-2.917-2.735c-0.26-0.014-0.506,0.116-0.641,0.338
							c-0.255,0.311-0.325,0.735-0.183,1.111C229.394,396.915,229.866,397.276,230.417,397.441z M232.249,397.545
							c-1.523-0.345-2.557-0.764-2.774-1.286c-0.078-0.245-0.018-0.514,0.159-0.702c0.062-0.111,0.179-0.181,0.307-0.184
							C230.527,395.38,231.568,396.584,232.249,397.545z"/>
						<path style="fill:#407BFF;" d="M232.605,398.006c0,0,0.055,0.012,0.088,0.02c0.069-0.01,0.13-0.052,0.164-0.113
							c0.023-0.099,1.154-2.296,0.664-3.387c-0.116-0.292-0.368-0.509-0.675-0.579c-0.327-0.125-0.697-0.009-0.893,0.281
							c-0.536,0.789-0.028,2.92,0.564,3.711C232.536,397.973,232.568,397.996,232.605,398.006z M232.833,394.359
							c0.149,0.06,0.268,0.179,0.329,0.328c0.125,0.938-0.054,1.891-0.513,2.718c-0.494-0.901-0.626-1.957-0.368-2.952
							c0.025-0.11,0.173-0.203,0.455-0.127L232.833,394.359z"/>
					</g>
				</g>
				<g>
					<g>
						<g>
							<path style="fill:#407BFF;" d="M301.631,294.789c-0.318,0-50.911-4.924-54.302,23.836
								c-5.369,35.222-8.753,64.914-8.753,64.914l10.656,5.279c0,0,18.556-37.584,18.276-61.16
								c14.832-4.256,53.202,2.895,57.738-9.399c3.716-10.056,1.708-23.47,1.708-23.47H301.631z"/>
							<path style="opacity:0.3;" d="M301.631,294.789c-0.318,0-50.911-4.924-54.302,23.836
								c-5.369,35.222-8.753,64.914-8.753,64.914l10.656,5.279c0,0,18.556-37.584,18.276-61.16
								c14.832-4.256,53.202,2.895,57.738-9.399c3.716-10.056,1.708-23.47,1.708-23.47H301.631z"/>
						</g>
						<polygon style="fill:#407BFF;" points="250.935,390.349 236.653,383.922 237.801,378.074 252.865,383.275 						"/>
					</g>
				</g>
				<g>
					<path style="fill:#FF8B7B;" d="M326.09,232.301c1.146,3.162,2.051,6.187,2.947,9.327c0.896,3.14,1.657,6.269,2.334,9.467
						c0.677,3.199,1.223,6.463,1.595,9.828c0.421,3.5,0.474,7.034,0.156,10.544c-0.193,2.061-0.681,4.083-1.449,6.004
						c-0.48,1.177-1.122,2.281-1.907,3.281c-0.455,0.566-0.965,1.086-1.522,1.551l-0.449,0.367
						c-0.248,0.172-0.516,0.361-0.771,0.504c-0.43,0.242-0.882,0.443-1.351,0.598c-0.693,0.236-1.408,0.397-2.135,0.48
						c-0.572,0.07-1.147,0.103-1.724,0.1c-0.982-0.025-1.961-0.111-2.932-0.258c-1.727-0.236-3.438-0.58-5.121-1.033
						c-6.279-1.722-12.372-4.063-18.188-6.988l1.861-5.174c6.04,1.268,12.201,2.596,18.051,3.382
						c1.461,0.129,2.878,0.321,4.211,0.371c0.594,0.021,1.188-0.001,1.779-0.066c0.488-0.044,0.917-0.181,0.772-0.184
						c-0.098,0.024-0.193,0.061-0.281,0.111c-0.102,0.049-0.198,0.109-0.287,0.178l0,0c0,0,0.055-0.073,0.101-0.156
						c0.149-0.264,0.271-0.542,0.364-0.83c0.308-1.037,0.49-2.107,0.542-3.188c0.101-2.766-0.067-5.535-0.502-8.269
						c-0.4-2.942-0.998-5.823-1.67-8.759c-0.671-2.936-1.42-5.88-2.265-8.822s-1.747-5.899-2.645-8.681L326.09,232.301z"/>
					<path style="fill:#FF8B7B;" d="M299.96,272.576l-6.058-4.147l-3.809,6.62c0,0,7.177,3.761,8.915,1.957L299.96,272.576z"/>
					<polygon style="fill:#FF8B7B;" points="288.625,269.282 285.305,273.64 290.097,275.001 293.906,268.381 					"/>
				</g>
				<g>
					<g>
						<path style="fill:#FF8B7B;" d="M262.645,266.754l-8.877-1.013l-2.549,9.763c0,0,10.147,0.083,11.746-2.823L262.645,266.754z"
							/>
						<path style="fill:#FF8B7B;" d="M247.113,269.361l-1.523,3.741c-0.456,1.121,0.361,2.35,1.571,2.362l4.058,0.041l2.549-9.763
							l-5.794,2.713C247.584,268.637,247.276,268.961,247.113,269.361z"/>
					</g>
				</g>
				<path style="fill:#407BFF;" d="M339.837,230.287c-0.724-1.93-4.101-3.86-6.176-3.86h-1.37c-2.393,0-5.375,0.193-8.27,0.531
					c-5.516,0.61-10.993,1.532-16.406,2.76c-2.49,0.656-4.893,1.486-6.803,2.2c-0.024,0.01-0.049,0.019-0.073,0.029
					c-2.223,0.884-3.551,3.168-3.223,5.537c0.858,6.21,2.496,18.84,3.479,31.41c0.767,9.807,0.45,19.546,0.695,26.243h41.168
					c1.419-8.049,1.195-15.068,1.311-29.601C344.236,256.812,342.819,238.229,339.837,230.287z"/>
				<path style="opacity:0.8;fill:#FFFFFF;" d="M339.837,230.287c-0.724-1.93-4.101-3.86-6.176-3.86h-1.37
					c-2.393,0-5.375,0.193-8.27,0.531c-5.516,0.61-10.993,1.532-16.406,2.76c-2.49,0.656-4.893,1.486-6.803,2.2
					c-0.024,0.01-0.049,0.019-0.073,0.029c-2.223,0.884-3.551,3.168-3.223,5.537c0.858,6.21,2.496,18.84,3.479,31.41
					c0.767,9.807,0.45,19.546,0.695,26.243h41.168c1.419-8.049,1.195-15.068,1.311-29.601
					C344.236,256.812,342.819,238.229,339.837,230.287z"/>
				<g>
					<g>
						<path style="fill:#407BFF;" d="M304.251,232.433c3.367,1.268,5.06,5.036,3.762,8.391c-2.943,7.607-7.88,19.672-10.059,23.92
							c-0.83,1.511-1.661,3.012-2.607,4.523c-0.473,0.761-1.004,1.517-1.572,2.296c-0.312,0.397-0.56,0.759-0.929,1.171l-0.525,0.61
							l-0.298,0.338c-0.842,0.867-1.866,1.537-2.998,1.962c-0.596,0.23-1.207,0.419-1.828,0.565
							c-1.015,0.219-2.046,0.356-3.083,0.41c-1.79,0.107-3.585,0.094-5.372-0.038c-6.621-0.551-13.169-1.773-19.543-3.647
							l-0.675-6.755c6.286,0.177,12.712,0.39,18.712,0.09c1.414-0.075,2.824-0.225,4.223-0.447c0.563-0.097,1.117-0.239,1.657-0.424
							c0.177-0.059,0.345-0.139,0.501-0.24c0.058-0.005-0.006-0.067-0.25,0.12c-0.09,0.061-0.171,0.134-0.242,0.216
							c0,0,0.059-0.093,0.086-0.124l0.242-0.323c0.157-0.189,0.342-0.497,0.522-0.746c0.348-0.536,0.702-1.111,1.052-1.735
							c0.692-1.217,1.354-2.557,2.004-3.916c1.3-2.717,2.48-5.587,3.628-8.484c0.814-2.053,3.205-8.293,5.218-13.87
							C297.102,232.897,300.869,231.159,304.251,232.433L304.251,232.433z"/>
					</g>
					<path style="opacity:0.2;enable-background:new    ;" d="M300.105,259.044c0.309,3.696,0.194,2.498,0.532,6.377
						c10.056-15.527,6.731-25.784,6.731-25.784L300.105,259.044z"/>
					<path style="opacity:0.8;fill:#FFFFFF;" d="M304.251,232.433c3.367,1.268,5.06,5.036,3.762,8.391
						c-2.943,7.607-7.88,19.672-10.059,23.92c-0.83,1.511-1.661,3.012-2.607,4.523c-0.473,0.761-1.004,1.517-1.572,2.296
						c-0.312,0.397-0.56,0.759-0.929,1.171l-0.525,0.61l-0.298,0.338c-0.842,0.867-1.866,1.537-2.998,1.962
						c-0.596,0.23-1.207,0.419-1.828,0.565c-1.015,0.219-2.046,0.356-3.083,0.41c-1.79,0.107-3.585,0.094-5.372-0.038
						c-6.621-0.551-13.169-1.773-19.543-3.647l-0.675-6.755c6.286,0.177,12.712,0.39,18.712,0.09
						c1.414-0.075,2.824-0.225,4.223-0.447c0.563-0.097,1.117-0.239,1.657-0.424c0.177-0.059,0.345-0.139,0.501-0.24
						c0.058-0.005-0.006-0.067-0.25,0.12c-0.09,0.061-0.171,0.134-0.242,0.216c0,0,0.059-0.093,0.086-0.124l0.242-0.323
						c0.157-0.189,0.342-0.497,0.522-0.746c0.348-0.536,0.702-1.111,1.052-1.735c0.692-1.217,1.354-2.557,2.004-3.916
						c1.3-2.717,2.48-5.587,3.628-8.484c0.814-2.053,3.205-8.293,5.218-13.87C297.102,232.897,300.869,231.159,304.251,232.433
						L304.251,232.433z"/>
				</g>
			</g>
		</g>
		<g>
			<g>
				<path style="fill:#263238;" d="M290.737,410.14c0,2.318-1.879,4.198-4.198,4.198c-2.319,0-4.198-1.88-4.198-4.198
					c0-2.319,1.879-4.198,4.198-4.198C288.857,405.942,290.737,407.822,290.737,410.14L290.737,410.14z"/>
				<path style="fill:#263238;" d="M352.391,410.14c0,2.318,1.88,4.198,4.198,4.198c2.318,0,4.198-1.88,4.198-4.198
					c0-2.319-1.879-4.198-4.198-4.198C354.271,405.942,352.391,407.822,352.391,410.14L352.391,410.14z"/>
				<path style="fill:#263238;" d="M316.029,408.798c0,2.318,1.879,4.198,4.198,4.198c2.318,0,4.198-1.879,4.198-4.198
					c0-2.318-1.88-4.198-4.198-4.198C317.908,404.6,316.029,406.479,316.029,408.798L316.029,408.798z"/>
			</g>
			<g>
				<path style="fill:#263238;" d="M365.735,404.504c-0.193,0.976-1.072,1.671-2.068,1.642l-43.779-0.599l-40.996,0.928
					c-0.995,0.029-1.874-0.667-2.058-1.643c-0.222-1.111,0.502-2.174,1.604-2.396l22.387-4.348c2.328-0.435,4.676-0.657,7.044-0.657
					h24.058c2.357,0,4.715,0.222,7.034,0.657l25.16,4.029C365.223,402.33,365.948,403.392,365.735,404.504z"/>
			</g>
			<g>
				<rect x="312.439" y="360.904" style="fill:#263238;" width="14.89" height="42.863"/>
				<rect x="314.582" y="333.746" style="fill:#263238;" width="10.615" height="27.368"/>
				<polygon style="opacity:0.2;enable-background:new    ;" points="314.582,338.822 325.197,341.495 325.197,333.746 
					314.582,333.746 				"/>
			</g>
			<g>
				<g>
					<g>
						<rect x="275.347" y="294.643" style="fill:#263238;" width="5.394" height="23.016"/>
						<rect x="275.347" y="294.643" style="fill:#263238;" width="5.394" height="23.016"/>
					</g>
					<path style="fill:#263238;" d="M316.505,243.037c-0.094,0.628-0.141,1.256-0.141,1.893v88.812h-8.575V244.93
						c0-0.066,0-0.141,0.009-0.206L316.505,243.037z"/>
					<path style="fill:#263238;" d="M366.408,333.639v0.103h-1.443C365.461,333.742,365.93,333.705,366.408,333.639z"/>
					<path style="fill:#263238;" d="M374.982,242.475l-0.637-10.552c-0.178-2.98-1.415-5.801-3.477-7.956l-6.729-7.029
						l-3.458-17.581c-0.534-2.736-2.933-4.714-5.726-4.714h-15.491c-2.493,0-4.714,1.584-5.52,3.945L327.46,217.5l-12.38,7.619
						c-3.167,1.949-5.313,5.201-5.857,8.875l-1.602,10.768l0.178-0.038l8.706-1.687c-0.094,0.628-0.141,1.256-0.141,1.893v88.812
						h48.6c0.497,0,0.965-0.038,1.443-0.103h0.009c4.845-0.703,8.565-4.882,8.565-9.915v-79.572c0-0.572-0.038-1.143-0.112-1.715
						L374.982,242.475z M333.889,235.765l-15.013,1.434l-0.656,0.065l1.612-6.869l10.046-4.845l3.346-1.612l0.656,1.612l0.112,0.272
						l0.609,1.481L333.889,235.765z M363.596,235.943h-0.009l-1.884-0.478c-0.075-0.581-0.15-1.181-0.225-1.771
						c-0.422-3.289-0.797-6.391-0.797-6.391l0.15-1.087l0.309-2.277l7.15,6.457l0.103,1.537l0.366,5.332L363.596,235.943z"/>
					<path style="fill:#263238;" d="M316.364,314.391v19.352h-56.509c-3.833,0.009-6.944-3.102-6.954-6.935
						c0-1.256,0.337-2.474,0.975-3.552c3.252-5.492,9.146-8.865,15.528-8.865H316.364z"/>
				</g>
				<g>
					<path style="fill:#263238;" d="M296.366,301.668c-11.873-4.145-24.799-4.145-36.671,0c-2.465,0.929-5.235-0.127-6.456-2.461
						l0,0c-1.1-2.326,0.376-5.337,3.368-6.388c13.865-4.845,28.963-4.845,42.828,0c2.991,1.042,4.468,4.063,3.368,6.388l0,0
						C301.58,301.528,298.825,302.582,296.366,301.668z"/>
					<path style="opacity:0.4;fill:#263238;" d="M296.366,301.668c-11.873-4.145-24.799-4.145-36.671,0
						c-2.465,0.929-5.235-0.127-6.456-2.461l0,0c-1.1-2.326,0.376-5.337,3.368-6.388c13.865-4.845,28.963-4.845,42.828,0
						c2.991,1.042,4.468,4.063,3.368,6.388l0,0C301.58,301.528,298.825,302.582,296.366,301.668z"/>
				</g>
			</g>
		</g>
	</g>
</g>
</svg>
