<?xml version="1.0" encoding="utf-8"?>
<!-- Generator: Adobe Illustrator 27.5.0, SVG Export Plug-In . SVG Version: 6.00 Build 0)  -->
<svg version="1.1" xmlns="http://www.w3.org/2000/svg" xmlns:xlink="http://www.w3.org/1999/xlink" x="0px" y="0px"
	 viewBox="0 0 500 500" style="enable-background:new 0 0 500 500;" xml:space="preserve">
<g id="BACKGROUND">
	<g>
		<rect style="fill:#FFFFFF;" width="500" height="500"/>
		<path style="fill:#E1FAFF;" d="M439.991,407.709H60.009C53.376,407.709,48,402.332,48,395.7V166.182
			c0-6.632,5.377-12.009,12.009-12.009h379.982c6.632,0,12.009,5.377,12.009,12.009V395.7
			C452,402.332,446.623,407.709,439.991,407.709z"/>
		
			<ellipse transform="matrix(0.7071 -0.7071 0.7071 0.7071 5.0368 320.1136)" style="fill:#73C8F0;" cx="388.93" cy="153.977" rx="52.02" ry="52.02"/>
		<rect x="177.706" y="140.553" style="fill:#73C8F0;" width="64.72" height="130.888"/>
	</g>
</g>
<g id="OBJECTS">
	<g>
		<g>
			<path style="fill:#0091C8;" d="M155.704,277.751c-0.597,5.756-4.434,8.193-9.436,8.193c-5.002,0-7.14-4.966-7.14-10.753
				c0-5.787,1.853-9.158,7.654-9.152C154.198,266.047,156.317,271.839,155.704,277.751z"/>
		</g>
		<g>
			<path style="fill:#AFE6FF;" d="M439.491,411.555H77.421c-2.372,0-4.295-1.923-4.295-4.295l0,0h370.661l0,0
				C443.786,409.632,441.863,411.555,439.491,411.555z"/>
		</g>
		<g>
			<path style="fill:#C8E6EB;" d="M134.496,404.306c1.633,1.104,3.538,1.942,6.757,1.49c0.415-1.315,0.371-2.962,0-4.847h-6.314
				C136.031,402.172,135.615,403.576,134.496,404.306z"/>
		</g>
		<g>
			<path style="fill:#73C8F0;" d="M143.021,405.482c-0.21-0.447-0.696-0.7-1.188-0.664c-1.391,0.103-4.374,0.59-6.236-0.804
				c-0.776-0.581-1.787-0.746-2.742-0.581c-2.851,0.491-8.012,1.521-8.713,5.845c0,0,6.157,0.802,10.455,0.129
				c3.526-0.552,8.698-1.819,8.698-1.819C143.298,406.913,143.387,406.263,143.021,405.482z"/>
		</g>
		<g>
			<path style="fill:#C8E6EB;" d="M164.407,404.208l-7.542,1.588c-0.715-1.421-0.573-3.075,0-4.847h6.314
				C162.76,402.343,162.608,403.372,164.407,404.208z"/>
		</g>
		<g>
			<path style="fill:#5046AF;" d="M109.83,407.488c-17.526-45.661-22.466-76.43-14.681-91.45c3.827-7.385,9.877-9.659,14.094-10.728
				c5.208-1.318,17.379-1.014,17.894-1l-0.033,1.274c-0.125-0.002-12.511-0.314-17.548,0.963
				c-3.979,1.008-9.684,3.148-13.275,10.077c-7.609,14.684-2.65,45.101,14.74,90.407L109.83,407.488z"/>
		</g>
		<g>
			<path style="fill:#73C8F0;" d="M130.21,309.818l-0.649,8.502c0,0-4.475-6.824-5.146-8.502c-0.671-1.678-1.902-6.041-2.014-6.377
				c-0.112-0.336-2.882-1.8-5.657-0.833c-0.747,0.26-0.159,2.724-0.047,2.738c0.112,0.014-1.21-0.081-2.627,0.137
				c-0.487,0.075-0.516,0.861,1.534,1.384c0.913,0.233,2.116,1.078,2.694,1.822c0.979,1.261,2.429,2.931,2.76,3.703
				c0.288,0.673,2.144,10.009,7.269,15.113c1.474,1.468,3.974,0.976,4.887-0.894c1.206-2.472,2.542-6.741,2.835-13.771
				L130.21,309.818z"/>
		</g>
		<path style="fill:#5046AF;" d="M163.908,366.031c-0.626-11.094-0.849-11.498-5.466-30.804c-0.374-1.562-1.771-2.665-3.377-2.665
			h-16.503c-1.709,0-3.164,1.248-3.43,2.936c-3.055,19.386-3.232,19.864-3.232,30.934c0,10.328,2.251,34.579,2.251,34.579
			c0.788,1.323,6.124,2.006,7.572,1.369c0,0,1.193-21.559,1.08-30.095c-0.045-3.404,2.753-21.773,3.499-26.608l1.572,0.574
			c1.464,5.649,5.7,22.18,5.97,25.414c0.396,4.744,1.945,30.305,1.945,30.305c2.287,1.144,6.729,1.507,8.237-0.31
			C164.027,401.659,164.49,376.343,163.908,366.031z"/>
		<g>
			<path style="fill:#5046AF;" d="M214.86,341.204c-3.499,0-7.041-0.657-10.178-2.46c-6.027-3.463-9.352-10.509-9.88-20.942
				c-0.276-5.454-2.061-9.379-5.303-11.668c-5.927-4.183-14.876-1.568-14.966-1.542l-0.367-1.221
				c0.391-0.117,9.624-2.819,16.063,1.718c3.583,2.525,5.55,6.78,5.847,12.648c0.505,9.973,3.615,16.669,9.242,19.901
				c10.759,6.184,27.334-2.255,27.5-2.342l0.586,1.133C232.894,336.692,224.025,341.204,214.86,341.204z"/>
		</g>
		<g>
			<path style="fill:#73C8F0;" d="M169.062,308.621l0.649,8.502c0,0,4.475-6.824,5.146-8.502c0.671-1.678,1.902-6.041,2.014-6.377
				c0.112-0.336,2.882-1.8,5.657-0.833c0.747,0.26,0.159,2.724,0.047,2.738c-0.112,0.014,1.21-0.081,2.627,0.136
				c0.486,0.075,0.516,0.861-1.534,1.384c-0.913,0.233-2.116,1.078-2.694,1.822c-0.98,1.261-2.429,2.931-2.76,3.703
				c-0.289,0.673-2.15,10.036-7.291,15.134c-1.457,1.445-3.914,0.986-4.85-0.84c-1.26-2.456-2.776-6.76-3.582-14L169.062,308.621z"
				/>
		</g>
		<g>
			<path style="fill:#827DDC;" d="M374.405,407.259h-153.46c-6.008,0-10.879-4.871-10.879-10.879V124.923
				c0-6.008,4.871-10.879,10.879-10.879h153.46c6.008,0,10.879,4.871,10.879,10.879V396.38
				C385.284,402.389,380.413,407.259,374.405,407.259z"/>
		</g>
		<g>
			<path style="fill:#5046AF;" d="M364.743,383.638H230.607c-6.266,0-11.345-5.079-11.345-11.345V149.01
				c0-6.266,5.079-11.345,11.345-11.345h134.136c6.266,0,11.345,5.079,11.345,11.345v223.283
				C376.088,378.559,371.008,383.638,364.743,383.638z"/>
		</g>
		<g>
			<rect x="219.262" y="221.824" style="fill:#393499;" width="128.78" height="33.945"/>
		</g>
		<g>
			<g>
				<g>
					<path style="fill:#FFFFFF;" d="M370.12,305.281h-1.593c-0.176,0-0.318-0.143-0.318-0.318c0-0.176,0.143-0.318,0.318-0.318
						h0.956v-0.956c0-0.176,0.143-0.318,0.318-0.318c0.176,0,0.318,0.143,0.318,0.318V305.281z"/>
				</g>
				<g>
					<path style="fill:#FFFFFF;" d="M363.435,305.281h-2.547c-0.176,0-0.318-0.143-0.318-0.318c0-0.176,0.143-0.318,0.318-0.318
						h2.547c0.176,0,0.318,0.143,0.318,0.318C363.753,305.139,363.61,305.281,363.435,305.281z M355.795,305.281h-2.547
						c-0.176,0-0.318-0.143-0.318-0.318c0-0.176,0.143-0.318,0.318-0.318h2.547c0.176,0,0.318,0.143,0.318,0.318
						C356.113,305.139,355.971,305.281,355.795,305.281z M348.155,305.281h-2.547c-0.176,0-0.318-0.143-0.318-0.318
						c0-0.176,0.143-0.318,0.318-0.318h2.547c0.176,0,0.318,0.143,0.318,0.318C348.474,305.139,348.331,305.281,348.155,305.281z
						 M340.515,305.281h-2.546c-0.176,0-0.318-0.143-0.318-0.318c0-0.176,0.143-0.318,0.318-0.318h2.546
						c0.176,0,0.318,0.143,0.318,0.318C340.833,305.139,340.69,305.281,340.515,305.281z M332.875,305.281h-2.547
						c-0.176,0-0.318-0.143-0.318-0.318c0-0.176,0.142-0.318,0.318-0.318h2.547c0.176,0,0.318,0.143,0.318,0.318
						C333.193,305.139,333.051,305.281,332.875,305.281z M325.235,305.281h-2.547c-0.176,0-0.318-0.143-0.318-0.318
						c0-0.176,0.143-0.318,0.318-0.318h2.547c0.176,0,0.318,0.143,0.318,0.318C325.554,305.139,325.411,305.281,325.235,305.281z
						 M317.596,305.281h-2.547c-0.176,0-0.318-0.143-0.318-0.318c0-0.176,0.142-0.318,0.318-0.318h2.547
						c0.176,0,0.318,0.143,0.318,0.318C317.914,305.139,317.771,305.281,317.596,305.281z M309.955,305.281h-2.546
						c-0.176,0-0.318-0.143-0.318-0.318c0-0.176,0.143-0.318,0.318-0.318h2.546c0.176,0,0.318,0.143,0.318,0.318
						C310.273,305.139,310.131,305.281,309.955,305.281z M302.315,305.281h-2.547c-0.176,0-0.318-0.143-0.318-0.318
						c0-0.176,0.143-0.318,0.318-0.318h2.547c0.176,0,0.318,0.143,0.318,0.318C302.634,305.139,302.491,305.281,302.315,305.281z
						 M294.676,305.281h-2.547c-0.176,0-0.318-0.143-0.318-0.318c0-0.176,0.143-0.318,0.318-0.318h2.547
						c0.176,0,0.318,0.143,0.318,0.318C294.994,305.139,294.852,305.281,294.676,305.281z M287.036,305.281h-2.547
						c-0.176,0-0.318-0.143-0.318-0.318c0-0.176,0.143-0.318,0.318-0.318h2.547c0.176,0,0.318,0.143,0.318,0.318
						C287.354,305.139,287.212,305.281,287.036,305.281z M279.395,305.281h-2.546c-0.176,0-0.318-0.143-0.318-0.318
						c0-0.176,0.143-0.318,0.318-0.318h2.546c0.176,0,0.318,0.143,0.318,0.318C279.714,305.139,279.571,305.281,279.395,305.281z
						 M271.756,305.281h-2.547c-0.176,0-0.318-0.143-0.318-0.318c0-0.176,0.143-0.318,0.318-0.318h2.547
						c0.176,0,0.318,0.143,0.318,0.318C272.074,305.139,271.932,305.281,271.756,305.281z M264.116,305.281h-2.547
						c-0.176,0-0.318-0.143-0.318-0.318c0-0.176,0.143-0.318,0.318-0.318h2.547c0.176,0,0.318,0.143,0.318,0.318
						C264.435,305.139,264.292,305.281,264.116,305.281z M256.477,305.281h-2.547c-0.176,0-0.318-0.143-0.318-0.318
						c0-0.176,0.143-0.318,0.318-0.318h2.547c0.176,0,0.318,0.143,0.318,0.318C256.795,305.139,256.652,305.281,256.477,305.281z
						 M248.836,305.281h-2.547c-0.176,0-0.319-0.143-0.319-0.318c0-0.176,0.143-0.318,0.319-0.318h2.547
						c0.176,0,0.319,0.143,0.319,0.318C249.155,305.139,249.012,305.281,248.836,305.281z M241.196,305.281h-2.546
						c-0.176,0-0.319-0.143-0.319-0.318c0-0.176,0.143-0.318,0.319-0.318h2.546c0.176,0,0.319,0.143,0.319,0.318
						C241.515,305.139,241.372,305.281,241.196,305.281z M233.557,305.281h-2.547c-0.176,0-0.319-0.143-0.319-0.318
						c0-0.176,0.143-0.318,0.319-0.318h2.547c0.176,0,0.319,0.143,0.319,0.318C233.875,305.139,233.732,305.281,233.557,305.281z"/>
				</g>
				<g>
					<path style="fill:#FFFFFF;" d="M225.916,305.281h-1.593v-1.593c0-0.176,0.143-0.318,0.319-0.318
						c0.176,0,0.319,0.143,0.319,0.318v0.956h0.956c0.176,0,0.319,0.143,0.319,0.318
						C226.235,305.139,226.092,305.281,225.916,305.281z"/>
				</g>
				<g>
					<path style="fill:#FFFFFF;" d="M224.642,298.299c-0.176,0-0.319-0.142-0.319-0.318v-2.854c0-0.176,0.143-0.318,0.319-0.318
						c0.176,0,0.319,0.143,0.319,0.318v2.854C224.96,298.156,224.817,298.299,224.642,298.299z M224.642,289.736
						c-0.176,0-0.319-0.142-0.319-0.318v-2.853c0-0.176,0.143-0.318,0.319-0.318c0.176,0,0.319,0.143,0.319,0.318v2.853
						C224.96,289.594,224.817,289.736,224.642,289.736z M224.642,281.174c-0.176,0-0.319-0.142-0.319-0.318v-2.853
						c0-0.176,0.143-0.318,0.319-0.318c0.176,0,0.319,0.143,0.319,0.318v2.853C224.96,281.031,224.817,281.174,224.642,281.174z"/>
				</g>
				<g>
					<path style="fill:#FFFFFF;" d="M224.642,272.611c-0.176,0-0.319-0.142-0.319-0.318V270.7h1.593
						c0.176,0,0.319,0.143,0.319,0.318c0,0.176-0.143,0.318-0.319,0.318h-0.956v0.956
						C224.96,272.469,224.817,272.611,224.642,272.611z"/>
				</g>
				<g>
					<path style="fill:#FFFFFF;" d="M363.434,271.337h-2.546c-0.176,0-0.318-0.143-0.318-0.318c0-0.176,0.143-0.318,0.318-0.318
						h2.546c0.176,0,0.318,0.143,0.318,0.318C363.752,271.194,363.609,271.337,363.434,271.337z M355.794,271.337h-2.547
						c-0.176,0-0.318-0.143-0.318-0.318c0-0.176,0.143-0.318,0.318-0.318h2.547c0.176,0,0.318,0.143,0.318,0.318
						C356.112,271.194,355.97,271.337,355.794,271.337z M348.154,271.337h-2.547c-0.176,0-0.318-0.143-0.318-0.318
						c0-0.176,0.142-0.318,0.318-0.318h2.547c0.176,0,0.318,0.143,0.318,0.318C348.473,271.194,348.33,271.337,348.154,271.337z
						 M340.515,271.337h-2.547c-0.176,0-0.318-0.143-0.318-0.318c0-0.176,0.143-0.318,0.318-0.318h2.547
						c0.176,0,0.318,0.143,0.318,0.318C340.833,271.194,340.69,271.337,340.515,271.337z M332.874,271.337h-2.546
						c-0.176,0-0.318-0.143-0.318-0.318c0-0.176,0.142-0.318,0.318-0.318h2.546c0.176,0,0.318,0.143,0.318,0.318
						C333.192,271.194,333.05,271.337,332.874,271.337z M325.234,271.337h-2.547c-0.176,0-0.318-0.143-0.318-0.318
						c0-0.176,0.143-0.318,0.318-0.318h2.547c0.176,0,0.318,0.143,0.318,0.318C325.553,271.194,325.41,271.337,325.234,271.337z
						 M317.595,271.337h-2.547c-0.176,0-0.318-0.143-0.318-0.318c0-0.176,0.143-0.318,0.318-0.318h2.547
						c0.176,0,0.318,0.143,0.318,0.318C317.913,271.194,317.77,271.337,317.595,271.337z M309.955,271.337h-2.547
						c-0.176,0-0.318-0.143-0.318-0.318c0-0.176,0.143-0.318,0.318-0.318h2.547c0.176,0,0.318,0.143,0.318,0.318
						C310.273,271.194,310.131,271.337,309.955,271.337z M302.314,271.337h-2.546c-0.176,0-0.318-0.143-0.318-0.318
						c0-0.176,0.143-0.318,0.318-0.318h2.546c0.176,0,0.318,0.143,0.318,0.318C302.633,271.194,302.49,271.337,302.314,271.337z
						 M294.675,271.337h-2.547c-0.176,0-0.318-0.143-0.318-0.318c0-0.176,0.142-0.318,0.318-0.318h2.547
						c0.176,0,0.318,0.143,0.318,0.318C294.993,271.194,294.851,271.337,294.675,271.337z M287.035,271.337h-2.547
						c-0.176,0-0.318-0.143-0.318-0.318c0-0.176,0.143-0.318,0.318-0.318h2.547c0.176,0,0.318,0.143,0.318,0.318
						C287.353,271.194,287.211,271.337,287.035,271.337z M279.395,271.337h-2.547c-0.176,0-0.318-0.143-0.318-0.318
						c0-0.176,0.143-0.318,0.318-0.318h2.547c0.176,0,0.318,0.143,0.318,0.318C279.714,271.194,279.571,271.337,279.395,271.337z
						 M271.755,271.337h-2.546c-0.176,0-0.318-0.143-0.318-0.318c0-0.176,0.143-0.318,0.318-0.318h2.546
						c0.176,0,0.318,0.143,0.318,0.318C272.073,271.194,271.931,271.337,271.755,271.337z M264.115,271.337h-2.547
						c-0.176,0-0.318-0.143-0.318-0.318c0-0.176,0.143-0.318,0.318-0.318h2.547c0.176,0,0.318,0.143,0.318,0.318
						C264.434,271.194,264.291,271.337,264.115,271.337z M256.476,271.337h-2.547c-0.176,0-0.318-0.143-0.318-0.318
						c0-0.176,0.142-0.318,0.318-0.318h2.547c0.176,0,0.318,0.143,0.318,0.318C256.794,271.194,256.651,271.337,256.476,271.337z
						 M248.835,271.337h-2.546c-0.176,0-0.319-0.143-0.319-0.318c0-0.176,0.143-0.318,0.319-0.318h2.546
						c0.176,0,0.319,0.143,0.319,0.318C249.154,271.194,249.011,271.337,248.835,271.337z M241.196,271.337h-2.547
						c-0.176,0-0.319-0.143-0.319-0.318c0-0.176,0.143-0.318,0.319-0.318h2.547c0.176,0,0.319,0.143,0.319,0.318
						C241.515,271.194,241.372,271.337,241.196,271.337z M233.556,271.337h-2.546c-0.176,0-0.319-0.143-0.319-0.318
						c0-0.176,0.143-0.318,0.319-0.318h2.546c0.176,0,0.319,0.143,0.319,0.318C233.874,271.194,233.731,271.337,233.556,271.337z"/>
				</g>
				<g>
					<path style="fill:#FFFFFF;" d="M369.802,272.611c-0.176,0-0.318-0.142-0.318-0.318v-0.956h-0.956
						c-0.176,0-0.318-0.143-0.318-0.318c0-0.176,0.143-0.318,0.318-0.318h1.593v1.593
						C370.12,272.469,369.977,272.611,369.802,272.611z"/>
				</g>
				<g>
					<path style="fill:#FFFFFF;" d="M369.802,298.298c-0.176,0-0.318-0.143-0.318-0.318v-2.853c0-0.176,0.143-0.318,0.318-0.318
						c0.176,0,0.318,0.143,0.318,0.318v2.853C370.12,298.155,369.977,298.298,369.802,298.298z M369.802,289.735
						c-0.176,0-0.318-0.143-0.318-0.318v-2.853c0-0.176,0.143-0.318,0.318-0.318c0.176,0,0.318,0.143,0.318,0.318v2.853
						C370.12,289.593,369.977,289.735,369.802,289.735z M369.802,281.174c-0.176,0-0.318-0.142-0.318-0.318v-2.854
						c0-0.176,0.143-0.318,0.318-0.318c0.176,0,0.318,0.143,0.318,0.318v2.854C370.12,281.031,369.977,281.174,369.802,281.174z"/>
				</g>
			</g>
			<g>
				<g>
					<path style="fill:#FFFFFF;" d="M370.12,251.698h-1.593c-0.176,0-0.318-0.143-0.318-0.318s0.143-0.318,0.318-0.318h0.956v-0.956
						c0-0.176,0.143-0.319,0.318-0.319c0.176,0,0.318,0.143,0.318,0.319V251.698z"/>
				</g>
				<g>
					<path style="fill:#FFFFFF;" d="M363.435,251.698h-2.547c-0.176,0-0.318-0.143-0.318-0.318s0.143-0.318,0.318-0.318h2.547
						c0.176,0,0.318,0.143,0.318,0.318S363.61,251.698,363.435,251.698z M355.795,251.698h-2.547c-0.176,0-0.318-0.143-0.318-0.318
						s0.143-0.318,0.318-0.318h2.547c0.176,0,0.318,0.143,0.318,0.318S355.971,251.698,355.795,251.698z M348.155,251.698h-2.547
						c-0.176,0-0.318-0.143-0.318-0.318s0.143-0.318,0.318-0.318h2.547c0.176,0,0.318,0.143,0.318,0.318
						S348.331,251.698,348.155,251.698z M340.515,251.698h-2.546c-0.176,0-0.318-0.143-0.318-0.318s0.143-0.318,0.318-0.318h2.546
						c0.176,0,0.318,0.143,0.318,0.318S340.69,251.698,340.515,251.698z M332.875,251.698h-2.547c-0.176,0-0.318-0.143-0.318-0.318
						s0.142-0.318,0.318-0.318h2.547c0.176,0,0.318,0.143,0.318,0.318S333.051,251.698,332.875,251.698z M325.235,251.698h-2.547
						c-0.176,0-0.318-0.143-0.318-0.318s0.143-0.318,0.318-0.318h2.547c0.176,0,0.318,0.143,0.318,0.318
						S325.411,251.698,325.235,251.698z M317.596,251.698h-2.547c-0.176,0-0.318-0.143-0.318-0.318s0.142-0.318,0.318-0.318h2.547
						c0.176,0,0.318,0.143,0.318,0.318S317.771,251.698,317.596,251.698z M309.955,251.698h-2.546c-0.176,0-0.318-0.143-0.318-0.318
						s0.143-0.318,0.318-0.318h2.546c0.176,0,0.318,0.143,0.318,0.318S310.131,251.698,309.955,251.698z M302.315,251.698h-2.547
						c-0.176,0-0.318-0.143-0.318-0.318s0.143-0.318,0.318-0.318h2.547c0.176,0,0.318,0.143,0.318,0.318
						S302.491,251.698,302.315,251.698z M294.676,251.698h-2.547c-0.176,0-0.318-0.143-0.318-0.318s0.143-0.318,0.318-0.318h2.547
						c0.176,0,0.318,0.143,0.318,0.318S294.852,251.698,294.676,251.698z M287.036,251.698h-2.547c-0.176,0-0.318-0.143-0.318-0.318
						s0.143-0.318,0.318-0.318h2.547c0.176,0,0.318,0.143,0.318,0.318S287.212,251.698,287.036,251.698z M279.395,251.698h-2.546
						c-0.176,0-0.318-0.143-0.318-0.318s0.143-0.318,0.318-0.318h2.546c0.176,0,0.318,0.143,0.318,0.318
						S279.571,251.698,279.395,251.698z M271.756,251.698h-2.547c-0.176,0-0.318-0.143-0.318-0.318s0.143-0.318,0.318-0.318h2.547
						c0.176,0,0.318,0.143,0.318,0.318S271.932,251.698,271.756,251.698z M264.116,251.698h-2.547c-0.176,0-0.318-0.143-0.318-0.318
						s0.143-0.318,0.318-0.318h2.547c0.176,0,0.318,0.143,0.318,0.318S264.292,251.698,264.116,251.698z M256.477,251.698h-2.547
						c-0.176,0-0.318-0.143-0.318-0.318s0.143-0.318,0.318-0.318h2.547c0.176,0,0.318,0.143,0.318,0.318
						S256.652,251.698,256.477,251.698z M248.836,251.698h-2.547c-0.176,0-0.319-0.143-0.319-0.318s0.143-0.318,0.319-0.318h2.547
						c0.176,0,0.319,0.143,0.319,0.318S249.012,251.698,248.836,251.698z M241.196,251.698h-2.546c-0.176,0-0.319-0.143-0.319-0.318
						s0.143-0.318,0.319-0.318h2.546c0.176,0,0.319,0.143,0.319,0.318S241.372,251.698,241.196,251.698z M233.557,251.698h-2.547
						c-0.176,0-0.319-0.143-0.319-0.318s0.143-0.318,0.319-0.318h2.547c0.176,0,0.319,0.143,0.319,0.318
						S233.732,251.698,233.557,251.698z"/>
				</g>
				<g>
					<path style="fill:#FFFFFF;" d="M225.916,251.698h-1.593v-1.593c0-0.176,0.143-0.319,0.319-0.319
						c0.176,0,0.319,0.143,0.319,0.319v0.956h0.956c0.176,0,0.319,0.143,0.319,0.318S226.092,251.698,225.916,251.698z"/>
				</g>
				<g>
					<path style="fill:#FFFFFF;" d="M224.642,244.715c-0.176,0-0.319-0.143-0.319-0.319v-2.854c0-0.176,0.143-0.319,0.319-0.319
						c0.176,0,0.319,0.143,0.319,0.319v2.854C224.96,244.572,224.817,244.715,224.642,244.715z M224.642,236.153
						c-0.176,0-0.319-0.143-0.319-0.319v-2.854c0-0.176,0.143-0.319,0.319-0.319c0.176,0,0.319,0.143,0.319,0.319v2.854
						C224.96,236.01,224.817,236.153,224.642,236.153z M224.642,227.591c-0.176,0-0.319-0.143-0.319-0.319v-2.855
						c0-0.176,0.143-0.319,0.319-0.319c0.176,0,0.319,0.143,0.319,0.319v2.855C224.96,227.448,224.817,227.591,224.642,227.591z"/>
				</g>
				<g>
					<path style="fill:#FFFFFF;" d="M224.642,219.028c-0.176,0-0.319-0.143-0.319-0.319v-1.593h1.593
						c0.176,0,0.319,0.143,0.319,0.319c0,0.176-0.143,0.319-0.319,0.319h-0.956v0.956
						C224.96,218.885,224.817,219.028,224.642,219.028z"/>
				</g>
				<g>
					<path style="fill:#FFFFFF;" d="M363.434,217.754h-2.546c-0.176,0-0.318-0.143-0.318-0.319c0-0.176,0.143-0.319,0.318-0.319
						h2.546c0.176,0,0.318,0.143,0.318,0.319C363.752,217.611,363.609,217.754,363.434,217.754z M355.794,217.754h-2.547
						c-0.176,0-0.318-0.143-0.318-0.319c0-0.176,0.143-0.319,0.318-0.319h2.547c0.176,0,0.318,0.143,0.318,0.319
						C356.112,217.611,355.97,217.754,355.794,217.754z M348.154,217.754h-2.547c-0.176,0-0.318-0.143-0.318-0.319
						c0-0.176,0.142-0.319,0.318-0.319h2.547c0.176,0,0.318,0.143,0.318,0.319C348.473,217.611,348.33,217.754,348.154,217.754z
						 M340.515,217.754h-2.547c-0.176,0-0.318-0.143-0.318-0.319c0-0.176,0.143-0.319,0.318-0.319h2.547
						c0.176,0,0.318,0.143,0.318,0.319C340.833,217.611,340.69,217.754,340.515,217.754z M332.874,217.754h-2.546
						c-0.176,0-0.318-0.143-0.318-0.319c0-0.176,0.142-0.319,0.318-0.319h2.546c0.176,0,0.318,0.143,0.318,0.319
						C333.192,217.611,333.05,217.754,332.874,217.754z M325.234,217.754h-2.547c-0.176,0-0.318-0.143-0.318-0.319
						c0-0.176,0.143-0.319,0.318-0.319h2.547c0.176,0,0.318,0.143,0.318,0.319C325.553,217.611,325.41,217.754,325.234,217.754z
						 M317.595,217.754h-2.547c-0.176,0-0.318-0.143-0.318-0.319c0-0.176,0.143-0.319,0.318-0.319h2.547
						c0.176,0,0.318,0.143,0.318,0.319C317.913,217.611,317.77,217.754,317.595,217.754z M309.955,217.754h-2.547
						c-0.176,0-0.318-0.143-0.318-0.319c0-0.176,0.143-0.319,0.318-0.319h2.547c0.176,0,0.318,0.143,0.318,0.319
						C310.273,217.611,310.131,217.754,309.955,217.754z M302.314,217.754h-2.546c-0.176,0-0.318-0.143-0.318-0.319
						c0-0.176,0.143-0.319,0.318-0.319h2.546c0.176,0,0.318,0.143,0.318,0.319C302.633,217.611,302.49,217.754,302.314,217.754z
						 M294.675,217.754h-2.547c-0.176,0-0.318-0.143-0.318-0.319c0-0.176,0.142-0.319,0.318-0.319h2.547
						c0.176,0,0.318,0.143,0.318,0.319C294.993,217.611,294.851,217.754,294.675,217.754z M287.035,217.754h-2.547
						c-0.176,0-0.318-0.143-0.318-0.319c0-0.176,0.143-0.319,0.318-0.319h2.547c0.176,0,0.318,0.143,0.318,0.319
						C287.353,217.611,287.211,217.754,287.035,217.754z M279.395,217.754h-2.547c-0.176,0-0.318-0.143-0.318-0.319
						c0-0.176,0.143-0.319,0.318-0.319h2.547c0.176,0,0.318,0.143,0.318,0.319C279.714,217.611,279.571,217.754,279.395,217.754z
						 M271.755,217.754h-2.546c-0.176,0-0.318-0.143-0.318-0.319c0-0.176,0.143-0.319,0.318-0.319h2.546
						c0.176,0,0.318,0.143,0.318,0.319C272.073,217.611,271.931,217.754,271.755,217.754z M264.115,217.754h-2.547
						c-0.176,0-0.318-0.143-0.318-0.319c0-0.176,0.143-0.319,0.318-0.319h2.547c0.176,0,0.318,0.143,0.318,0.319
						C264.434,217.611,264.291,217.754,264.115,217.754z M256.476,217.754h-2.547c-0.176,0-0.318-0.143-0.318-0.319
						c0-0.176,0.142-0.319,0.318-0.319h2.547c0.176,0,0.318,0.143,0.318,0.319C256.794,217.611,256.651,217.754,256.476,217.754z
						 M248.835,217.754h-2.546c-0.176,0-0.319-0.143-0.319-0.319c0-0.176,0.143-0.319,0.319-0.319h2.546
						c0.176,0,0.319,0.143,0.319,0.319C249.154,217.611,249.011,217.754,248.835,217.754z M241.196,217.754h-2.547
						c-0.176,0-0.319-0.143-0.319-0.319c0-0.176,0.143-0.319,0.319-0.319h2.547c0.176,0,0.319,0.143,0.319,0.319
						C241.515,217.611,241.372,217.754,241.196,217.754z M233.556,217.754h-2.546c-0.176,0-0.319-0.143-0.319-0.319
						c0-0.176,0.143-0.319,0.319-0.319h2.546c0.176,0,0.319,0.143,0.319,0.319C233.874,217.611,233.731,217.754,233.556,217.754z"/>
				</g>
				<g>
					<path style="fill:#FFFFFF;" d="M369.802,219.028c-0.176,0-0.318-0.143-0.318-0.319v-0.956h-0.956
						c-0.176,0-0.318-0.143-0.318-0.319c0-0.176,0.143-0.319,0.318-0.319h1.593v1.593
						C370.12,218.885,369.977,219.028,369.802,219.028z"/>
				</g>
				<g>
					<path style="fill:#FFFFFF;" d="M369.802,244.716c-0.176,0-0.318-0.143-0.318-0.319v-2.855c0-0.176,0.143-0.319,0.318-0.319
						c0.176,0,0.318,0.143,0.318,0.319v2.855C370.12,244.573,369.977,244.716,369.802,244.716z M369.802,236.153
						c-0.176,0-0.318-0.143-0.318-0.319v-2.854c0-0.176,0.143-0.319,0.318-0.319c0.176,0,0.318,0.143,0.318,0.319v2.854
						C370.12,236.01,369.977,236.153,369.802,236.153z M369.802,227.591c-0.176,0-0.318-0.143-0.318-0.319v-2.854
						c0-0.176,0.143-0.319,0.318-0.319c0.176,0,0.318,0.143,0.318,0.319v2.854C370.12,227.448,369.977,227.591,369.802,227.591z"/>
				</g>
			</g>
			<g>
				<g>
					<path style="fill:#FFFFFF;" d="M370.12,198.115h-1.593c-0.176,0-0.318-0.143-0.318-0.319s0.143-0.319,0.318-0.319h0.956v-0.956
						c0-0.176,0.143-0.319,0.318-0.319c0.176,0,0.318,0.143,0.318,0.319V198.115z"/>
				</g>
				<g>
					<path style="fill:#FFFFFF;" d="M363.435,198.115h-2.547c-0.176,0-0.318-0.143-0.318-0.319s0.143-0.319,0.318-0.319h2.547
						c0.176,0,0.318,0.143,0.318,0.319S363.61,198.115,363.435,198.115z M355.795,198.115h-2.547c-0.176,0-0.318-0.143-0.318-0.319
						s0.143-0.319,0.318-0.319h2.547c0.176,0,0.318,0.143,0.318,0.319S355.971,198.115,355.795,198.115z M348.155,198.115h-2.547
						c-0.176,0-0.318-0.143-0.318-0.319s0.143-0.319,0.318-0.319h2.547c0.176,0,0.318,0.143,0.318,0.319
						S348.331,198.115,348.155,198.115z M340.515,198.115h-2.546c-0.176,0-0.318-0.143-0.318-0.319s0.143-0.319,0.318-0.319h2.546
						c0.176,0,0.318,0.143,0.318,0.319S340.69,198.115,340.515,198.115z M332.875,198.115h-2.547c-0.176,0-0.318-0.143-0.318-0.319
						s0.142-0.319,0.318-0.319h2.547c0.176,0,0.318,0.143,0.318,0.319S333.051,198.115,332.875,198.115z M325.235,198.115h-2.547
						c-0.176,0-0.318-0.143-0.318-0.319s0.143-0.319,0.318-0.319h2.547c0.176,0,0.318,0.143,0.318,0.319
						S325.411,198.115,325.235,198.115z M317.596,198.115h-2.547c-0.176,0-0.318-0.143-0.318-0.319s0.142-0.319,0.318-0.319h2.547
						c0.176,0,0.318,0.143,0.318,0.319S317.771,198.115,317.596,198.115z M309.955,198.115h-2.546c-0.176,0-0.318-0.143-0.318-0.319
						s0.143-0.319,0.318-0.319h2.546c0.176,0,0.318,0.143,0.318,0.319S310.131,198.115,309.955,198.115z M302.315,198.115h-2.547
						c-0.176,0-0.318-0.143-0.318-0.319s0.143-0.319,0.318-0.319h2.547c0.176,0,0.318,0.143,0.318,0.319
						S302.491,198.115,302.315,198.115z M294.676,198.115h-2.547c-0.176,0-0.318-0.143-0.318-0.319s0.143-0.319,0.318-0.319h2.547
						c0.176,0,0.318,0.143,0.318,0.319S294.852,198.115,294.676,198.115z M287.036,198.115h-2.547c-0.176,0-0.318-0.143-0.318-0.319
						s0.143-0.319,0.318-0.319h2.547c0.176,0,0.318,0.143,0.318,0.319S287.212,198.115,287.036,198.115z M279.395,198.115h-2.546
						c-0.176,0-0.318-0.143-0.318-0.319s0.143-0.319,0.318-0.319h2.546c0.176,0,0.318,0.143,0.318,0.319
						S279.571,198.115,279.395,198.115z M271.756,198.115h-2.547c-0.176,0-0.318-0.143-0.318-0.319s0.143-0.319,0.318-0.319h2.547
						c0.176,0,0.318,0.143,0.318,0.319S271.932,198.115,271.756,198.115z M264.116,198.115h-2.547c-0.176,0-0.318-0.143-0.318-0.319
						s0.143-0.319,0.318-0.319h2.547c0.176,0,0.318,0.143,0.318,0.319S264.292,198.115,264.116,198.115z M256.477,198.115h-2.547
						c-0.176,0-0.318-0.143-0.318-0.319s0.143-0.319,0.318-0.319h2.547c0.176,0,0.318,0.143,0.318,0.319
						S256.652,198.115,256.477,198.115z M248.836,198.115h-2.547c-0.176,0-0.319-0.143-0.319-0.319s0.143-0.319,0.319-0.319h2.547
						c0.176,0,0.319,0.143,0.319,0.319S249.012,198.115,248.836,198.115z M241.196,198.115h-2.546c-0.176,0-0.319-0.143-0.319-0.319
						s0.143-0.319,0.319-0.319h2.546c0.176,0,0.319,0.143,0.319,0.319S241.372,198.115,241.196,198.115z M233.557,198.115h-2.547
						c-0.176,0-0.319-0.143-0.319-0.319s0.143-0.319,0.319-0.319h2.547c0.176,0,0.319,0.143,0.319,0.319
						S233.732,198.115,233.557,198.115z"/>
				</g>
				<g>
					<path style="fill:#FFFFFF;" d="M225.916,198.115h-1.593v-1.593c0-0.176,0.143-0.319,0.319-0.319
						c0.176,0,0.319,0.143,0.319,0.319v0.956h0.956c0.176,0,0.319,0.143,0.319,0.319S226.092,198.115,225.916,198.115z"/>
				</g>
				<g>
					<path style="fill:#FFFFFF;" d="M224.642,191.132c-0.176,0-0.319-0.143-0.319-0.319v-2.854c0-0.176,0.143-0.319,0.319-0.319
						c0.176,0,0.319,0.143,0.319,0.319v2.854C224.96,190.989,224.817,191.132,224.642,191.132z M224.642,182.569
						c-0.176,0-0.319-0.143-0.319-0.319v-2.854c0-0.176,0.143-0.319,0.319-0.319c0.176,0,0.319,0.143,0.319,0.319v2.854
						C224.96,182.426,224.817,182.569,224.642,182.569z M224.642,174.007c-0.176,0-0.319-0.143-0.319-0.319v-2.855
						c0-0.176,0.143-0.319,0.319-0.319c0.176,0,0.319,0.143,0.319,0.319v2.855C224.96,173.864,224.817,174.007,224.642,174.007z"/>
				</g>
				<g>
					<path style="fill:#FFFFFF;" d="M224.642,165.445c-0.176,0-0.319-0.143-0.319-0.319v-1.593h1.593
						c0.176,0,0.319,0.143,0.319,0.319c0,0.176-0.143,0.319-0.319,0.319h-0.956v0.956
						C224.96,165.302,224.817,165.445,224.642,165.445z"/>
				</g>
				<g>
					<path style="fill:#FFFFFF;" d="M363.434,164.17h-2.546c-0.176,0-0.318-0.143-0.318-0.319c0-0.176,0.143-0.319,0.318-0.319
						h2.546c0.176,0,0.318,0.143,0.318,0.319C363.752,164.027,363.609,164.17,363.434,164.17z M355.794,164.17h-2.547
						c-0.176,0-0.318-0.143-0.318-0.319c0-0.176,0.143-0.319,0.318-0.319h2.547c0.176,0,0.318,0.143,0.318,0.319
						C356.112,164.027,355.97,164.17,355.794,164.17z M348.154,164.17h-2.547c-0.176,0-0.318-0.143-0.318-0.319
						c0-0.176,0.142-0.319,0.318-0.319h2.547c0.176,0,0.318,0.143,0.318,0.319C348.473,164.027,348.33,164.17,348.154,164.17z
						 M340.515,164.17h-2.547c-0.176,0-0.318-0.143-0.318-0.319c0-0.176,0.143-0.319,0.318-0.319h2.547
						c0.176,0,0.318,0.143,0.318,0.319C340.833,164.027,340.69,164.17,340.515,164.17z M332.874,164.17h-2.546
						c-0.176,0-0.318-0.143-0.318-0.319c0-0.176,0.142-0.319,0.318-0.319h2.546c0.176,0,0.318,0.143,0.318,0.319
						C333.192,164.027,333.05,164.17,332.874,164.17z M325.234,164.17h-2.547c-0.176,0-0.318-0.143-0.318-0.319
						c0-0.176,0.143-0.319,0.318-0.319h2.547c0.176,0,0.318,0.143,0.318,0.319C325.553,164.027,325.41,164.17,325.234,164.17z
						 M317.595,164.17h-2.547c-0.176,0-0.318-0.143-0.318-0.319c0-0.176,0.143-0.319,0.318-0.319h2.547
						c0.176,0,0.318,0.143,0.318,0.319C317.913,164.027,317.77,164.17,317.595,164.17z M309.955,164.17h-2.547
						c-0.176,0-0.318-0.143-0.318-0.319c0-0.176,0.143-0.319,0.318-0.319h2.547c0.176,0,0.318,0.143,0.318,0.319
						C310.273,164.027,310.131,164.17,309.955,164.17z M302.314,164.17h-2.546c-0.176,0-0.318-0.143-0.318-0.319
						c0-0.176,0.143-0.319,0.318-0.319h2.546c0.176,0,0.318,0.143,0.318,0.319C302.633,164.027,302.49,164.17,302.314,164.17z
						 M294.675,164.17h-2.547c-0.176,0-0.318-0.143-0.318-0.319c0-0.176,0.142-0.319,0.318-0.319h2.547
						c0.176,0,0.318,0.143,0.318,0.319C294.993,164.027,294.851,164.17,294.675,164.17z M287.035,164.17h-2.547
						c-0.176,0-0.318-0.143-0.318-0.319c0-0.176,0.143-0.319,0.318-0.319h2.547c0.176,0,0.318,0.143,0.318,0.319
						C287.353,164.027,287.211,164.17,287.035,164.17z M279.395,164.17h-2.547c-0.176,0-0.318-0.143-0.318-0.319
						c0-0.176,0.143-0.319,0.318-0.319h2.547c0.176,0,0.318,0.143,0.318,0.319C279.714,164.027,279.571,164.17,279.395,164.17z
						 M271.755,164.17h-2.546c-0.176,0-0.318-0.143-0.318-0.319c0-0.176,0.143-0.319,0.318-0.319h2.546
						c0.176,0,0.318,0.143,0.318,0.319C272.073,164.027,271.931,164.17,271.755,164.17z M264.115,164.17h-2.547
						c-0.176,0-0.318-0.143-0.318-0.319c0-0.176,0.143-0.319,0.318-0.319h2.547c0.176,0,0.318,0.143,0.318,0.319
						C264.434,164.027,264.291,164.17,264.115,164.17z M256.476,164.17h-2.547c-0.176,0-0.318-0.143-0.318-0.319
						c0-0.176,0.142-0.319,0.318-0.319h2.547c0.176,0,0.318,0.143,0.318,0.319C256.794,164.027,256.651,164.17,256.476,164.17z
						 M248.835,164.17h-2.546c-0.176,0-0.319-0.143-0.319-0.319c0-0.176,0.143-0.319,0.319-0.319h2.546
						c0.176,0,0.319,0.143,0.319,0.319C249.154,164.027,249.011,164.17,248.835,164.17z M241.196,164.17h-2.547
						c-0.176,0-0.319-0.143-0.319-0.319c0-0.176,0.143-0.319,0.319-0.319h2.547c0.176,0,0.319,0.143,0.319,0.319
						C241.515,164.027,241.372,164.17,241.196,164.17z M233.556,164.17h-2.546c-0.176,0-0.319-0.143-0.319-0.319
						c0-0.176,0.143-0.319,0.319-0.319h2.546c0.176,0,0.319,0.143,0.319,0.319C233.874,164.027,233.731,164.17,233.556,164.17z"/>
				</g>
				<g>
					<path style="fill:#FFFFFF;" d="M369.802,165.445c-0.176,0-0.318-0.143-0.318-0.319v-0.956h-0.956
						c-0.176,0-0.318-0.143-0.318-0.319c0-0.176,0.143-0.319,0.318-0.319h1.593v1.593
						C370.12,165.302,369.977,165.445,369.802,165.445z"/>
				</g>
				<g>
					<path style="fill:#FFFFFF;" d="M369.802,191.132c-0.176,0-0.318-0.143-0.318-0.319v-2.855c0-0.176,0.143-0.319,0.318-0.319
						c0.176,0,0.318,0.143,0.318,0.319v2.855C370.12,190.989,369.977,191.132,369.802,191.132z M369.802,182.57
						c-0.176,0-0.318-0.143-0.318-0.319v-2.854c0-0.176,0.143-0.319,0.318-0.319c0.176,0,0.318,0.143,0.318,0.319v2.854
						C370.12,182.427,369.977,182.57,369.802,182.57z M369.802,174.007c-0.176,0-0.318-0.143-0.318-0.319v-2.854
						c0-0.176,0.143-0.319,0.318-0.319c0.176,0,0.318,0.143,0.318,0.319v2.854C370.12,173.864,369.977,174.007,369.802,174.007z"/>
				</g>
			</g>
		</g>
		<g>
			<path style="fill:#5046AF;" d="M342.835,129.827h-90.321c-1.446,0-2.618-1.172-2.618-2.618l0,0c0-1.446,1.172-2.618,2.618-2.618
				h90.321c1.446,0,2.618,1.172,2.618,2.618l0,0C345.453,128.655,344.281,129.827,342.835,129.827z"/>
		</g>
		<g>
			<g>
				<path style="fill:#5046AF;" d="M263.809,399.103h-25.246c-1.955,0-3.541-1.585-3.541-3.54v0c0-1.955,1.585-3.54,3.541-3.54
					h25.246c1.955,0,3.54,1.585,3.54,3.54v0C267.349,397.517,265.764,399.103,263.809,399.103z"/>
			</g>
			<g>
				<path style="fill:#5046AF;" d="M356.787,399.103h-25.246c-1.955,0-3.541-1.585-3.541-3.54v0c0-1.955,1.585-3.54,3.541-3.54
					h25.246c1.955,0,3.541,1.585,3.541,3.54v0C360.328,397.517,358.743,399.103,356.787,399.103z"/>
			</g>
		</g>
		<g>
			<path style="fill:#73C8F0;" d="M379.078,156.141l-45.38-49.637c1.871-1.234,3.109-3.353,3.109-5.757
				c0-3.367-2.425-6.178-5.62-6.777v-2.574h10.799V67.101h-10.799v-5.509c3.194-0.6,5.62-3.406,5.62-6.773
				c0-3.366-2.426-6.172-5.62-6.772V0h-2.549v48.047c-3.194,0.6-5.62,3.406-5.62,6.772c0,3.366,2.426,6.172,5.62,6.773v5.509H317.84
				v24.297h10.799v5.005h1.274c2.397,0,4.346,1.949,4.346,4.346c0,1.664-0.95,3.094-2.327,3.825l-1.709-1.87l-1.901,2.079
				c-1.609-0.637-2.754-2.201-2.754-4.034h-2.549c0,2.57,1.416,4.813,3.507,5.998l-45.158,49.395l1.111,1.017l45.521-49.791
				c0.609,0.176,1.249,0.276,1.914,0.276c0.84,0,1.642-0.159,2.388-0.435l45.666,49.95L379.078,156.141z M325.567,54.819
				c0-1.95,1.299-3.584,3.071-4.133v0.308h2.549v-0.308c1.772,0.549,3.071,2.183,3.071,4.133c0,1.95-1.299,3.584-3.071,4.133v-0.319
				h-2.549v0.319C326.867,58.404,325.567,56.769,325.567,54.819z M330.095,105.075l0.128-0.14l0.106,0.116
				C330.251,105.059,330.174,105.072,330.095,105.075z"/>
			<g>
				<g>
					<rect x="264.181" y="162.847" style="fill:#393499;" width="111.907" height="33.945"/>
				</g>
				<g>
					<g>
						<rect x="257.333" y="154.173" style="fill:#FFFFFF;" width="145.16" height="33.945"/>
					</g>
					<g>
						<rect x="267.356" y="161.396" style="fill:#73C8F0;" width="19.428" height="19.428"/>
					</g>
					<g>
						<rect x="294.825" y="161.396" style="fill:#73C8F0;" width="100.271" height="3.801"/>
					</g>
					<g>
						<rect x="294.825" y="177.023" style="fill:#73C8F0;" width="100.271" height="3.801"/>
					</g>
				</g>
			</g>
		</g>
		<g>
			<path style="fill:#41B4E6;" d="M387.788,297.443c-2.059,0.273-3.766,1.654-4.436,3.669l-6.824,20.492h-26.986v5.208h25.252
				l-3.412,10.246h-28.073v5.208h26.338l-3.412,10.246h-29.159v5.208h27.424l-3.412,10.246h-29.186v5.208h27.452l-3.412,10.246
				H326.73v5.208h27.479l-3.412,10.246h-29.24v5.208h27.506l-1.058,3.178h5.374l21.644-64.995h0.565v-1.698l4.581-13.756h1.652
				v-4.959l5.969-17.926V297.443z"/>
			<path style="fill:#73C8F0;" d="M434.397,407.259l-40.776-106.377c-0.772-2.013-2.581-3.324-4.692-3.473v5.48l7.173,18.713
				h-27.551v5.208h29.547l3.927,10.246h-27.242v5.208h29.238l3.927,10.246h-26.933v5.208h28.929l3.927,10.246h-27.991v5.208h29.987
				l3.928,10.246h-27.604v5.208h29.6l3.927,10.246h-27.456v5.208h29.453l1.218,3.178H434.397z"/>
			<g>
				<path style="fill:#41B4E6;" d="M390.84,301.007c0,2.9-1.244,5.251-2.778,5.251c-1.534,0-2.778-2.351-2.778-5.251
					c0-2.9,1.244-5.251,2.778-5.251C389.596,295.755,390.84,298.107,390.84,301.007z"/>
			</g>
		</g>
		<g>
			<g>
				<rect x="197.086" y="214.046" style="fill:#FFFFFF;" width="145.16" height="33.945"/>
			</g>
			<g>
				<rect x="207.109" y="221.269" style="fill:#73C8F0;" width="19.428" height="19.428"/>
			</g>
			<g>
				<rect x="234.578" y="221.269" style="fill:#73C8F0;" width="100.271" height="3.801"/>
			</g>
			<g>
				<rect x="234.578" y="236.896" style="fill:#73C8F0;" width="100.271" height="3.801"/>
			</g>
		</g>
		<g>
			<g>
				<polygon style="fill:#73C8F0;" points="100.611,407.259 78.049,407.259 89.33,369.274 				"/>
			</g>
			<g>
				<rect x="73.899" y="404.602" style="fill:#73C8F0;" width="31.059" height="2.658"/>
			</g>
			<g>
				<polygon style="fill:#6E64C3;" points="78.838,404.602 99.821,404.602 97.869,398.028 80.79,398.028 				"/>
			</g>
			<g>
				<polygon style="fill:#6E64C3;" points="94.816,387.747 93.965,384.882 84.695,384.882 83.624,388.486 82.743,391.455 
					95.917,391.455 				"/>
			</g>
		</g>
		<g>
			<path style="fill:#FFFFFF;" d="M283.859,363.081v-5.352h0.597v4.809h1.528v0.543H283.859z"/>
			<path style="fill:#FFFFFF;" d="M287.92,359.022c0-0.817,0.405-1.345,1.224-1.345c0.825,0,1.23,0.527,1.23,1.345v2.768
				c0,0.811-0.405,1.346-1.23,1.346c-0.818,0-1.224-0.535-1.224-1.346V359.022z M288.509,361.819c0,0.489,0.206,0.772,0.635,0.772
				c0.436,0,0.634-0.283,0.634-0.772v-2.828c0-0.481-0.198-0.772-0.634-0.772c-0.429,0-0.635,0.291-0.635,0.772V361.819z"/>
			<path style="fill:#FFFFFF;" d="M293.067,362.003l-0.207,1.078h-0.55l1.025-5.352h0.863l1.025,5.352h-0.597l-0.206-1.078H293.067z
				 M293.144,361.491h1.192l-0.603-3.089L293.144,361.491z"/>
			<path style="fill:#FFFFFF;" d="M298.474,357.729c0.833,0,1.216,0.505,1.216,1.33v2.699c0,0.817-0.383,1.322-1.216,1.322h-1.254
				v-5.352H298.474z M298.466,362.538c0.428,0,0.635-0.268,0.635-0.757v-2.752c0-0.489-0.207-0.757-0.643-0.757h-0.642v4.266
				H298.466z"/>
			<path style="fill:#FFFFFF;" d="M302.374,357.729v5.352h-0.597v-5.352H302.374z"/>
			<path style="fill:#FFFFFF;" d="M305.043,363.081h-0.535v-5.352h0.757l1.238,3.868v-3.868h0.528v5.352h-0.619l-1.369-4.327
				V363.081z"/>
			<path style="fill:#FFFFFF;" d="M311.535,359.022v0.459h-0.565v-0.489c0-0.481-0.191-0.772-0.627-0.772
				c-0.429,0-0.627,0.291-0.627,0.772v2.828c0,0.482,0.198,0.772,0.627,0.772c0.436,0,0.627-0.29,0.627-0.772v-1.07h-0.551v-0.535
				h1.116v1.575c0,0.811-0.382,1.346-1.208,1.346c-0.817,0-1.2-0.535-1.2-1.346v-2.768c0-0.811,0.383-1.345,1.2-1.345
				C311.153,357.677,311.535,358.211,311.535,359.022z"/>
		</g>
		<g>
			<g>
				<g>
					<path style="fill:#FFFFFF;" d="M299.15,323.128c0.686,0,1.241-0.556,1.241-1.242c0-0.686-0.556-1.241-1.241-1.241
						c-0.686,0-1.241,0.556-1.241,1.241C297.909,322.572,298.464,323.128,299.15,323.128z"/>
				</g>
				<g>
					<path style="fill:#827DDC;" d="M299.15,344.963c-0.686,0-1.241,0.556-1.241,1.241s0.556,1.241,1.241,1.241
						c0.686,0,1.241-0.556,1.241-1.241S299.836,344.963,299.15,344.963z"/>
				</g>
			</g>
			<g>
				<g>
					<path style="fill:#C2C2EF;" d="M295.416,323.786c0.644-0.234,0.976-0.947,0.742-1.591c-0.234-0.644-0.947-0.976-1.591-0.742
						c-0.644,0.234-0.976,0.947-0.742,1.591C294.059,323.688,294.772,324.021,295.416,323.786z"/>
				</g>
				<g>
					<path style="fill:#827DDC;" d="M302.884,344.305c-0.644,0.235-0.976,0.947-0.742,1.591c0.234,0.644,0.947,0.977,1.591,0.742
						c0.644-0.234,0.976-0.947,0.742-1.591C304.241,344.402,303.528,344.07,302.884,344.305z"/>
				</g>
			</g>
			<g>
				<g>
					<path style="fill:#9292F7;" d="M292.132,325.682c0.525-0.441,0.594-1.224,0.153-1.749c-0.441-0.525-1.224-0.594-1.749-0.153
						c-0.525,0.441-0.594,1.224-0.153,1.749C290.824,326.054,291.607,326.123,292.132,325.682z"/>
				</g>
				<g>
					<path style="fill:#827DDC;" d="M306.168,342.409c-0.525,0.441-0.594,1.224-0.153,1.749c0.441,0.525,1.224,0.594,1.749,0.153
						c0.525-0.441,0.594-1.224,0.153-1.749S306.693,341.968,306.168,342.409z"/>
				</g>
			</g>
			<g>
				<g>
					<path style="fill:#9A9AFC;" d="M289.695,328.587c0.343-0.594,0.139-1.353-0.454-1.696c-0.594-0.343-1.353-0.139-1.696,0.454
						c-0.343,0.594-0.139,1.353,0.454,1.696C288.593,329.384,289.352,329.18,289.695,328.587z"/>
				</g>
				<g>
					<path style="fill:#827DDC;" d="M308.605,339.504c-0.343,0.594-0.139,1.353,0.454,1.696c0.594,0.343,1.353,0.139,1.696-0.454
						c0.343-0.594,0.139-1.353-0.454-1.696S308.948,338.91,308.605,339.504z"/>
				</g>
			</g>
			<g>
				<g>
					<path style="fill:#827DDC;" d="M288.398,332.15c0.119-0.675-0.332-1.319-1.007-1.438c-0.675-0.119-1.319,0.332-1.438,1.007
						c-0.119,0.675,0.332,1.319,1.007,1.438C287.635,333.276,288.279,332.825,288.398,332.15z"/>
				</g>
				<g>
					<path style="fill:#827DDC;" d="M309.902,335.941c-0.119,0.675,0.332,1.319,1.007,1.438c0.675,0.119,1.319-0.332,1.438-1.007
						s-0.332-1.319-1.007-1.438C310.665,334.815,310.021,335.266,309.902,335.941z"/>
				</g>
			</g>
			<g>
				<g>
					<path style="fill:#827DDC;" d="M288.398,335.941c-0.119-0.675-0.763-1.126-1.438-1.007c-0.675,0.119-1.126,0.763-1.007,1.438
						c0.119,0.675,0.763,1.126,1.438,1.007C288.066,337.26,288.517,336.616,288.398,335.941z"/>
				</g>
				<g>
					<path style="fill:#827DDC;" d="M309.902,332.15c0.119,0.675,0.763,1.126,1.438,1.007c0.675-0.119,1.126-0.763,1.007-1.438
						c-0.119-0.675-0.763-1.126-1.438-1.007C310.233,330.831,309.783,331.474,309.902,332.15z"/>
				</g>
			</g>
			<g>
				<g>
					<path style="fill:#827DDC;" d="M289.695,339.504c-0.343-0.594-1.102-0.797-1.696-0.454c-0.594,0.343-0.797,1.102-0.454,1.696
						s1.102,0.797,1.696,0.454C289.834,340.857,290.038,340.098,289.695,339.504z"/>
				</g>
				<g>
					<path style="fill:#827DDC;" d="M308.605,328.587c0.343,0.594,1.102,0.797,1.696,0.454c0.594-0.343,0.797-1.102,0.454-1.696
						c-0.343-0.594-1.102-0.797-1.696-0.454C308.465,327.234,308.262,327.993,308.605,328.587z"/>
				</g>
			</g>
			<g>
				<g>
					<path style="fill:#827DDC;" d="M292.132,342.409c-0.525-0.441-1.308-0.372-1.749,0.153c-0.441,0.525-0.372,1.308,0.153,1.749
						c0.525,0.441,1.308,0.372,1.749-0.153S292.658,342.85,292.132,342.409z"/>
				</g>
				<g>
					<path style="fill:#827DDC;" d="M306.168,325.682c0.525,0.441,1.308,0.372,1.749-0.153c0.441-0.525,0.372-1.308-0.153-1.749
						c-0.525-0.441-1.308-0.372-1.749,0.153C305.574,324.458,305.642,325.241,306.168,325.682z"/>
				</g>
			</g>
			<g>
				<g>
					<path style="fill:#827DDC;" d="M295.416,344.305c-0.644-0.234-1.357,0.098-1.591,0.742c-0.234,0.644,0.098,1.357,0.742,1.591
						c0.644,0.235,1.357-0.098,1.591-0.742C296.392,345.252,296.06,344.539,295.416,344.305z"/>
				</g>
				<g>
					<path style="fill:#827DDC;" d="M302.884,323.786c0.644,0.234,1.357-0.098,1.591-0.742c0.234-0.644-0.098-1.357-0.742-1.591
						c-0.644-0.234-1.357,0.098-1.591,0.742C301.908,322.839,302.24,323.552,302.884,323.786z"/>
				</g>
			</g>
		</g>
		<g>
			<path style="fill:#97F4EC;" d="M142.788,290.833c0,0-9.087,4.33-10.43,5.561c-1.342,1.231-3.598,16.3-3.598,16.3
				c1.903,1.99,4.475,3.545,7.52,3.272l0.776-4.021c0,0,1.119,8.614,0,11.97c-1.119,3.356-2.696,11.922-2.696,11.922
				s10.57,5.816,24.749,0.449c0,0,2.446-23.445,1.551-28.927c0.922,3.93,1.097,5.419,1.828,8.53
				c2.458,0.376,5.735-1.493,7.489-4.474c0,0-2.804-16.121-6.632-18.604c-2.992-1.941-12.53-3.911-12.53-3.911L142.788,290.833z"/>
		</g>
		<g>
			<path style="fill:#73C8F0;" d="M154.194,277.27c0,1.754-1.445,3.704-2.078,5.276c-1.248,3.101-3.521,5.445-6.011,5.445
				c-1.678,0-3.321-1.132-4.625-2.851c-1.611-2.123-1.759-5.241-1.759-8.122c0-5.213,1.849-8.717,6.479-8.717
				C149.952,268.301,154.194,270.621,154.194,277.27z"/>
		</g>
		<g>
			<path style="fill:#73C8F0;" d="M151.394,292.657c-2.691,1.564-6.048,1.825-8.025,0.74c-0.506-0.278-0.752-0.857-0.686-1.43
				c0.285-2.479,0.232-5.175-0.111-8.058l7.973-0.591c0.293,2.754,0.684,4.716,1.693,6.624
				C152.749,290.909,152.341,292.107,151.394,292.657z"/>
		</g>
		<g>
			<path style="fill:#5046AF;" d="M136.432,310.377l-8.287-1.273c-2.013-0.309-3.394-2.192-3.085-4.205l0,0
				c0.309-2.013,2.192-3.394,4.205-3.085l8.287,1.273L136.432,310.377z"/>
		</g>
		<g>
			<path style="fill:#5046AF;" d="M163.227,303.314l8.133-2.04c1.975-0.495,3.979,0.704,4.474,2.68l0,0
				c0.495,1.975-0.704,3.979-2.68,4.474l-8.133,2.039L163.227,303.314z"/>
		</g>
		<g>
			
				<rect x="159.012" y="305.491" transform="matrix(0.9612 -0.2759 0.2759 0.9612 -78.1878 56.457)" style="fill:#5046AF;" width="5.115" height="1.274"/>
		</g>
		<g>
			
				<rect x="159.932" y="308" transform="matrix(0.9612 -0.2759 0.2759 0.9612 -78.8426 56.807)" style="fill:#5046AF;" width="5.115" height="1.274"/>
		</g>
		<g>
			<path style="fill:#73C8F0;" d="M155.564,405.482c0.21-0.447,0.695-0.7,1.188-0.664c1.391,0.103,4.374,0.59,6.236-0.804
				c0.776-0.581,1.787-0.746,2.742-0.581c2.851,0.491,8.012,1.521,8.712,5.845c0,0-6.157,0.802-10.455,0.129
				c-3.526-0.552-8.698-1.819-8.698-1.819C155.287,406.913,155.198,406.263,155.564,405.482z"/>
		</g>
		<g>
			<path style="fill:#41B4E6;" d="M142.857,288.569c0.783,0.498,1.614,0.781,2.453,0.781c2.163,0,4.152-1.78,5.458-4.277
				c-0.002-0.013-0.004-0.027-0.006-0.041c-1.257,1.778-2.898,2.96-4.655,2.96c-1.153,0-2.287-0.544-3.309-1.436
				C142.836,287.238,142.856,287.909,142.857,288.569z"/>
		</g>
		<g>
			<path style="fill:#0091C8;" d="M154.523,279.034h-1.929c-0.78,0-1.413-0.633-1.413-1.413v-4.276h3.342V279.034z"/>
		</g>
		<g>
			<path style="fill:#73C8F0;" d="M154.492,279.381c-0.135,1.438-0.825,2.47-1.536,2.404c-0.711-0.067-1.009-1.246-0.875-2.684
				c0.135-1.438,0.82-2.55,1.531-2.483C154.324,276.684,154.627,277.943,154.492,279.381z"/>
		</g>
		<g>
			<path style="fill:#0091C8;" d="M153.919,275.599h-9.711c-2.274,0-4.117-1.843-4.117-4.117l0,0c0-1.928,1.563-3.491,3.491-3.491
				h7.151c1.76,0,3.186,1.427,3.186,3.186V275.599z"/>
		</g>
		<g>
			<path style="fill:#73C8F0;" d="M372.248,241.178c-2.402-0.987-5.717-1.635-9.858-2.617c-1.63-1.89-7.98-7.85-12.762-12.804
				c-0.66-0.683-1.154-2.184-1.26-3.128c-0.26-2.311-0.472-6.121-1.119-5.819c-0.683,0.319-0.869,2.233-0.906,2.863
				c-0.02,0.335-0.375,0.541-0.668,0.379c-0.265-0.147-0.583-0.31-0.904-0.452l0,0c0,0-4.348-2.601-4.731-1.958
				c-0.2,0.336,1.777,1.962,2.613,2.628c-0.053,0.104-0.109,0.206-0.156,0.311c-1.396-0.524-3.739-1.32-3.937-0.836
				c-0.167,0.409,2.803,1.983,3.447,2.318c-0.029,0.123-0.058,0.247-0.081,0.368c-1.451-0.384-3.568-0.858-3.711-0.39
				c-0.122,0.4,2.663,1.594,3.533,1.957c-0.001,0.03-0.004,0.065-0.005,0.095c-0.003,0.076,0.02,0.147,0.027,0.221
				c-1.365-0.072-2.864-0.08-2.893,0.227c-0.031,0.323,2.936,0.936,3.75,1.097c0.068,0.04,0.128,0.092,0.202,0.123l3.504,1.477
				c0,0,6.958,14.167,12.785,16.793c0.042-0.021,14.124,4.536,14.124,4.536L372.248,241.178z"/>
			<g>
				<g>
					<path style="fill:#73C8F0;" d="M387.289,211.322c2.764-0.558,8.084,0.936,8.169,5.957s-0.596,13.105-5.191,14.381
						c-2.575,0.715-5.763,0.034-7.212-2.055c-1.136-1.638-1.484-4.471-1.735-5.633C380.415,219.778,378.864,213.024,387.289,211.322
						z"/>
				</g>
				<g>
					<path style="fill:#73C8F0;" d="M386.353,228.596l-1.872,7.148c0,0,2.127,2.298,4.765,2.127c2.638-0.17,6.6-2.982,6.6-2.982
						s-2.808-3.489-2.808-6.127L386.353,228.596z"/>
				</g>
				<g>
					<path style="fill:#0091C8;" d="M379.29,218.472c0,0-0.421-8.722,8.575-7.826c1.632,0.162,4.225,0.403,5.583,1.036
						c3.705,1.728,3.972,4.255,3.576,8.433c-0.502,5.302-3.948,9.082-2.815,10.473h-4.03c-1.582,0-3.041-1.003-3.471-2.525
						c-0.399-1.41-0.51-2.831-0.303-4.266c0-0.453,0.453-4.625-2.384-3.663C381.185,221.096,379.29,218.472,379.29,218.472z"/>
				</g>
				<g>
					<path style="fill:#73C8F0;" d="M383.749,221.996c0,1.406,0.773,2.546,1.726,2.546s1.726-1.14,1.726-2.546
						c0-1.406-0.773-2.546-1.726-2.546S383.749,220.59,383.749,221.996z"/>
				</g>
				<g>
					<path style="fill:#73C8F0;" d="M381.167,222.543l-0.73,2.461c-0.104,0.351,0.149,0.706,0.514,0.723l2.104,0.095
						L381.167,222.543z"/>
				</g>
			</g>
			<path style="fill:#73C8F0;" d="M406.141,287.855l-0.742-4.144c0,0,8.959-15.007,7.884-22.002
				c-0.045-0.027-4.307-15.853-4.307-15.853l-6.263,5.38c0.532,2.826,1.93,6.296,3.517,10.733
				c-0.772,2.654-2.477,12.146-4.193,19.575c-0.237,1.025-1.332,2.389-2.144,3.057c-1.989,1.636-5.4,4.131-4.729,4.549
				c0.708,0.442,2.598-0.54,3.206-0.886c0.323-0.183,0.729,0.021,0.755,0.392c0.023,0.334,0.064,0.728,0.125,1.111l0,0
				c0,0,0.208,5.607,1.035,5.575c0.433-0.017,0.75-2.834,0.864-4.011c0.128-0.013,0.257-0.023,0.383-0.042
				c0.355,1.613,1.03,4.268,1.598,4.16c0.48-0.091,0.151-3.799,0.074-4.599c0.132-0.048,0.264-0.095,0.39-0.146
				c0.518,1.579,1.356,3.831,1.876,3.682c0.445-0.128-0.125-3.434-0.314-4.461c0.029-0.017,0.063-0.035,0.091-0.052
				c0.072-0.043,0.124-0.107,0.189-0.159c0.757,1.311,1.653,2.708,1.956,2.55c0.319-0.166-0.902-3.29-1.243-4.144
				C406.144,288.03,406.156,287.943,406.141,287.855z"/>
			<g>
				<path style="fill:#C8E6EB;" d="M358.924,318.638c1.663,1.124,3.602,1.977,6.88,1.517c0.423-1.339,0.378-3.016,0-4.935h-6.428
					C360.486,316.467,360.063,317.896,358.924,318.638z"/>
			</g>
			<g>
				<path style="fill:#73C8F0;" d="M367.603,319.836c-0.213-0.456-0.708-0.713-1.21-0.676c-1.416,0.105-4.453,0.601-6.349-0.819
					c-0.79-0.592-1.819-0.759-2.792-0.591c-2.903,0.5-8.157,1.549-8.87,5.951c0,0,6.122-0.108,10.542-0.39
					c4.679-0.298,8.957-1.331,8.957-1.331C367.885,321.293,367.975,320.631,367.603,319.836z"/>
			</g>
			<g>
				<path style="fill:#41378C;" d="M377.278,276.456c-12.753-2.996-19.141-4.844-19.141,6.969c0,10.515,0.435,31.629,0.435,31.629
					c0.803,1.347,6.235,2.043,7.709,1.394c0,0,1.776-20.624,2.271-29.302c9.457,0.606,22.371,4.659,22.371,4.659L377.278,276.456z"
					/>
			</g>
			<g>
				<path style="fill:#C8E6EB;" d="M397.189,349.399l7.678,1.616c0.728-1.447,0.584-3.131,0-4.935h-6.428
					C398.866,347.501,399.021,348.548,397.189,349.399z"/>
			</g>
			<g>
				<path style="fill:#41378C;" d="M399.635,276.456c5.33,22.354,3.513,23.204,4.179,34.997c0.592,10.499,2.156,35.351,2.156,35.351
					c-1.536,1.849-6.058,1.481-8.386,0.316c0,0-3.611-25.101-4.015-29.931c-0.333-3.984-5.344-29.975-5.344-29.975L399.635,276.456z
					"/>
			</g>
			<g>
				<polygon style="fill:#41378C;" points="378.084,277.002 378.2,274.757 399.033,273.46 399.033,278.014 389.236,290.507 
					385.932,289.3 				"/>
			</g>
			<g>
				<path style="fill:#73C8F0;" d="M406.193,350.696c-0.213-0.456-0.708-0.713-1.21-0.676c-1.416,0.105-4.453,0.601-6.349-0.819
					c-0.79-0.592-1.819-0.759-2.792-0.591c-2.903,0.5-8.157,1.549-8.87,5.951c0,0,5.629,0,10.75-0.39
					c3.624-0.276,8.75-1.331,8.75-1.331C406.475,352.153,406.566,351.491,406.193,350.696z"/>
			</g>
			<path style="fill:#97F4EC;" d="M404.185,235.703c-0.467-0.279-1.096-0.552-1.808-0.817c-0.005,0.015-0.009,0.027-0.015,0.042
				c-0.628-0.203-1.3-0.396-2.019-0.571c-4.908-1.193-10.01-1.349-15.008-0.619l-1.592,0.232c0,0-3.801,1.812-6.891,3.443
				c0,0.034,0,0.076,0,0.112c-3.534,2.381-8.277,2.644-13.49,0.218c-1.122,2.569-2.044,7.043-0.591,9.797
				c5.754,2.487,11.432,3.012,14.843,1.258c0.018-0.012,0.039-0.026,0.057-0.038c0.404,4.386,0.802,8.262,0.781,8.127
				c0.053,1.623,1.135,6.729,0.834,11.728c-0.216,3.595-2.009,7.839-2.009,7.839s10.339,14.917,24.674,10.569
				c0,0,1.64-22.79,0.406-35.092c0.794,3.02,1.067,4.522,1.824,7.282c2.515,0.29,5.779-1.735,7.451-4.833
				C411.634,254.381,408.173,238.085,404.185,235.703z"/>
		</g>
		<g>
			<g>
				<g>
					<path style="fill:#41B4E6;" d="M323.096,407.259l34.812-104.537c0.013-0.039,0.033-0.099,0.082-0.15v-5.177
						c-2.273,0.104-4.197,1.546-4.919,3.716l-35.349,106.148H323.096z"/>
				</g>
				<g>
					<path style="fill:#73C8F0;" d="M404.116,407.259L363.34,300.883c-0.713-1.858-2.307-3.129-4.209-3.431v6.698l39.523,103.11
						H404.116z"/>
				</g>
			</g>
			<g>
				<path style="fill:#41B4E6;" d="M361.282,301.397c0,2.9-1.244,5.251-2.778,5.251c-1.534,0-2.778-2.351-2.778-5.251
					c0-2.9,1.244-5.251,2.778-5.251C360.038,296.146,361.282,298.497,361.282,301.397z"/>
			</g>
		</g>
	</g>
</g>
<g id="DESIGNED_BY_FREEPIK">
	<g id="XMLID_1_">
		<g id="XMLID_63814_">
			<path id="XMLID_63815_" style="fill:#87AFB9;" d="M175.683,484.601v-0.172c-0.232,0.266-0.461,0.483-0.687,0.648
				c-0.225,0.168-0.471,0.294-0.734,0.38c-0.264,0.089-0.551,0.13-0.864,0.13c-0.414,0-0.797-0.087-1.149-0.262
				c-0.352-0.176-0.657-0.426-0.914-0.751c-0.258-0.324-0.453-0.705-0.586-1.145c-0.133-0.439-0.199-0.914-0.199-1.424
				c0-1.08,0.264-1.923,0.791-2.527c0.527-0.603,1.222-0.905,2.083-0.905c0.498,0,0.918,0.086,1.259,0.257
				c0.342,0.171,0.675,0.435,1,0.788v-2.55c0-0.355,0.07-0.622,0.212-0.805c0.141-0.181,0.342-0.272,0.604-0.272
				c0.262,0,0.463,0.083,0.604,0.25c0.142,0.168,0.212,0.413,0.212,0.738v7.622c0,0.329-0.076,0.575-0.228,0.741
				c-0.152,0.164-0.348,0.246-0.589,0.246c-0.236,0-0.432-0.085-0.586-0.255C175.76,485.161,175.683,484.918,175.683,484.601z
				 M172.284,482.063c0,0.469,0.073,0.867,0.218,1.196c0.146,0.329,0.345,0.577,0.598,0.743c0.253,0.167,0.53,0.251,0.829,0.251
				c0.304,0,0.581-0.079,0.833-0.238c0.251-0.158,0.451-0.401,0.601-0.728c0.15-0.327,0.225-0.737,0.225-1.225
				c0-0.461-0.075-0.856-0.225-1.188c-0.15-0.331-0.352-0.583-0.608-0.759c-0.255-0.174-0.535-0.262-0.839-0.262
				c-0.316,0-0.599,0.09-0.848,0.268c-0.249,0.18-0.442,0.436-0.579,0.772C172.352,481.23,172.284,481.619,172.284,482.063z"/>
			<path id="XMLID_63818_" style="fill:#87AFB9;" d="M183.303,482.5h-3.38c0.004,0.392,0.083,0.738,0.238,1.038
				c0.154,0.299,0.359,0.526,0.614,0.677c0.255,0.152,0.537,0.228,0.845,0.228c0.207,0,0.395-0.023,0.567-0.072
				c0.171-0.049,0.337-0.125,0.497-0.229c0.161-0.103,0.308-0.214,0.443-0.332c0.135-0.118,0.309-0.28,0.525-0.482
				c0.089-0.076,0.215-0.115,0.381-0.115c0.177,0,0.32,0.049,0.43,0.147c0.11,0.098,0.165,0.233,0.165,0.411
				c0,0.156-0.062,0.337-0.184,0.547c-0.123,0.21-0.308,0.41-0.554,0.601c-0.248,0.193-0.557,0.352-0.931,0.478
				c-0.373,0.128-0.802,0.19-1.288,0.19c-1.109,0-1.973-0.316-2.589-0.949c-0.616-0.633-0.924-1.492-0.924-2.576
				c0-0.511,0.076-0.985,0.228-1.421c0.152-0.437,0.374-0.811,0.665-1.123c0.291-0.312,0.65-0.552,1.076-0.718
				c0.426-0.167,0.899-0.25,1.418-0.25c0.675,0,1.254,0.142,1.737,0.427c0.484,0.285,0.846,0.653,1.086,1.104
				c0.24,0.452,0.361,0.913,0.361,1.38c0,0.436-0.125,0.717-0.373,0.846C184.106,482.435,183.755,482.5,183.303,482.5z
				 M179.923,481.519h3.134c-0.042-0.591-0.202-1.033-0.478-1.326c-0.277-0.294-0.64-0.44-1.092-0.44
				c-0.431,0-0.784,0.148-1.06,0.445C180.15,480.496,179.983,480.936,179.923,481.519z"/>
			<path id="XMLID_63821_" style="fill:#87AFB9;" d="M191.178,483.328c0,0.476-0.115,0.885-0.348,1.225
				c-0.232,0.34-0.575,0.598-1.029,0.773c-0.453,0.174-1.005,0.262-1.655,0.262c-0.62,0-1.152-0.095-1.595-0.285
				c-0.443-0.189-0.77-0.427-0.981-0.711c-0.211-0.286-0.317-0.571-0.317-0.859c0-0.19,0.067-0.351,0.203-0.487
				c0.135-0.134,0.306-0.202,0.513-0.202c0.181,0,0.32,0.044,0.417,0.133c0.097,0.089,0.19,0.214,0.278,0.372
				c0.177,0.31,0.39,0.538,0.637,0.691c0.247,0.151,0.583,0.228,1.01,0.228c0.346,0,0.63-0.078,0.851-0.232
				c0.221-0.155,0.332-0.331,0.332-0.529c0-0.305-0.115-0.525-0.345-0.664c-0.23-0.139-0.609-0.273-1.136-0.4
				c-0.595-0.147-1.079-0.303-1.453-0.466c-0.374-0.161-0.672-0.376-0.896-0.642c-0.223-0.266-0.335-0.594-0.335-0.982
				c0-0.345,0.103-0.673,0.31-0.982c0.207-0.307,0.512-0.553,0.915-0.737c0.402-0.184,0.888-0.276,1.458-0.276
				c0.448,0,0.85,0.047,1.206,0.141c0.357,0.091,0.655,0.217,0.893,0.374c0.239,0.155,0.42,0.328,0.544,0.518
				c0.124,0.19,0.186,0.375,0.186,0.557c0,0.198-0.066,0.361-0.199,0.488c-0.133,0.125-0.322,0.19-0.567,0.19
				c-0.177,0-0.328-0.051-0.452-0.154c-0.124-0.1-0.267-0.253-0.427-0.454c-0.131-0.169-0.284-0.305-0.462-0.406
				c-0.177-0.102-0.418-0.151-0.722-0.151c-0.312,0-0.571,0.065-0.778,0.199c-0.207,0.133-0.31,0.298-0.31,0.496
				c0,0.182,0.076,0.331,0.227,0.447c0.152,0.117,0.357,0.214,0.615,0.289c0.257,0.076,0.611,0.168,1.063,0.277
				c0.535,0.132,0.973,0.288,1.313,0.469c0.339,0.181,0.597,0.396,0.773,0.643C191.09,482.731,191.178,483.012,191.178,483.328z"/>
			<path id="XMLID_63823_" style="fill:#87AFB9;" d="M192.943,477.758c-0.241,0-0.446-0.074-0.617-0.221
				c-0.171-0.147-0.256-0.357-0.256-0.627c0-0.245,0.088-0.445,0.263-0.604c0.175-0.159,0.379-0.238,0.611-0.238
				c0.224,0,0.422,0.072,0.595,0.216c0.173,0.143,0.26,0.352,0.26,0.626c0,0.267-0.085,0.474-0.254,0.624
				C193.376,477.683,193.175,477.758,192.943,477.758z M193.798,479.543v4.995c0,0.346-0.082,0.608-0.247,0.785
				c-0.165,0.177-0.373,0.266-0.627,0.266c-0.253,0-0.459-0.09-0.617-0.272c-0.158-0.181-0.237-0.441-0.237-0.778v-4.944
				c0-0.341,0.079-0.599,0.237-0.772c0.158-0.173,0.364-0.26,0.617-0.26c0.254,0,0.462,0.087,0.627,0.26
				C193.716,478.995,193.798,479.236,193.798,479.543z"/>
			<path id="XMLID_63826_" style="fill:#87AFB9;" d="M201.368,479.828v5.019c0,0.574-0.062,1.069-0.185,1.483
				c-0.121,0.413-0.318,0.755-0.588,1.024c-0.27,0.27-0.623,0.471-1.06,0.601c-0.437,0.132-0.98,0.197-1.63,0.197
				c-0.595,0-1.127-0.083-1.595-0.25c-0.468-0.168-0.829-0.383-1.082-0.646c-0.253-0.264-0.38-0.535-0.38-0.814
				c0-0.211,0.072-0.384,0.216-0.516c0.143-0.134,0.317-0.2,0.519-0.2c0.253,0,0.475,0.112,0.665,0.336
				c0.092,0.113,0.188,0.229,0.288,0.345c0.099,0.117,0.21,0.216,0.329,0.298c0.12,0.082,0.265,0.143,0.434,0.184
				c0.169,0.039,0.363,0.06,0.583,0.06c0.447,0,0.795-0.062,1.042-0.187c0.247-0.124,0.42-0.298,0.519-0.522
				c0.099-0.223,0.157-0.462,0.174-0.719c0.017-0.255,0.029-0.665,0.038-1.231c-0.266,0.372-0.572,0.655-0.921,0.849
				c-0.348,0.194-0.763,0.292-1.243,0.292c-0.578,0-1.083-0.148-1.516-0.444c-0.432-0.296-0.765-0.708-0.996-1.241
				c-0.232-0.532-0.348-1.145-0.348-1.842c0-0.518,0.07-0.988,0.212-1.405c0.142-0.419,0.343-0.771,0.605-1.058
				c0.262-0.286,0.563-0.503,0.905-0.648c0.342-0.146,0.717-0.219,1.127-0.219c0.489,0,0.913,0.095,1.272,0.281
				c0.358,0.189,0.692,0.483,1,0.884v-0.234c0-0.299,0.074-0.531,0.221-0.696c0.148-0.164,0.338-0.247,0.57-0.247
				c0.333,0,0.554,0.109,0.664,0.327C201.313,479.106,201.368,479.419,201.368,479.828z M196.361,482.019
				c0,0.7,0.153,1.23,0.459,1.588c0.306,0.359,0.702,0.539,1.187,0.539c0.287,0,0.558-0.078,0.813-0.232
				c0.256-0.154,0.463-0.387,0.624-0.697c0.16-0.31,0.24-0.686,0.24-1.13c0-0.704-0.155-1.254-0.465-1.645
				c-0.31-0.392-0.719-0.588-1.225-0.588c-0.494,0-0.889,0.187-1.187,0.564C196.509,480.793,196.361,481.326,196.361,482.019z"/>
			<path id="XMLID_63829_" style="fill:#87AFB9;" d="M204.115,479.518v0.208c0.303-0.401,0.636-0.695,0.997-0.883
				c0.361-0.187,0.775-0.282,1.244-0.282c0.456,0,0.863,0.1,1.222,0.298c0.358,0.199,0.627,0.479,0.804,0.841
				c0.114,0.212,0.188,0.44,0.221,0.685c0.034,0.245,0.051,0.557,0.051,0.937v3.215c0,0.346-0.079,0.608-0.238,0.785
				c-0.158,0.177-0.364,0.266-0.617,0.266c-0.258,0-0.466-0.09-0.627-0.272c-0.161-0.181-0.24-0.441-0.24-0.778v-2.881
				c0-0.569-0.079-1.005-0.238-1.307c-0.159-0.301-0.473-0.453-0.947-0.453c-0.307,0-0.588,0.092-0.842,0.276
				c-0.253,0.184-0.439,0.436-0.557,0.756c-0.084,0.258-0.127,0.738-0.127,1.444v2.165c0,0.35-0.082,0.613-0.243,0.789
				c-0.162,0.174-0.372,0.262-0.63,0.262c-0.25,0-0.454-0.09-0.614-0.272c-0.16-0.181-0.24-0.441-0.24-0.778v-4.995
				c0-0.329,0.072-0.575,0.215-0.738c0.143-0.161,0.34-0.243,0.588-0.243c0.152,0,0.29,0.036,0.412,0.108
				c0.122,0.073,0.22,0.18,0.294,0.323C204.078,479.135,204.115,479.311,204.115,479.518z"/>
			<path id="XMLID_63831_" style="fill:#87AFB9;" d="M214.628,482.5h-3.38c0.005,0.392,0.083,0.738,0.238,1.038
				c0.154,0.299,0.358,0.526,0.614,0.677c0.255,0.152,0.537,0.228,0.844,0.228c0.207,0,0.396-0.023,0.567-0.072
				c0.17-0.049,0.336-0.125,0.497-0.229c0.16-0.103,0.307-0.214,0.443-0.332c0.134-0.118,0.309-0.28,0.525-0.482
				c0.089-0.076,0.215-0.115,0.38-0.115c0.177,0,0.321,0.049,0.43,0.147c0.11,0.098,0.164,0.233,0.164,0.411
				c0,0.156-0.061,0.337-0.184,0.547s-0.307,0.41-0.554,0.601c-0.247,0.193-0.557,0.352-0.93,0.478
				c-0.374,0.128-0.803,0.19-1.288,0.19c-1.11,0-1.973-0.316-2.589-0.949c-0.616-0.633-0.924-1.492-0.924-2.576
				c0-0.511,0.076-0.985,0.228-1.421c0.152-0.437,0.374-0.811,0.665-1.123c0.291-0.312,0.65-0.552,1.076-0.718
				c0.426-0.167,0.899-0.25,1.418-0.25c0.675,0,1.253,0.142,1.737,0.427c0.484,0.285,0.846,0.653,1.086,1.104
				c0.24,0.452,0.361,0.913,0.361,1.38c0,0.436-0.124,0.717-0.374,0.846C215.43,482.435,215.08,482.5,214.628,482.5z
				 M211.248,481.519h3.133c-0.042-0.591-0.201-1.033-0.478-1.326c-0.276-0.294-0.64-0.44-1.092-0.44
				c-0.431,0-0.785,0.148-1.061,0.445C211.474,480.496,211.307,480.936,211.248,481.519z"/>
			<path id="XMLID_63834_" style="fill:#87AFB9;" d="M221.672,484.601v-0.172c-0.232,0.266-0.461,0.483-0.687,0.648
				c-0.226,0.168-0.47,0.294-0.734,0.38c-0.263,0.089-0.551,0.13-0.864,0.13c-0.414,0-0.797-0.087-1.149-0.262
				c-0.352-0.176-0.657-0.426-0.915-0.751c-0.258-0.324-0.453-0.705-0.585-1.145c-0.133-0.439-0.2-0.914-0.2-1.424
				c0-1.08,0.264-1.923,0.791-2.527c0.527-0.603,1.222-0.905,2.083-0.905c0.498,0,0.918,0.086,1.26,0.257
				c0.342,0.171,0.675,0.435,1,0.788v-2.55c0-0.355,0.071-0.622,0.213-0.805c0.141-0.181,0.343-0.272,0.605-0.272
				c0.261,0,0.463,0.083,0.604,0.25c0.141,0.168,0.212,0.413,0.212,0.738v7.622c0,0.329-0.076,0.575-0.228,0.741
				c-0.152,0.164-0.348,0.246-0.589,0.246c-0.236,0-0.432-0.085-0.586-0.255C221.75,485.161,221.672,484.918,221.672,484.601z
				 M218.274,482.063c0,0.469,0.072,0.867,0.218,1.196c0.146,0.329,0.345,0.577,0.599,0.743c0.253,0.167,0.529,0.251,0.829,0.251
				c0.304,0,0.582-0.079,0.832-0.238c0.251-0.158,0.452-0.401,0.601-0.728c0.15-0.327,0.225-0.737,0.225-1.225
				c0-0.461-0.075-0.856-0.225-1.188c-0.149-0.331-0.352-0.583-0.607-0.759c-0.256-0.174-0.535-0.262-0.839-0.262
				c-0.316,0-0.599,0.09-0.848,0.268c-0.249,0.18-0.442,0.436-0.579,0.772C218.342,481.23,218.274,481.619,218.274,482.063z"/>
			<path id="XMLID_63837_" style="fill:#87AFB9;" d="M228.736,476.98v2.639c0.325-0.337,0.656-0.596,0.994-0.775
				c0.337-0.18,0.756-0.27,1.253-0.27c0.574,0,1.077,0.137,1.51,0.408c0.432,0.273,0.767,0.668,1.006,1.185
				c0.238,0.517,0.358,1.13,0.358,1.839c0,0.523-0.067,1.002-0.2,1.44c-0.133,0.437-0.326,0.816-0.579,1.136
				c-0.253,0.32-0.56,0.569-0.921,0.745c-0.361,0.174-0.759,0.262-1.193,0.262c-0.266,0-0.516-0.031-0.75-0.095
				c-0.235-0.063-0.434-0.146-0.598-0.25c-0.164-0.103-0.305-0.21-0.421-0.319c-0.116-0.109-0.27-0.275-0.459-0.495v0.172
				c0,0.324-0.078,0.57-0.234,0.738c-0.156,0.167-0.354,0.249-0.595,0.249c-0.245,0-0.44-0.082-0.585-0.249
				c-0.146-0.168-0.218-0.414-0.218-0.738v-7.546c0-0.35,0.071-0.616,0.212-0.794c0.141-0.18,0.339-0.269,0.592-0.269
				c0.266,0,0.471,0.086,0.614,0.256C228.664,476.42,228.736,476.662,228.736,476.98z M228.818,482.114
				c0,0.687,0.157,1.216,0.472,1.584c0.314,0.37,0.727,0.556,1.238,0.556c0.434,0,0.809-0.189,1.123-0.568
				c0.314-0.378,0.471-0.919,0.471-1.623c0-0.456-0.065-0.849-0.196-1.178c-0.131-0.329-0.316-0.583-0.557-0.763
				c-0.241-0.178-0.522-0.268-0.842-0.268c-0.329,0-0.623,0.09-0.88,0.268c-0.257,0.18-0.46,0.439-0.608,0.778
				C228.892,481.24,228.818,481.645,228.818,482.114z"/>
			<path id="XMLID_63840_" style="fill:#87AFB9;" d="M236.098,485.804l0.158-0.387l-2.127-5.355
				c-0.13-0.307-0.196-0.533-0.196-0.672c0-0.147,0.038-0.284,0.114-0.41c0.076-0.128,0.18-0.229,0.313-0.305
				c0.133-0.077,0.271-0.115,0.415-0.115c0.249,0,0.436,0.079,0.564,0.238c0.127,0.158,0.238,0.384,0.335,0.679l1.462,4.254
				l1.386-3.956c0.109-0.32,0.209-0.571,0.297-0.754c0.089-0.181,0.182-0.303,0.282-0.366c0.099-0.064,0.239-0.096,0.421-0.096
				c0.131,0,0.256,0.035,0.377,0.105c0.12,0.069,0.213,0.163,0.278,0.281c0.065,0.118,0.099,0.242,0.099,0.374
				c-0.018,0.079-0.044,0.194-0.083,0.342c-0.038,0.147-0.084,0.298-0.139,0.449l-2.254,5.899c-0.195,0.519-0.384,0.926-0.57,1.221
				c-0.186,0.296-0.431,0.523-0.737,0.681c-0.306,0.159-0.719,0.238-1.238,0.238c-0.506,0-0.886-0.055-1.139-0.164
				c-0.254-0.111-0.38-0.311-0.38-0.603c0-0.198,0.06-0.351,0.181-0.458c0.12-0.108,0.298-0.163,0.534-0.163
				c0.093,0,0.184,0.013,0.273,0.039c0.11,0.025,0.204,0.038,0.284,0.038c0.198,0,0.355-0.029,0.469-0.089
				c0.114-0.059,0.216-0.161,0.307-0.307C235.875,486.301,235.979,486.087,236.098,485.804z"/>
		</g>
		<g id="XMLID_63842_">
			<path id="XMLID_63843_" style="fill:#87AFB9;" d="M261.132,478.711h0.413v-0.518c0-0.543,0.066-0.971,0.204-1.291
				c0.135-0.319,0.37-0.551,0.698-0.696c0.327-0.145,0.775-0.217,1.343-0.217c1.013,0,1.515,0.245,1.515,0.742
				c0,0.159-0.053,0.297-0.16,0.41c-0.103,0.113-0.229,0.17-0.372,0.17c-0.066,0-0.185-0.012-0.352-0.039
				c-0.158-0.022-0.301-0.038-0.415-0.038c-0.311,0-0.51,0.094-0.603,0.277c-0.085,0.184-0.13,0.445-0.13,0.789v0.411h0.422
				c0.66,0,0.987,0.198,0.987,0.598c0,0.279-0.085,0.46-0.262,0.536c-0.174,0.076-0.415,0.113-0.725,0.113h-0.422v4.579
				c0,0.341-0.081,0.6-0.246,0.778c-0.161,0.182-0.37,0.271-0.629,0.271c-0.245,0-0.447-0.089-0.612-0.271
				c-0.163-0.178-0.242-0.437-0.242-0.778v-4.579h-0.476c-0.259,0-0.454-0.056-0.595-0.174c-0.139-0.113-0.21-0.266-0.21-0.452
				C260.264,478.917,260.553,478.711,261.132,478.711"/>
			<path id="XMLID_63844_" style="fill:#87AFB9;" d="M266.79,483.093v1.445c0,0.349-0.089,0.613-0.25,0.786
				c-0.164,0.177-0.372,0.263-0.625,0.263c-0.254,0-0.458-0.087-0.617-0.267c-0.157-0.176-0.241-0.437-0.241-0.782v-4.814
				c0-0.777,0.28-1.165,0.841-1.165c0.289,0,0.495,0.09,0.622,0.272c0.126,0.182,0.197,0.449,0.211,0.804
				c0.206-0.355,0.417-0.622,0.633-0.804c0.221-0.182,0.508-0.272,0.872-0.272c0.366,0,0.715,0.09,1.057,0.272
				c0.344,0.182,0.514,0.424,0.514,0.723c0,0.21-0.074,0.387-0.217,0.521c-0.147,0.139-0.303,0.208-0.471,0.208
				c-0.066,0-0.22-0.042-0.461-0.12c-0.243-0.076-0.459-0.116-0.642-0.116c-0.254,0-0.462,0.069-0.621,0.199
				c-0.161,0.137-0.288,0.331-0.376,0.591c-0.086,0.263-0.146,0.577-0.182,0.936C266.805,482.133,266.79,482.575,266.79,483.093"/>
			<path id="XMLID_63845_" style="fill:#87AFB9;" d="M274.735,482.498h-3.382c0.007,0.392,0.083,0.741,0.237,1.039
				c0.156,0.298,0.359,0.525,0.616,0.678c0.257,0.151,0.536,0.227,0.846,0.227c0.207,0,0.394-0.022,0.566-0.074
				c0.169-0.047,0.336-0.124,0.496-0.228c0.161-0.102,0.307-0.212,0.443-0.333c0.135-0.116,0.311-0.277,0.527-0.479
				c0.09-0.076,0.216-0.116,0.379-0.116c0.178,0,0.32,0.049,0.432,0.148c0.111,0.098,0.163,0.233,0.163,0.411
				c0,0.156-0.06,0.338-0.178,0.545c-0.125,0.212-0.309,0.411-0.557,0.604c-0.25,0.19-0.56,0.352-0.932,0.476
				c-0.372,0.126-0.803,0.19-1.287,0.19c-1.113,0-1.975-0.315-2.59-0.948c-0.616-0.634-0.927-1.494-0.927-2.577
				c0-0.512,0.078-0.986,0.232-1.423c0.15-0.439,0.371-0.811,0.665-1.125c0.29-0.314,0.647-0.552,1.075-0.719
				c0.424-0.167,0.897-0.25,1.417-0.25c0.674,0,1.254,0.143,1.738,0.431c0.482,0.281,0.849,0.651,1.086,1.103
				c0.241,0.453,0.361,0.911,0.361,1.382c0,0.432-0.125,0.713-0.374,0.844C275.537,482.434,275.186,482.498,274.735,482.498
				 M271.353,481.515h3.133c-0.042-0.59-0.198-1.032-0.475-1.324c-0.279-0.294-0.639-0.44-1.093-0.44
				c-0.431,0-0.785,0.147-1.061,0.447C271.581,480.495,271.412,480.933,271.353,481.515"/>
			<path id="XMLID_63848_" style="fill:#87AFB9;" d="M281.924,482.498h-3.381c0.004,0.392,0.083,0.741,0.236,1.039
				c0.155,0.298,0.359,0.525,0.615,0.678c0.255,0.151,0.536,0.227,0.847,0.227c0.204,0,0.394-0.022,0.562-0.074
				c0.173-0.047,0.337-0.124,0.5-0.228c0.161-0.102,0.307-0.212,0.443-0.333c0.133-0.116,0.31-0.277,0.526-0.479
				c0.09-0.076,0.217-0.116,0.379-0.116c0.178,0,0.322,0.049,0.434,0.148c0.109,0.098,0.16,0.233,0.16,0.411
				c0,0.156-0.059,0.338-0.182,0.545c-0.118,0.212-0.303,0.411-0.553,0.604c-0.247,0.19-0.56,0.352-0.931,0.476
				c-0.371,0.126-0.804,0.19-1.289,0.19c-1.112,0-1.972-0.315-2.59-0.948c-0.616-0.634-0.926-1.494-0.926-2.577
				c0-0.512,0.077-0.986,0.232-1.423c0.151-0.439,0.372-0.811,0.664-1.125c0.29-0.314,0.648-0.552,1.075-0.719
				c0.426-0.167,0.901-0.25,1.419-0.25c0.673,0,1.252,0.143,1.742,0.431c0.48,0.281,0.843,0.651,1.08,1.103
				c0.24,0.453,0.363,0.911,0.363,1.382c0,0.432-0.127,0.713-0.374,0.844C282.725,482.434,282.374,482.498,281.924,482.498
				 M278.544,481.515h3.133c-0.043-0.59-0.203-1.032-0.476-1.324c-0.281-0.294-0.642-0.44-1.095-0.44
				c-0.431,0-0.784,0.147-1.062,0.447C278.769,480.495,278.6,480.933,278.544,481.515"/>
			<path id="XMLID_63851_" style="fill:#87AFB9;" d="M285.71,479.531v0.207c0.324-0.401,0.663-0.695,1.017-0.883
				c0.345-0.19,0.745-0.285,1.187-0.285c0.53,0,1.023,0.139,1.471,0.411c0.448,0.276,0.799,0.677,1.06,1.204
				c0.259,0.53,0.391,1.153,0.391,1.876c0,0.53-0.076,1.021-0.224,1.467c-0.15,0.445-0.358,0.818-0.62,1.12
				c-0.262,0.299-0.57,0.534-0.926,0.696c-0.362,0.161-0.741,0.242-1.152,0.242c-0.492,0-0.909-0.099-1.243-0.298
				c-0.334-0.194-0.655-0.488-0.961-0.87v2.594c0,0.756-0.277,1.139-0.829,1.139c-0.327,0-0.539-0.098-0.647-0.293
				c-0.102-0.199-0.156-0.482-0.156-0.86v-7.46c0-0.329,0.072-0.573,0.213-0.738c0.143-0.159,0.341-0.242,0.59-0.242
				c0.246,0,0.444,0.083,0.598,0.249C285.634,478.977,285.71,479.215,285.71,479.531 M289.098,482.042
				c0-0.457-0.07-0.849-0.21-1.175c-0.139-0.328-0.332-0.578-0.577-0.751c-0.245-0.176-0.522-0.264-0.821-0.264
				c-0.476,0-0.879,0.189-1.205,0.562c-0.328,0.378-0.493,0.929-0.493,1.661c0,0.685,0.163,1.222,0.491,1.604
				c0.324,0.383,0.724,0.573,1.208,0.573c0.285,0,0.553-0.085,0.798-0.249c0.247-0.168,0.443-0.418,0.588-0.751
				C289.024,482.917,289.098,482.513,289.098,482.042"/>
			<path id="XMLID_63854_" style="fill:#87AFB9;" d="M292.575,477.754c-0.242,0-0.447-0.077-0.616-0.224
				c-0.173-0.148-0.258-0.354-0.258-0.623c0-0.246,0.087-0.447,0.264-0.607c0.174-0.156,0.378-0.237,0.609-0.237
				c0.227,0,0.423,0.07,0.595,0.212c0.173,0.146,0.26,0.357,0.26,0.631c0,0.265-0.085,0.474-0.251,0.623
				C293.009,477.678,292.809,477.754,292.575,477.754 M293.43,479.539v5c0,0.344-0.082,0.605-0.246,0.781
				c-0.167,0.18-0.374,0.267-0.627,0.267c-0.254,0-0.457-0.089-0.618-0.271c-0.156-0.184-0.237-0.443-0.237-0.777v-4.95
				c0-0.34,0.081-0.596,0.237-0.769c0.161-0.176,0.365-0.26,0.618-0.26c0.254,0,0.461,0.085,0.627,0.26
				C293.348,478.992,293.43,479.234,293.43,479.539"/>
			<path id="XMLID_63857_" style="fill:#87AFB9;" d="M299.001,484.798l-1.522-2.51l-0.939,0.885v1.377
				c0,0.332-0.089,0.587-0.264,0.765c-0.172,0.182-0.377,0.271-0.604,0.271c-0.266,0-0.476-0.087-0.627-0.267
				c-0.151-0.176-0.229-0.437-0.229-0.782v-7.373c0-0.383,0.077-0.674,0.221-0.876c0.148-0.203,0.363-0.301,0.635-0.301
				c0.266,0,0.475,0.091,0.633,0.273c0.156,0.181,0.236,0.449,0.236,0.802v4.194l1.943-2.041c0.241-0.251,0.422-0.427,0.551-0.519
				c0.126-0.092,0.28-0.138,0.459-0.138c0.217,0,0.396,0.069,0.544,0.206c0.141,0.137,0.213,0.31,0.213,0.516
				c0,0.253-0.236,0.592-0.703,1.014l-0.918,0.841l1.772,2.788c0.129,0.208,0.227,0.362,0.283,0.47
				c0.056,0.107,0.087,0.214,0.087,0.309c0,0.275-0.077,0.49-0.228,0.65c-0.15,0.158-0.349,0.236-0.59,0.236
				c-0.211,0-0.376-0.053-0.489-0.17C299.353,485.302,299.195,485.095,299.001,484.798"/>
			<path id="XMLID_63858_" style="fill:#87AFB9;" d="M302.758,485.587c-0.262,0-0.485-0.083-0.676-0.254
				c-0.19-0.165-0.286-0.404-0.286-0.71c0-0.257,0.092-0.479,0.273-0.663c0.184-0.186,0.405-0.28,0.672-0.28
				c0.266,0,0.491,0.094,0.682,0.275c0.186,0.183,0.281,0.409,0.281,0.668c0,0.302-0.095,0.539-0.281,0.707
				C303.232,485.503,303.01,485.587,302.758,485.587"/>
			<path id="XMLID_63859_" style="fill:#87AFB9;" d="M311.354,483.448c0,0.214-0.065,0.445-0.194,0.689
				c-0.128,0.247-0.325,0.479-0.591,0.7c-0.263,0.221-0.594,0.401-0.996,0.535c-0.401,0.135-0.854,0.204-1.354,0.204
				c-1.07,0-1.904-0.312-2.504-0.933c-0.596-0.624-0.897-1.459-0.897-2.506c0-0.712,0.137-1.337,0.413-1.882
				c0.272-0.543,0.669-0.965,1.187-1.263c0.519-0.298,1.144-0.446,1.863-0.446c0.449,0,0.858,0.065,1.234,0.197
				c0.374,0.13,0.689,0.301,0.95,0.506c0.258,0.21,0.457,0.428,0.592,0.661c0.138,0.234,0.206,0.453,0.206,0.657
				c0,0.206-0.076,0.381-0.229,0.525c-0.156,0.143-0.344,0.216-0.558,0.216c-0.146,0-0.266-0.038-0.361-0.111
				c-0.096-0.074-0.203-0.193-0.319-0.36c-0.212-0.319-0.431-0.561-0.664-0.72c-0.229-0.161-0.521-0.241-0.876-0.241
				c-0.508,0-0.922,0.198-1.235,0.597c-0.311,0.397-0.469,0.946-0.469,1.636c0,0.325,0.042,0.626,0.122,0.898
				c0.078,0.271,0.194,0.504,0.346,0.695c0.154,0.191,0.336,0.337,0.551,0.436c0.216,0.103,0.454,0.151,0.709,0.151
				c0.348,0,0.644-0.081,0.89-0.241c0.251-0.16,0.469-0.405,0.657-0.734c0.105-0.194,0.219-0.345,0.34-0.456
				c0.121-0.109,0.272-0.167,0.45-0.167c0.211,0,0.387,0.082,0.523,0.242C311.283,483.095,311.354,483.267,311.354,483.448"/>
			<path id="XMLID_63860_" style="fill:#87AFB9;" d="M318.812,482.075c0,0.513-0.081,0.989-0.237,1.425
				c-0.164,0.435-0.394,0.808-0.699,1.118c-0.303,0.312-0.668,0.552-1.088,0.72c-0.426,0.165-0.9,0.25-1.425,0.25
				c-0.523,0-0.994-0.085-1.414-0.255c-0.415-0.165-0.78-0.409-1.083-0.721c-0.307-0.318-0.539-0.689-0.702-1.117
				c-0.152-0.43-0.233-0.904-0.233-1.42c0-0.525,0.082-1.004,0.238-1.438c0.161-0.436,0.393-0.808,0.693-1.116
				c0.301-0.307,0.663-0.544,1.087-0.713c0.43-0.165,0.899-0.249,1.414-0.249c0.523,0,0.999,0.083,1.425,0.254
				c0.426,0.168,0.789,0.41,1.096,0.72c0.305,0.316,0.535,0.686,0.693,1.114C318.732,481.08,318.812,481.553,318.812,482.075
				 M317.077,482.075c0-0.706-0.156-1.254-0.465-1.645c-0.309-0.397-0.726-0.592-1.25-0.592c-0.338,0-0.636,0.089-0.894,0.263
				c-0.258,0.174-0.454,0.432-0.594,0.776c-0.139,0.342-0.21,0.742-0.21,1.199c0,0.452,0.068,0.845,0.206,1.182
				c0.139,0.34,0.335,0.597,0.591,0.777c0.256,0.177,0.556,0.27,0.901,0.27c0.523,0,0.941-0.198,1.25-0.595
				C316.921,483.315,317.077,482.769,317.077,482.075"/>
			<path id="XMLID_63863_" style="fill:#87AFB9;" d="M325.405,482.201v2.298c0,0.365-0.081,0.634-0.246,0.818
				c-0.167,0.182-0.381,0.272-0.652,0.272c-0.262,0-0.475-0.09-0.634-0.272c-0.164-0.184-0.247-0.453-0.247-0.818v-2.753
				c0-0.436-0.014-0.775-0.043-1.017c-0.03-0.236-0.112-0.436-0.241-0.588c-0.132-0.156-0.34-0.234-0.621-0.234
				c-0.566,0-0.937,0.194-1.117,0.587c-0.178,0.384-0.271,0.942-0.271,1.671v2.334c0,0.358-0.082,0.63-0.241,0.815
				c-0.167,0.182-0.379,0.275-0.643,0.275c-0.264,0-0.478-0.092-0.644-0.275c-0.168-0.185-0.251-0.457-0.251-0.815v-4.945
				c0-0.326,0.074-0.573,0.224-0.741c0.152-0.171,0.35-0.254,0.592-0.254c0.238,0,0.435,0.082,0.595,0.237
				c0.158,0.159,0.236,0.378,0.236,0.656v0.163c0.302-0.357,0.624-0.621,0.963-0.786c0.344-0.173,0.721-0.258,1.142-0.258
				c0.433,0,0.807,0.087,1.118,0.26c0.312,0.173,0.569,0.436,0.773,0.784c0.293-0.352,0.605-0.614,0.94-0.786
				c0.333-0.172,0.702-0.258,1.108-0.258c0.47,0,0.88,0.095,1.222,0.28c0.34,0.185,0.595,0.453,0.764,0.797
				c0.147,0.315,0.22,0.806,0.22,1.477v3.374c0,0.365-0.081,0.634-0.245,0.818c-0.164,0.182-0.383,0.272-0.652,0.272
				c-0.263,0-0.476-0.092-0.643-0.275c-0.167-0.185-0.251-0.457-0.251-0.815v-2.907c0-0.372-0.016-0.669-0.046-0.892
				c-0.031-0.225-0.119-0.414-0.255-0.565c-0.142-0.151-0.354-0.229-0.635-0.229c-0.228,0-0.444,0.072-0.65,0.206
				c-0.204,0.131-0.365,0.318-0.48,0.542C325.47,480.945,325.405,481.462,325.405,482.201"/>
		</g>
		<g id="XMLID_63864_">
			<path id="XMLID_63865_" style="fill:#87AFB9;" d="M244.958,481.656c-0.001-0.003-0.001-0.007-0.001-0.012
				C244.957,481.649,244.957,481.653,244.958,481.656z"/>
			<path id="XMLID_63866_" style="fill:#87AFB9;" d="M245.046,482.209c0.001,0,0.001,0,0.001,0
				c-0.032-0.158-0.058-0.314-0.078-0.469C244.989,481.896,245.014,482.053,245.046,482.209z"/>
			<path id="XMLID_63867_" style="fill:#87AFB9;" d="M245.618,483.813c-0.004-0.007-0.007-0.014-0.011-0.022
				C245.61,483.798,245.614,483.806,245.618,483.813z"/>
			<path id="XMLID_63868_" style="fill:#87AFB9;" d="M245.563,483.706c-0.015-0.03-0.029-0.06-0.044-0.09
				C245.534,483.647,245.548,483.676,245.563,483.706z"/>
			<path id="XMLID_63869_" style="fill:#87AFB9;" d="M245.206,482.826c0.085,0.267,0.187,0.526,0.305,0.772
				c-0.12-0.251-0.22-0.51-0.302-0.772C245.208,482.826,245.207,482.826,245.206,482.826z"/>
			<path id="XMLID_63870_" style="fill:#87AFB9;" d="M251.648,475.034c0.334,0,0.58,0.026,0.863,0.074l0.081-0.509
				c0,0-0.781-0.24-1.807-0.156l-0.081-0.276c0.319-0.068,0.558-0.352,0.558-0.69c0-0.388-0.316-0.702-0.704-0.702
				c-0.389,0-0.704,0.314-0.704,0.702c0,0.338,0.239,0.622,0.557,0.69l0.09,0.309c-1.09,0.15-1.957,0.574-1.957,0.574l0.154,0.47
				c0.659-0.219,1.23-0.353,1.749-0.409C250.955,475.057,251.337,475.034,251.648,475.034z"/>
			<path id="XMLID_63871_" style="fill:#87AFB9;" d="M245.605,477.605l0.004-0.005c0.026-0.033,0.051-0.064,0.076-0.095l-0.209-0.15
				l-0.325-0.238c-0.018,0.026-0.53,0.496-0.934,1.366c-0.017-0.027-0.037-0.055-0.06-0.079c-0.121-0.133-0.29-0.2-0.505-0.197
				c-0.003,0-0.006,0-0.01,0c-0.133,0-0.225-0.044-0.284-0.098c0.06-0.076,0.095-0.171,0.095-0.276c0-0.245-0.2-0.445-0.446-0.445
				c-0.246,0-0.445,0.201-0.445,0.445c0,0.247,0.2,0.447,0.445,0.447c0.039,0,0.076-0.007,0.111-0.014
				c0.11,0.122,0.283,0.228,0.538,0.223c0.131-0.001,0.227,0.033,0.292,0.104c0.074,0.081,0.099,0.197,0.107,0.285
				c-0.001,0.001-0.001,0.003-0.002,0.003c-0.29,0.793-0.207,1.779-0.207,1.779l0.704,0.029c0.014-0.359,0.066-0.988,0.248-1.487
				C245.147,478.235,245.587,477.631,245.605,477.605z"/>
			<path id="XMLID_63872_" style="fill:#87AFB9;" d="M257.779,475.622c-0.245,0-0.445,0.199-0.445,0.447
				c0,0.038,0.005,0.074,0.016,0.109c-0.122,0.111-0.229,0.285-0.225,0.54c0.003,0.131-0.031,0.226-0.103,0.292
				c-0.056,0.049-0.128,0.077-0.197,0.094c-0.525-0.735-1.17-1.183-1.17-1.183l-0.506,0.542c0.383,0.348,0.773,0.784,1.152,1.327
				c0.263,0.376,0.532,0.86,0.758,1.343l0.682-0.324c0,0-0.311-0.771-0.75-1.461c0.076-0.027,0.152-0.069,0.22-0.129
				c0.134-0.12,0.199-0.29,0.195-0.505c-0.001-0.138,0.044-0.232,0.099-0.294c0.077,0.059,0.172,0.095,0.275,0.095
				c0.247,0,0.447-0.199,0.447-0.445C258.225,475.821,258.026,475.622,257.779,475.622z"/>
			<path id="XMLID_63873_" style="fill:#87AFB9;" d="M256.008,481.756c-0.94,0.457-2.485,1.062-4.519,1.346
				c-0.799,0.111-1.573,0.151-2.285,0.151c-0.927,0-1.746-0.069-2.374-0.148c-0.717-0.09-1.278-0.201-1.621-0.279
				c0.082,0.262,0.182,0.521,0.302,0.772c0.002,0.007,0.005,0.014,0.008,0.018c0.014,0.03,0.029,0.06,0.044,0.09
				c0.014,0.029,0.029,0.057,0.043,0.085c0.004,0.008,0.007,0.016,0.011,0.022c0.202,0.38,0.444,0.729,0.72,1.032
				c0.96,1.049,1.938,1.216,1.947,1.217l0.015,0.001l0.014,0.005c0.009,0.004,0.876,0.284,2.193,0.284
				c1.297,0,2.57-0.262,3.781-0.779c0.898-0.46,1.748-1.157,2.169-1.779c0.325-0.482,0.561-0.995,0.7-1.528
				c0.074-0.284,0.133-0.738,0.098-1.217C256.991,481.227,256.573,481.48,256.008,481.756z"/>
			<path id="XMLID_63874_" style="fill:#87AFB9;" d="M245.906,477.827c-0.027,0.04-0.435,0.617-0.757,1.502
				c-0.241,0.663-0.23,1.628-0.23,1.639v0.003c0,0.227,0.013,0.45,0.038,0.673c0,0.005,0,0.009,0.001,0.012
				c0.003,0.029,0.008,0.056,0.01,0.085c0.02,0.155,0.046,0.311,0.079,0.469c0.467,0.118,3.251,0.768,6.363,0.335
				c1.951-0.272,3.433-0.849,4.332-1.285c0.747-0.362,1.228-0.69,1.412-0.825c-0.185-0.685-0.694-1.76-1.161-2.43
				c-1.337-1.91-2.778-2.399-3.517-2.521c-0.282-0.046-0.509-0.073-0.829-0.073c-0.298,0-0.668,0.025-1.161,0.077
				c-0.495,0.051-1.048,0.181-1.688,0.397c-0.898,0.301-1.711,0.772-2.351,1.364l-0.022,0.021
				C246.332,477.355,246.134,477.538,245.906,477.827z M254.083,477.383c0.64,0,1.162,0.521,1.162,1.161
				c0,0.642-0.522,1.163-1.162,1.163c-0.64,0-1.161-0.521-1.161-1.163C252.922,477.904,253.443,477.383,254.083,477.383z
				 M248.591,477.336c1.038,0,1.878,0.841,1.878,1.878c0,1.036-0.84,1.876-1.878,1.876c-1.036,0-1.877-0.84-1.877-1.876
				C246.714,478.177,247.555,477.336,248.591,477.336z"/>
		</g>
	</g>
</g>
</svg>
